<svg xmlns="http://www.w3.org/2000/svg" xmlns:xlink="http://www.w3.org/1999/xlink" width="434.468" height="377.7" viewBox="0 0 434.468 377.7">
  <defs>
    <linearGradient id="linear-gradient" x1="-0.071" y1="0.49" x2="1.015" y2="0.49" gradientUnits="objectBoundingBox">
      <stop offset="0" stop-color="#c983ff"/>
      <stop offset="1" stop-color="#9c50ff"/>
    </linearGradient>
    <linearGradient id="linear-gradient-2" x1="-0.036" y1="0.426" x2="0.966" y2="0.426" xlink:href="#linear-gradient"/>
    <linearGradient id="linear-gradient-3" y1="0.5" x2="1" y2="0.5" gradientUnits="objectBoundingBox">
      <stop offset="0" stop-color="#69239b"/>
      <stop offset="1" stop-color="#b22297"/>
    </linearGradient>
    <linearGradient id="linear-gradient-4" y1="0.5" x2="1" y2="0.5" gradientUnits="objectBoundingBox">
      <stop offset="0" stop-color="#a430eb"/>
      <stop offset="1" stop-color="#f832cf"/>
    </linearGradient>
    <linearGradient id="linear-gradient-5" y1="0.5" x2="1" y2="0.5" gradientUnits="objectBoundingBox">
      <stop offset="0" stop-color="#f832cf"/>
      <stop offset="1" stop-color="#ff69d1"/>
    </linearGradient>
    <linearGradient id="linear-gradient-6" y1="0.5" x2="1" y2="0.5" gradientUnits="objectBoundingBox">
      <stop offset="0" stop-color="#3400a3"/>
      <stop offset="1" stop-color="#8600cb"/>
    </linearGradient>
    <linearGradient id="linear-gradient-7" y1="0.5" x2="1" y2="0.5" gradientUnits="objectBoundingBox">
      <stop offset="0" stop-color="#f832cf"/>
      <stop offset="1" stop-color="#a430eb"/>
    </linearGradient>
    <linearGradient id="linear-gradient-9" x1="0.5" y1="1" x2="0.5" gradientUnits="objectBoundingBox">
      <stop offset="0" stop-color="#8600cb"/>
      <stop offset="1" stop-color="#3400a3"/>
    </linearGradient>
    <linearGradient id="linear-gradient-11" y1="0.5" x2="1" y2="0.5" gradientUnits="objectBoundingBox">
      <stop offset="0" stop-color="#ff69d1"/>
      <stop offset="1" stop-color="#f832cf"/>
    </linearGradient>
    <linearGradient id="linear-gradient-12" x1="0.5" y1="1" x2="0.5" y2="0" xlink:href="#linear-gradient-5"/>
    <linearGradient id="linear-gradient-13" x1="0.5" y1="1" x2="0.5" gradientUnits="objectBoundingBox">
      <stop offset="0" stop-color="#3107a5"/>
      <stop offset="1" stop-color="#11023f"/>
    </linearGradient>
    <linearGradient id="linear-gradient-14" x1="0.499" y1="1" x2="0.499" gradientUnits="objectBoundingBox">
      <stop offset="0" stop-color="#32009e"/>
      <stop offset="1" stop-color="#0f0035"/>
    </linearGradient>
    <linearGradient id="linear-gradient-15" x1="0" y1="0.5" x2="1" y2="0.5" xlink:href="#linear-gradient-13"/>
    <linearGradient id="linear-gradient-17" y1="0.5" x2="1" y2="0.5" gradientUnits="objectBoundingBox">
      <stop offset="0" stop-color="#1c80d3"/>
      <stop offset="1" stop-color="#2da9fc"/>
    </linearGradient>
    <linearGradient id="linear-gradient-18" y1="0.5" x2="1" y2="0.5" gradientUnits="objectBoundingBox">
      <stop offset="0" stop-color="#4747ea"/>
      <stop offset="1" stop-color="#2da9fc"/>
    </linearGradient>
    <linearGradient id="linear-gradient-20" y1="0.5" x2="1" y2="0.5" gradientUnits="objectBoundingBox">
      <stop offset="0" stop-color="#5c00d6"/>
      <stop offset="1" stop-color="#7852f9"/>
    </linearGradient>
    <linearGradient id="linear-gradient-21" y1="0.5" x2="1" y2="0.5" gradientUnits="objectBoundingBox">
      <stop offset="0" stop-color="#36008f"/>
      <stop offset="1" stop-color="#5d00d9"/>
    </linearGradient>
    <linearGradient id="linear-gradient-22" x1="0" y1="0.5" x2="1" y2="0.5" xlink:href="#linear-gradient-21"/>
    <linearGradient id="linear-gradient-23" x1="0" y1="0.5" x2="1" y2="0.5" xlink:href="#linear-gradient-3"/>
    <linearGradient id="linear-gradient-24" x1="-0.001" y1="0.501" x2="0.999" y2="0.501" gradientUnits="objectBoundingBox">
      <stop offset="0" stop-color="#062a3a"/>
      <stop offset="1" stop-color="#0c506d"/>
    </linearGradient>
    <linearGradient id="linear-gradient-25" x1="0.001" y1="0.501" x2="1" y2="0.501" gradientUnits="objectBoundingBox">
      <stop offset="0" stop-color="#0b4768"/>
      <stop offset="1" stop-color="#158acc"/>
    </linearGradient>
    <linearGradient id="linear-gradient-26" x1="0" y1="0.501" x2="0.999" y2="0.501" xlink:href="#linear-gradient-25"/>
    <linearGradient id="linear-gradient-27" x1="0.225" y1="0.866" x2="0.648" y2="0.051" gradientUnits="objectBoundingBox">
      <stop offset="0" stop-color="#2a2bcc"/>
      <stop offset="0.568" stop-color="#2e93cc"/>
      <stop offset="0.641" stop-color="#2e89cc"/>
      <stop offset="0.767" stop-color="#2d6dcc"/>
      <stop offset="0.93" stop-color="#2b40cc"/>
      <stop offset="1" stop-color="#2a2bcc"/>
    </linearGradient>
    <linearGradient id="linear-gradient-28" x1="0.003" y1="0.5" x2="1.003" y2="0.5" gradientUnits="objectBoundingBox">
      <stop offset="0" stop-color="#1c80d3"/>
      <stop offset="0.632" stop-color="#2da9fc"/>
      <stop offset="1" stop-color="#2de3fc"/>
    </linearGradient>
    <linearGradient id="linear-gradient-29" x1="-0.001" y1="0.501" x2="0.999" y2="0.501" xlink:href="#linear-gradient-24"/>
    <linearGradient id="linear-gradient-30" x1="0.001" y1="0.501" x2="1" y2="0.501" xlink:href="#linear-gradient-25"/>
    <linearGradient id="linear-gradient-31" x1="0" y1="0.5" x2="0.999" y2="0.5" xlink:href="#linear-gradient-25"/>
    <linearGradient id="linear-gradient-32" x1="0.225" y1="0.866" x2="0.649" y2="0.051" xlink:href="#linear-gradient-27"/>
    <linearGradient id="linear-gradient-33" x1="0.003" y1="0.5" x2="1.004" y2="0.5" xlink:href="#linear-gradient-28"/>
    <linearGradient id="linear-gradient-34" x1="-0.001" y1="0.499" x2="0.999" y2="0.499" xlink:href="#linear-gradient-24"/>
    <linearGradient id="linear-gradient-35" x1="0.001" y1="0.499" x2="1" y2="0.499" xlink:href="#linear-gradient-25"/>
    <linearGradient id="linear-gradient-36" x1="0" y1="0.499" x2="0.999" y2="0.499" xlink:href="#linear-gradient-25"/>
    <linearGradient id="linear-gradient-37" x1="0.225" y1="0.867" x2="0.648" y2="0.051" xlink:href="#linear-gradient-27"/>
    <linearGradient id="linear-gradient-38" x1="0.003" y1="0.501" x2="1.003" y2="0.501" xlink:href="#linear-gradient-28"/>
    <linearGradient id="linear-gradient-39" x1="0" y1="0.5" x2="1" y2="0.5" xlink:href="#linear-gradient-24"/>
    <linearGradient id="linear-gradient-40" x1="0.001" y1="0.5" x2="1" y2="0.5" xlink:href="#linear-gradient-25"/>
    <linearGradient id="linear-gradient-41" x1="0" y1="0.5" x2="1" y2="0.5" xlink:href="#linear-gradient-25"/>
    <linearGradient id="linear-gradient-42" x1="0.226" y1="0.868" x2="0.649" y2="0.052" xlink:href="#linear-gradient-27"/>
    <linearGradient id="linear-gradient-43" x1="-0.003" y1="0.499" x2="0.998" y2="0.499" xlink:href="#linear-gradient-28"/>
    <linearGradient id="linear-gradient-44" x1="0" y1="0.5" x2="1" y2="0.5" xlink:href="#linear-gradient-24"/>
    <linearGradient id="linear-gradient-45" x1="0.002" y1="0.5" x2="1" y2="0.5" xlink:href="#linear-gradient-25"/>
    <linearGradient id="linear-gradient-46" x1="0" y1="0.5" x2="1" y2="0.5" xlink:href="#linear-gradient-25"/>
    <linearGradient id="linear-gradient-47" x1="0.226" y1="0.867" x2="0.649" y2="0.052" xlink:href="#linear-gradient-27"/>
    <linearGradient id="linear-gradient-48" x1="-0.001" y1="0.499" x2="0.999" y2="0.499" xlink:href="#linear-gradient-28"/>
    <linearGradient id="linear-gradient-49" x1="0" y1="0.5" x2="1" y2="0.5" xlink:href="#linear-gradient-21"/>
    <linearGradient id="linear-gradient-50" x1="0" y1="0.5" x2="1" y2="0.5" xlink:href="#linear-gradient-21"/>
    <linearGradient id="linear-gradient-51" x1="0.025" y1="0.499" x2="0.994" y2="0.499" xlink:href="#linear-gradient-21"/>
    <linearGradient id="linear-gradient-52" x1="0" y1="0.499" x2="1" y2="0.499" xlink:href="#linear-gradient-21"/>
    <linearGradient id="linear-gradient-53" x1="0" y1="0.5" x2="1" y2="0.5" xlink:href="#linear-gradient-21"/>
    <linearGradient id="linear-gradient-54" x1="-0.001" y1="0.501" x2="1.002" y2="0.501" xlink:href="#linear-gradient-21"/>
    <linearGradient id="linear-gradient-55" x1="0.001" y1="0.498" x2="1.002" y2="0.498" xlink:href="#linear-gradient-21"/>
    <linearGradient id="linear-gradient-56" x1="0" y1="0.5" x2="1" y2="0.5" xlink:href="#linear-gradient-21"/>
    <linearGradient id="linear-gradient-57" x1="0" y1="0.5" x2="1" y2="0.5" xlink:href="#linear-gradient-20"/>
    <linearGradient id="linear-gradient-58" x1="0" y1="0.5" x2="1.001" y2="0.5" xlink:href="#linear-gradient-28"/>
    <linearGradient id="linear-gradient-59" y1="0.5" x2="1.001" y2="0.5" gradientUnits="objectBoundingBox">
      <stop offset="0" stop-color="#0c6daf"/>
      <stop offset="0.632" stop-color="#158acc"/>
      <stop offset="1" stop-color="#2de3fc"/>
    </linearGradient>
    <linearGradient id="linear-gradient-60" x1="-0.001" y1="0.5" x2="0.999" y2="0.5" xlink:href="#linear-gradient-28"/>
    <linearGradient id="linear-gradient-61" x1="0" y1="0.5" x2="1" y2="0.5" xlink:href="#linear-gradient-21"/>
    <linearGradient id="linear-gradient-62" x1="0" y1="0.5" x2="1" y2="0.5" xlink:href="#linear-gradient-20"/>
    <linearGradient id="linear-gradient-63" x1="0.725" y1="1.237" x2="0.275" y2="-0.236" xlink:href="#linear-gradient-20"/>
    <linearGradient id="linear-gradient-64" x1="0.5" y1="1" x2="0.5" y2="0" xlink:href="#linear-gradient-20"/>
    <linearGradient id="linear-gradient-65" x1="0.135" y1="0.773" x2="0.675" y2="0.227" xlink:href="#linear-gradient-21"/>
    <linearGradient id="linear-gradient-66" x1="0.499" y1="1" x2="0.499" y2="0" xlink:href="#linear-gradient-21"/>
    <linearGradient id="linear-gradient-67" x1="0.5" y1="1" x2="0.5" y2="0" xlink:href="#linear-gradient-20"/>
    <linearGradient id="linear-gradient-68" x1="0" y1="0.5" x2="1" y2="0.5" xlink:href="#linear-gradient-21"/>
    <linearGradient id="linear-gradient-69" x1="0" y1="0.501" x2="1" y2="0.501" xlink:href="#linear-gradient-20"/>
    <linearGradient id="linear-gradient-70" y1="0.5" x2="1" y2="0.5" gradientUnits="objectBoundingBox">
      <stop offset="0" stop-color="#4327cc"/>
      <stop offset="1" stop-color="#5848bc"/>
    </linearGradient>
    <linearGradient id="linear-gradient-71" x1="0.5" y1="1" x2="0.5" gradientUnits="objectBoundingBox">
      <stop offset="0" stop-color="#5d00d9"/>
      <stop offset="1" stop-color="#36008f"/>
    </linearGradient>
    <linearGradient id="linear-gradient-72" x1="0" y1="0.5" x2="1" y2="0.5" xlink:href="#linear-gradient-20"/>
    <linearGradient id="linear-gradient-73" x1="0" y1="0.5" x2="1" y2="0.5" xlink:href="#linear-gradient-21"/>
    <linearGradient id="linear-gradient-74" x1="0" y1="0.5" x2="1" y2="0.5" xlink:href="#linear-gradient-20"/>
    <linearGradient id="linear-gradient-75" x1="0" y1="0.5" x2="1.001" y2="0.5" xlink:href="#linear-gradient-21"/>
    <linearGradient id="linear-gradient-76" x1="0" y1="0.499" x2="1.001" y2="0.499" xlink:href="#linear-gradient-20"/>
    <linearGradient id="linear-gradient-77" x1="-0.001" y1="0.5" x2="1" y2="0.5" xlink:href="#linear-gradient-21"/>
    <linearGradient id="linear-gradient-78" y1="0.5" x2="1" y2="0.5" gradientUnits="objectBoundingBox">
      <stop offset="0" stop-color="#ed6c14"/>
      <stop offset="1" stop-color="#e09824"/>
    </linearGradient>
    <linearGradient id="linear-gradient-79" y1="0.5" x2="1" y2="0.5" gradientUnits="objectBoundingBox">
      <stop offset="0" stop-color="#fd7d14"/>
      <stop offset="1" stop-color="#fcd037"/>
    </linearGradient>
    <linearGradient id="linear-gradient-80" x1="0.695" y1="0.739" x2="0.316" y2="0.247" gradientUnits="objectBoundingBox">
      <stop offset="0" stop-color="#2a2bcc"/>
      <stop offset="0.724" stop-color="#54bffd"/>
      <stop offset="1" stop-color="#2a2bcc"/>
    </linearGradient>
    <linearGradient id="linear-gradient-81" y1="0.5" x2="1" y2="0.5" gradientUnits="objectBoundingBox">
      <stop offset="0" stop-color="#345af7"/>
      <stop offset="1" stop-color="#54bffd"/>
    </linearGradient>
    <linearGradient id="linear-gradient-82" x1="1.042" y1="0.942" x2="0.255" y2="-0.08" gradientUnits="objectBoundingBox">
      <stop offset="0" stop-color="#2a2bcc"/>
      <stop offset="0.373" stop-color="#54bffd"/>
      <stop offset="1" stop-color="#2a2bcc"/>
    </linearGradient>
    <linearGradient id="linear-gradient-83" x1="0" y1="0.5" x2="1" y2="0.5" xlink:href="#linear-gradient-81"/>
    <clipPath id="clip-path">
      <path id="Path_793" data-name="Path 793" d="M222.47,63.01l-2.82,1.64c-.13.07-.26.14-.39.2l2.82-1.64A2.867,2.867,0,0,0,222.47,63.01Z"/>
    </clipPath>
    <linearGradient id="linear-gradient-84" x1="0" y1="0.5" x2="1" y2="0.5" xlink:href="#linear-gradient-78"/>
    <linearGradient id="linear-gradient-85" x1="0" y1="0.5" x2="1" y2="0.5" xlink:href="#linear-gradient-79"/>
  </defs>
  <g id="desktop" transform="translate(0 -38.69)">
    <g id="Group_391" data-name="Group 391">
      <g id="Group_243" data-name="Group 243">
        <g id="Group_241" data-name="Group 241" opacity="0.4">
          <path id="Path_599" data-name="Path 599" d="M30.38,295.78c2.02-60.2,116.63-102.31,156.74-197.32s307.56,5.26,194.85,139.49S25.34,445.88,30.38,295.78Z" fill="url(#linear-gradient)"/>
          <path id="Path_600" data-name="Path 600" d="M388.96,148.76c-70.14-65.89-165.14,7.09-254.01-32.04S-68.96,320.36,94.37,339.19,497.87,251.07,388.96,148.76Z" opacity="0.4" fill="url(#linear-gradient-2)"/>
        </g>
        <g id="Group_242" data-name="Group 242">
          <path id="Path_601" data-name="Path 601" d="M104.36,200.84H20.2A15.932,15.932,0,0,1,4.32,184.96h0A15.932,15.932,0,0,1,20.2,169.08h84.16a15.932,15.932,0,0,1,15.88,15.88h0A15.925,15.925,0,0,1,104.36,200.84Z" fill="#fff"/>
          <path id="Path_602" data-name="Path 602" d="M50.05,260.62H7.94A7.966,7.966,0,0,1,0,252.68H0a7.966,7.966,0,0,1,7.94-7.94H50.05a7.966,7.966,0,0,1,7.94,7.94h0A7.966,7.966,0,0,1,50.05,260.62Z" fill="#fff"/>
          <path id="Path_603" data-name="Path 603" d="M357.91,138.89H315.8a7.966,7.966,0,0,1-7.94-7.94h0a7.966,7.966,0,0,1,7.94-7.94h42.11a7.966,7.966,0,0,1,7.94,7.94h0A7.959,7.959,0,0,1,357.91,138.89Z" fill="#fff"/>
          <path id="Path_604" data-name="Path 604" d="M403.51,140.11H382.17a7.966,7.966,0,0,1-7.94-7.94h0a7.966,7.966,0,0,1,7.94-7.94h21.34a7.966,7.966,0,0,1,7.94,7.94h0A7.953,7.953,0,0,1,403.51,140.11Z" fill="#fff"/>
          <path id="Path_605" data-name="Path 605" d="M93.48,96.29H72.13a7.966,7.966,0,0,1-7.94-7.94h0a7.966,7.966,0,0,1,7.94-7.94H93.47a7.966,7.966,0,0,1,7.94,7.94h0A7.944,7.944,0,0,1,93.48,96.29Z" fill="#fff"/>
          <path id="Path_606" data-name="Path 606" d="M418.17,235.78h-13.7a13.042,13.042,0,0,1-13.04-13.04v-6.05a6.991,6.991,0,0,1,6.99-6.99h0a16.157,16.157,0,0,0,16.18-13.94,15.922,15.922,0,0,0-15.76-17.82H315.1a16.157,16.157,0,0,0-16.18,13.94,15.922,15.922,0,0,0,15.76,17.82h39.75v26.08H334.85a16.157,16.157,0,0,0-16.18,13.94,15.922,15.922,0,0,0,15.76,17.82h84.16a15.916,15.916,0,0,0,15.76-17.82A16.156,16.156,0,0,0,418.17,235.78Z" fill="#fff"/>
          <path id="Path_607" data-name="Path 607" d="M123.17,155.38H39.01A15.932,15.932,0,0,1,23.13,139.5h0a15.932,15.932,0,0,1,15.88-15.88h84.16a15.932,15.932,0,0,1,15.88,15.88h0A15.925,15.925,0,0,1,123.17,155.38Z" fill="#fff"/>
          <path id="Path_608" data-name="Path 608" d="M122.27,224.28H38.11A15.932,15.932,0,0,1,22.23,208.4h0a15.932,15.932,0,0,1,15.88-15.88h84.16a15.932,15.932,0,0,1,15.88,15.88h0A15.925,15.925,0,0,1,122.27,224.28Z" fill="#fff"/>
        </g>
      </g>
      <g id="Group_390" data-name="Group 390">
        <g id="Group_244" data-name="Group 244">
          <path id="Path_609" data-name="Path 609" d="M217.65,416.39l158.86-91.8L195.17,219.9,36.31,311.7Z" fill="url(#linear-gradient-3)"/>
          <path id="Path_610" data-name="Path 610" d="M219.32,407.97,401.76,302.55,193.5,182.31,11.06,287.74Z" fill="none" stroke="#f832cf" stroke-miterlimit="10" stroke-width="0.75" opacity="0.8"/>
          <path id="Path_611" data-name="Path 611" d="M218.07,397.07l164.81-95.24L194.75,193.22,29.93,288.45Z" fill="none" stroke="#f832cf" stroke-miterlimit="10" stroke-width="0.5" opacity="0.8"/>
          <path id="Path_612" data-name="Path 612" d="M217.65,386.39l158.86-91.8L195.17,189.9,36.31,281.7Z" fill="url(#linear-gradient-4)"/>
          <path id="Path_613" data-name="Path 613" d="M217.65,386.39v6.47l158.86-91.81v-6.46Z" fill="url(#linear-gradient-5)"/>
          <path id="Path_614" data-name="Path 614" d="M217.65,392.86,36.31,288.16V281.7L217.65,386.39Z" fill="url(#linear-gradient-6)"/>
        </g>
        <g id="Group_245" data-name="Group 245">
          <path id="Path_615" data-name="Path 615" d="M194.93,194.99,40.52,284.14V158.28L194.93,69.13Z" fill="url(#linear-gradient-7)"/>
          <path id="Path_616" data-name="Path 616" d="M371.94,297.23,194.93,194.99V69.13L371.94,171.37Z" fill="url(#linear-gradient-7)"/>
          <path id="Path_617" data-name="Path 617" d="M40.52,284.14l-4.21-2.44V155.83l4.21,2.45Z" fill="url(#linear-gradient-9)"/>
          <path id="Path_618" data-name="Path 618" d="M36.31,155.83,194.93,64.25v4.88L40.52,158.28Z" fill="url(#linear-gradient-5)"/>
          <path id="Path_619" data-name="Path 619" d="M376.51,168.73,194.93,64.25v4.88L371.94,171.37Z" fill="url(#linear-gradient-11)"/>
          <path id="Path_620" data-name="Path 620" d="M371.94,297.23l4.57-2.64V168.73l-4.57,2.64Z" fill="url(#linear-gradient-12)"/>
        </g>
        <g id="Group_246" data-name="Group 246">
          <path id="Path_621" data-name="Path 621" d="M249.44,247.43l63.58-36.71v62.93l-63.58,36.71Z" fill="url(#linear-gradient-13)"/>
          <path id="Path_622" data-name="Path 622" d="M249.44,310.36l-2.82-1.62V245.81l2.82,1.62Z" fill="url(#linear-gradient-14)"/>
          <path id="Path_623" data-name="Path 623" d="M246.62,245.81,310.2,209.1l2.82,1.62-63.58,36.71Z" fill="#494949"/>
        </g>
        <g id="Group_247" data-name="Group 247">
          <path id="Path_624" data-name="Path 624" d="M125.09,182.73l63.58-36.71v55.86l-63.58,36.7Z" fill="url(#linear-gradient-15)"/>
          <path id="Path_625" data-name="Path 625" d="M125.09,238.58l-2.82-1.62V181.11l2.82,1.62Z" fill="url(#linear-gradient-14)"/>
          <path id="Path_626" data-name="Path 626" d="M122.27,181.11l63.58-36.7,2.82,1.61-63.58,36.71Z" fill="#494949"/>
        </g>
        <path id="Path_627" data-name="Path 627" d="M113.19,179.26l81.75-47.2L322.1,205.48l-81.75,47.2Z" fill="url(#linear-gradient-17)"/>
        <path id="Path_628" data-name="Path 628" d="M113.19,179.26v4l127.16,73.42v-4Z" fill="url(#linear-gradient-18)"/>
        <g id="Group_248" data-name="Group 248">
          <path id="Path_629" data-name="Path 629" d="M214.16,217.32l-38.91-22.46,16.51-9.53,38.91,22.46Z" fill="#72abc1"/>
          <path id="Path_630" data-name="Path 630" d="M227.13,207.11l-2.36-1.36-2.36,1.36,2.36,1.36Z" fill="#d8d8d8"/>
          <path id="Path_631" data-name="Path 631" d="M223.59,209.15l-2.36-1.36-2.35,1.36,2.35,1.36Z" fill="#d8d8d8"/>
          <path id="Path_632" data-name="Path 632" d="M220.06,211.19l-2.36-1.36-2.36,1.36,2.36,1.36Z" fill="#d8d8d8"/>
          <path id="Path_633" data-name="Path 633" d="M216.52,213.24l-2.36-1.37-2.36,1.37,2.36,1.36Z" fill="#d8d8d8"/>
          <path id="Path_634" data-name="Path 634" d="M223.59,205.07l-2.36-1.36-2.35,1.36,2.35,1.36Z" fill="#d8d8d8"/>
          <path id="Path_635" data-name="Path 635" d="M220.06,207.11l-2.36-1.36-2.36,1.36,2.36,1.36Z" fill="#d8d8d8"/>
          <path id="Path_636" data-name="Path 636" d="M216.52,209.15l-2.36-1.36-2.36,1.36,2.36,1.36Z" fill="#d8d8d8"/>
          <path id="Path_637" data-name="Path 637" d="M212.98,211.19l-2.36-1.36-2.35,1.36,2.35,1.36Z" fill="#d8d8d8"/>
          <path id="Path_638" data-name="Path 638" d="M220.06,203.03l-2.36-1.37-2.36,1.37,2.36,1.36Z" fill="#d8d8d8"/>
          <path id="Path_639" data-name="Path 639" d="M216.52,205.07l-2.36-1.36-2.36,1.36,2.36,1.36Z" fill="#d8d8d8"/>
          <path id="Path_640" data-name="Path 640" d="M212.98,207.11l-2.36-1.36-2.35,1.36,2.35,1.36Z" fill="#d8d8d8"/>
          <path id="Path_641" data-name="Path 641" d="M209.44,209.15l-2.35-1.36-2.36,1.36,2.36,1.36Z" fill="#d8d8d8"/>
          <path id="Path_642" data-name="Path 642" d="M216.52,200.98l-2.36-1.36-2.36,1.36,2.36,1.36Z" fill="#d8d8d8"/>
          <path id="Path_643" data-name="Path 643" d="M212.98,203.03l-2.36-1.37-2.35,1.37,2.35,1.36Z" fill="#d8d8d8"/>
          <path id="Path_644" data-name="Path 644" d="M209.44,205.07l-2.35-1.36-2.36,1.36,2.36,1.36Z" fill="#d8d8d8"/>
          <path id="Path_645" data-name="Path 645" d="M212.98,198.94l-2.36-1.36-2.35,1.36,2.35,1.36Z" fill="#d8d8d8"/>
          <path id="Path_646" data-name="Path 646" d="M209.44,200.98l-2.35-1.36-2.36,1.36,2.36,1.36Z" fill="#d8d8d8"/>
          <path id="Path_647" data-name="Path 647" d="M205.91,203.03l-2.36-1.37-2.36,1.37,2.36,1.36Z" fill="#d8d8d8"/>
          <path id="Path_648" data-name="Path 648" d="M204.73,206.43l-11.79-6.81-2.36,1.36,11.79,6.81Z" fill="#d8d8d8"/>
          <path id="Path_649" data-name="Path 649" d="M209.44,196.9l-2.35-1.36-2.36,1.36,2.36,1.36Z" fill="#d8d8d8"/>
          <path id="Path_650" data-name="Path 650" d="M205.91,198.94l-2.36-1.36-2.36,1.36,2.36,1.36Z" fill="#d8d8d8"/>
          <path id="Path_651" data-name="Path 651" d="M202.37,200.98l-2.36-1.36-2.36,1.36,2.36,1.36Z" fill="#d8d8d8"/>
          <path id="Path_652" data-name="Path 652" d="M205.91,194.86l-2.36-1.36-2.36,1.36,2.36,1.36Z" fill="#d8d8d8"/>
          <path id="Path_653" data-name="Path 653" d="M202.37,196.9l-2.36-1.36-2.36,1.36,2.36,1.36Z" fill="#d8d8d8"/>
          <path id="Path_654" data-name="Path 654" d="M198.83,198.94l-2.35-1.36-2.36,1.36,2.36,1.36Z" fill="#d8d8d8"/>
          <path id="Path_655" data-name="Path 655" d="M202.37,192.82l-2.36-1.37-2.36,1.37,2.36,1.36Z" fill="#d8d8d8"/>
          <path id="Path_656" data-name="Path 656" d="M198.83,194.86l-2.35-1.36-2.36,1.36,2.36,1.36Z" fill="#d8d8d8"/>
          <path id="Path_657" data-name="Path 657" d="M195.3,196.9l-2.36-1.36-2.36,1.36,2.36,1.36Z" fill="#d8d8d8"/>
          <path id="Path_658" data-name="Path 658" d="M191.76,198.94l-2.36-1.36-2.36,1.36,2.36,1.36Z" fill="#d8d8d8"/>
          <path id="Path_659" data-name="Path 659" d="M198.83,190.77l-2.35-1.36-2.36,1.36,2.36,1.36Z" fill="#d8d8d8"/>
          <path id="Path_660" data-name="Path 660" d="M195.3,192.82l-2.36-1.37-2.36,1.37,2.36,1.36Z" fill="#d8d8d8"/>
          <path id="Path_661" data-name="Path 661" d="M191.76,194.86l-2.36-1.36-2.36,1.36,2.36,1.36Z" fill="#d8d8d8"/>
          <path id="Path_662" data-name="Path 662" d="M188.22,196.9l-2.35-1.36-2.36,1.36,2.36,1.36Z" fill="#d8d8d8"/>
          <path id="Path_663" data-name="Path 663" d="M195.3,188.73l-2.36-1.36-2.36,1.36,2.36,1.36Z" fill="#d8d8d8"/>
          <path id="Path_664" data-name="Path 664" d="M191.76,190.77l-2.36-1.36-2.36,1.36,2.36,1.36Z" fill="#d8d8d8"/>
          <path id="Path_665" data-name="Path 665" d="M188.22,192.82l-2.35-1.37-2.36,1.37,2.36,1.36Z" fill="#d8d8d8"/>
          <path id="Path_666" data-name="Path 666" d="M184.9,194.86l-2.36-1.36-2.36,1.36,2.36,1.36Z" fill="#d8d8d8"/>
          <path id="Path_667" data-name="Path 667" d="M214.16,217.32v.73l-38.91-22.51v-.68Z" fill="#b3e6ff"/>
          <path id="Path_668" data-name="Path 668" d="M214.16,218.05l16.51-9.58v-.68l-16.51,9.53Z" fill="#b3e6ff"/>
        </g>
        <path id="Path_669" data-name="Path 669" d="M240.35,256.68l81.75-47.2v-4l-81.75,47.2Z" fill="url(#linear-gradient-18)"/>
        <g id="Group_249" data-name="Group 249">
          <path id="Path_670" data-name="Path 670" d="M234.9,235.59l21.79-12.58-23.1-13.33L211.8,222.26Z" fill="url(#linear-gradient-20)"/>
          <path id="Path_671" data-name="Path 671" d="M234.9,235.59v.35l21.79-12.58v-.35Z" fill="url(#linear-gradient-21)"/>
          <path id="Path_672" data-name="Path 672" d="M234.9,235.94l-23.1-13.33v-.35l23.1,13.33Z" fill="url(#linear-gradient-22)"/>
        </g>
        <path id="Path_673" data-name="Path 673" d="M228.33,226.57c-1.42-.12-4.81-.64-4.66-3.04a11.5,11.5,0,0,1,8.87-5.58s4.24.15,5.09,2.95a.854.854,0,0,1-.41.97l-7.78,4.45A1.955,1.955,0,0,1,228.33,226.57Z" fill="#6c6c6c"/>
        <g id="Group_316" data-name="Group 316">
          <path id="Path_674" data-name="Path 674" d="M222.52,280.26l-9.77-5.64a30.74,30.74,0,0,0-30.75.01l-6.88,3.98a6.776,6.776,0,0,0-2.27,2.14,56.449,56.449,0,0,0-36.86,6.9l-12.64,7.3a12.482,12.482,0,0,0,0,21.61l30.12,17.39a38.315,38.315,0,0,0,38.33-.01l18.58-10.73a14.559,14.559,0,0,0,2.33-23.54l9.8-5.67A7.932,7.932,0,0,0,222.52,280.26Z" opacity="0.45" fill="url(#linear-gradient-23)"/>
          <g id="Group_250" data-name="Group 250">
            <path id="Path_675" data-name="Path 675" d="M183.66,276.09s-2.64,2.56-1.33,7.14c.33,1.68,2.57,2.34,4.12,2.02,2.59-.53,4.89-2.02,7.91-3.77,3.75-2.18,6.68-3.68,7.47-4.45,1.8-1.77-.62-4.6-11.49-2.99C189.38,274.21,183.66,276.09,183.66,276.09Z" fill="#0d2935"/>
            <path id="Path_676" data-name="Path 676" d="M179.5,227.89c-2.3.8-10.79,4.82-16.43,7.52v18.82a199.032,199.032,0,0,0,18.18-10.12v4.61c0,1.86,1.32,25.36,1.32,28.77,0,3.79,8.35,4.03,8.35-1.17,0-1.54,1.05-31.71,1.05-39.77S183.29,226.57,179.5,227.89Z" fill="#1e89d1"/>
          </g>
          <g id="Group_306" data-name="Group 306">
            <g id="Group_302" data-name="Group 302">
              <g id="Group_258" data-name="Group 258">
                <g id="Group_256" data-name="Group 256">
                  <g id="Group_253" data-name="Group 253">
                    <g id="Group_251" data-name="Group 251">
                      <path id="Path_677" data-name="Path 677" d="M125.15,305.17c.7-1.17,1.87-1.76,2.62-1.32l1.04.58-2.54,4.23-1.01-.56C124.5,307.65,124.46,306.34,125.15,305.17Z" fill="#999"/>
                      <path id="Path_678" data-name="Path 678" d="M128.88,307.34c-.7,1.17-1.87,1.76-2.62,1.32s-.79-1.75-.1-2.93,1.87-1.76,2.62-1.32S129.58,306.17,128.88,307.34Z" fill="#9a9a9a"/>
                    </g>
                    <g id="Group_252" data-name="Group 252">
                      <path id="Path_679" data-name="Path 679" d="M126.4,305.88c.7-1.17,1.87-1.76,2.62-1.32l1.04.58-2.54,4.23-1.01-.56C125.75,308.37,125.71,307.06,126.4,305.88Z" fill="url(#linear-gradient-24)"/>
                      <path id="Path_680" data-name="Path 680" d="M130.13,308.05c-.7,1.17-1.87,1.76-2.62,1.32s-.79-1.75-.1-2.93,1.87-1.76,2.62-1.32S130.82,306.88,130.13,308.05Z" fill="url(#linear-gradient-25)"/>
                    </g>
                  </g>
                  <g id="Group_255" data-name="Group 255">
                    <path id="Path_681" data-name="Path 681" d="M129.62,304.61l-.22-.04-1.62-.89c-.8-.48-2.06.16-2.81,1.42s-.7,2.67.1,3.15l1.62.89-.06.11.59.35.12-.1c-.8-.48-.85-1.89-.1-3.15s2-1.89,2.8-1.42l.01-.11Z" fill="url(#linear-gradient-26)"/>
                    <g id="Group_254" data-name="Group 254">
                      <path id="Path_682" data-name="Path 682" d="M127.12,306.31c.78-1.31,2.09-1.97,2.93-1.49l-2.38-1.31c-.84-.5-2.16.16-2.94,1.48s-.73,2.79.11,3.29l2.39,1.31C126.38,309.1,126.33,307.62,127.12,306.31Z" fill="url(#linear-gradient-27)"/>
                    </g>
                  </g>
                </g>
                <g id="Group_257" data-name="Group 257">
                  <path id="Path_683" data-name="Path 683" d="M126.66,301.67v2.42a.481.481,0,0,0,.24.42,1.076,1.076,0,0,0,1.07,0,.481.481,0,0,0,.24-.42v-2.42Z" fill="url(#linear-gradient-28)"/>
                  <path id="Path_684" data-name="Path 684" d="M127.97,302.09h0a.487.487,0,0,0,0-.84h0a1.076,1.076,0,0,0-1.07,0h0a.487.487,0,0,0,0,.84h0A1.075,1.075,0,0,0,127.97,302.09Z" fill="#999"/>
                </g>
              </g>
              <g id="Group_266" data-name="Group 266">
                <g id="Group_264" data-name="Group 264">
                  <g id="Group_261" data-name="Group 261">
                    <g id="Group_259" data-name="Group 259">
                      <path id="Path_685" data-name="Path 685" d="M153.85,325.19c.7-1.17,1.87-1.76,2.62-1.32l1.04.58-2.54,4.23-1.01-.56C153.2,327.67,153.16,326.36,153.85,325.19Z" fill="#999"/>
                      <path id="Path_686" data-name="Path 686" d="M157.58,327.36c-.7,1.17-1.87,1.76-2.62,1.32s-.79-1.75-.1-2.93,1.87-1.76,2.62-1.32S158.28,326.19,157.58,327.36Z" fill="#9a9a9a"/>
                    </g>
                    <g id="Group_260" data-name="Group 260">
                      <path id="Path_687" data-name="Path 687" d="M155.1,325.9c.7-1.17,1.87-1.76,2.62-1.32l1.04.58-2.54,4.23-1.01-.56C154.45,328.39,154.41,327.08,155.1,325.9Z" fill="url(#linear-gradient-29)"/>
                      <path id="Path_688" data-name="Path 688" d="M158.83,328.07c-.7,1.17-1.87,1.76-2.62,1.32s-.79-1.75-.1-2.93,1.87-1.76,2.62-1.32S159.52,326.9,158.83,328.07Z" fill="url(#linear-gradient-30)"/>
                    </g>
                  </g>
                  <g id="Group_263" data-name="Group 263">
                    <path id="Path_689" data-name="Path 689" d="M158.32,324.63l-.22-.04-1.62-.89c-.8-.48-2.06.16-2.81,1.42s-.7,2.67.1,3.15l1.62.89-.06.11.59.35.12-.1c-.8-.48-.85-1.89-.1-3.15s2-1.89,2.8-1.42l.01-.11Z" fill="url(#linear-gradient-31)"/>
                    <g id="Group_262" data-name="Group 262">
                      <path id="Path_690" data-name="Path 690" d="M155.82,326.33c.78-1.31,2.09-1.97,2.93-1.49l-2.38-1.31c-.84-.5-2.16.16-2.94,1.48s-.73,2.79.11,3.29l2.39,1.31C155.08,329.12,155.03,327.64,155.82,326.33Z" fill="url(#linear-gradient-32)"/>
                    </g>
                  </g>
                </g>
                <g id="Group_265" data-name="Group 265">
                  <path id="Path_691" data-name="Path 691" d="M155.36,321.69v2.42a.481.481,0,0,0,.24.42,1.076,1.076,0,0,0,1.07,0,.481.481,0,0,0,.24-.42v-2.42Z" fill="url(#linear-gradient-33)"/>
                  <path id="Path_692" data-name="Path 692" d="M156.67,322.11h0a.487.487,0,0,0,0-.84h0a1.076,1.076,0,0,0-1.07,0h0a.487.487,0,0,0,0,.84h0A1.076,1.076,0,0,0,156.67,322.11Z" fill="#999"/>
                </g>
              </g>
              <g id="Group_274" data-name="Group 274">
                <g id="Group_272" data-name="Group 272">
                  <g id="Group_269" data-name="Group 269">
                    <g id="Group_267" data-name="Group 267">
                      <path id="Path_693" data-name="Path 693" d="M193.17,314.69c.7-1.17,1.87-1.76,2.62-1.32l1.04.58-2.54,4.23-1.01-.56C192.52,317.17,192.48,315.86,193.17,314.69Z" fill="#999"/>
                      <path id="Path_694" data-name="Path 694" d="M196.9,316.86c-.7,1.17-1.87,1.76-2.62,1.32s-.79-1.75-.1-2.93,1.87-1.76,2.62-1.32S197.6,315.69,196.9,316.86Z" fill="#9a9a9a"/>
                    </g>
                    <g id="Group_268" data-name="Group 268">
                      <path id="Path_695" data-name="Path 695" d="M194.42,315.41c.7-1.17,1.87-1.76,2.62-1.32l1.04.58-2.54,4.23-1.01-.56C193.77,317.89,193.73,316.58,194.42,315.41Z" fill="url(#linear-gradient-34)"/>
                      <path id="Path_696" data-name="Path 696" d="M198.15,317.58c-.7,1.17-1.87,1.76-2.62,1.32s-.79-1.75-.1-2.93,1.87-1.76,2.62-1.32S198.84,316.4,198.15,317.58Z" fill="url(#linear-gradient-35)"/>
                    </g>
                  </g>
                  <g id="Group_271" data-name="Group 271">
                    <path id="Path_697" data-name="Path 697" d="M197.64,314.14l-.22-.04-1.62-.89c-.8-.48-2.06.16-2.81,1.42s-.7,2.67.1,3.15l1.62.89-.06.11.59.35.12-.1c-.8-.48-.85-1.89-.1-3.15s2-1.89,2.8-1.42l.01-.11Z" fill="url(#linear-gradient-36)"/>
                    <g id="Group_270" data-name="Group 270">
                      <path id="Path_698" data-name="Path 698" d="M195.14,315.83c.78-1.31,2.09-1.97,2.93-1.49l-2.38-1.31c-.84-.5-2.16.16-2.94,1.48s-.73,2.79.11,3.29l2.39,1.31C194.4,318.62,194.35,317.15,195.14,315.83Z" fill="url(#linear-gradient-37)"/>
                    </g>
                  </g>
                </g>
                <g id="Group_273" data-name="Group 273">
                  <path id="Path_699" data-name="Path 699" d="M194.68,311.19v2.42a.481.481,0,0,0,.24.42,1.076,1.076,0,0,0,1.07,0,.481.481,0,0,0,.24-.42v-2.42Z" fill="url(#linear-gradient-38)"/>
                  <path id="Path_700" data-name="Path 700" d="M195.99,311.61h0a.487.487,0,0,0,0-.84h0a1.076,1.076,0,0,0-1.07,0h0a.487.487,0,0,0,0,.84h0A1.076,1.076,0,0,0,195.99,311.61Z" fill="#999"/>
                </g>
              </g>
              <g id="Group_282" data-name="Group 282">
                <g id="Group_280" data-name="Group 280">
                  <g id="Group_277" data-name="Group 277">
                    <g id="Group_275" data-name="Group 275">
                      <path id="Path_701" data-name="Path 701" d="M148.55,282.61c.7-1.17,1.87-1.76,2.62-1.32l1.04.58-2.54,4.23-1.01-.56C147.89,285.09,147.85,283.78,148.55,282.61Z" fill="#999"/>
                      <path id="Path_702" data-name="Path 702" d="M152.27,284.78c-.7,1.17-1.87,1.76-2.62,1.32s-.79-1.75-.1-2.93,1.87-1.76,2.62-1.32S152.97,283.6,152.27,284.78Z" fill="#9a9a9a"/>
                    </g>
                    <g id="Group_276" data-name="Group 276">
                      <path id="Path_703" data-name="Path 703" d="M149.79,283.32c.7-1.17,1.87-1.76,2.62-1.32l1.04.58-2.54,4.23-1.01-.56C149.14,285.8,149.1,284.49,149.79,283.32Z" fill="url(#linear-gradient-39)"/>
                      <path id="Path_704" data-name="Path 704" d="M153.52,285.49c-.7,1.17-1.87,1.76-2.62,1.32s-.79-1.75-.1-2.93,1.87-1.76,2.62-1.32S154.22,284.32,153.52,285.49Z" fill="url(#linear-gradient-40)"/>
                    </g>
                  </g>
                  <g id="Group_279" data-name="Group 279">
                    <path id="Path_705" data-name="Path 705" d="M153.01,282.05l-.22-.04-1.62-.89c-.8-.48-2.06.16-2.81,1.42s-.7,2.67.1,3.15l1.62.89-.06.11.59.35.12-.1c-.8-.48-.85-1.89-.1-3.15s2-1.89,2.8-1.42l.01-.11Z" fill="url(#linear-gradient-41)"/>
                    <g id="Group_278" data-name="Group 278">
                      <path id="Path_706" data-name="Path 706" d="M150.51,283.74c.78-1.31,2.09-1.97,2.93-1.49l-2.38-1.31c-.84-.5-2.16.16-2.94,1.48s-.73,2.79.11,3.29l2.39,1.31C149.77,286.53,149.73,285.06,150.51,283.74Z" fill="url(#linear-gradient-42)"/>
                    </g>
                  </g>
                </g>
                <g id="Group_281" data-name="Group 281">
                  <path id="Path_707" data-name="Path 707" d="M150.06,279.11v2.42a.481.481,0,0,0,.24.42,1.076,1.076,0,0,0,1.07,0,.481.481,0,0,0,.24-.42v-2.42Z" fill="url(#linear-gradient-43)"/>
                  <path id="Path_708" data-name="Path 708" d="M151.36,279.53h0a.487.487,0,0,0,0-.84h0a1.076,1.076,0,0,0-1.07,0h0a.487.487,0,0,0,0,.84h0A1.076,1.076,0,0,0,151.36,279.53Z" fill="#999"/>
                </g>
              </g>
              <g id="Group_290" data-name="Group 290">
                <g id="Group_288" data-name="Group 288">
                  <g id="Group_285" data-name="Group 285">
                    <g id="Group_283" data-name="Group 283">
                      <path id="Path_709" data-name="Path 709" d="M191,288.75c.7-1.17,1.87-1.76,2.62-1.32l1.04.58-2.54,4.23-1.01-.56C190.34,291.23,190.3,289.92,191,288.75Z" fill="#999"/>
                      <path id="Path_710" data-name="Path 710" d="M194.72,290.92c-.7,1.17-1.87,1.76-2.62,1.32s-.79-1.75-.1-2.93,1.87-1.76,2.62-1.32S195.42,289.74,194.72,290.92Z" fill="#9a9a9a"/>
                    </g>
                    <g id="Group_284" data-name="Group 284">
                      <path id="Path_711" data-name="Path 711" d="M192.24,289.46c.7-1.17,1.87-1.76,2.62-1.32l1.04.58-2.54,4.23-1.01-.56C191.59,291.94,191.55,290.63,192.24,289.46Z" fill="url(#linear-gradient-44)"/>
                      <path id="Path_712" data-name="Path 712" d="M195.97,291.63c-.7,1.17-1.87,1.76-2.62,1.32s-.79-1.75-.1-2.93,1.87-1.76,2.62-1.32S196.67,290.46,195.97,291.63Z" fill="url(#linear-gradient-45)"/>
                    </g>
                  </g>
                  <g id="Group_287" data-name="Group 287">
                    <path id="Path_713" data-name="Path 713" d="M195.46,288.19l-.22-.04-1.62-.89c-.8-.48-2.06.16-2.81,1.42s-.7,2.67.1,3.15l1.62.89-.06.11.59.35.12-.1c-.8-.48-.85-1.89-.1-3.15s2-1.89,2.8-1.42l.01-.11Z" fill="url(#linear-gradient-46)"/>
                    <g id="Group_286" data-name="Group 286">
                      <path id="Path_714" data-name="Path 714" d="M192.96,289.88c.78-1.31,2.09-1.97,2.93-1.49l-2.38-1.31c-.84-.5-2.16.16-2.94,1.48s-.73,2.79.11,3.29l2.39,1.31C192.23,292.67,192.18,291.2,192.96,289.88Z" fill="url(#linear-gradient-47)"/>
                    </g>
                  </g>
                </g>
                <g id="Group_289" data-name="Group 289">
                  <path id="Path_715" data-name="Path 715" d="M192.51,285.25v2.42a.481.481,0,0,0,.24.42,1.076,1.076,0,0,0,1.07,0,.481.481,0,0,0,.24-.42v-2.42Z" fill="url(#linear-gradient-48)"/>
                  <path id="Path_716" data-name="Path 716" d="M193.82,285.67h0a.487.487,0,0,0,0-.84h0a1.076,1.076,0,0,0-1.07,0h0a.487.487,0,0,0,0,.84h0A1.076,1.076,0,0,0,193.82,285.67Z" fill="#999"/>
                </g>
              </g>
              <g id="Group_301" data-name="Group 301">
                <g id="Group_300" data-name="Group 300">
                  <g id="Group_291" data-name="Group 291">
                    <path id="Path_717" data-name="Path 717" d="M159.6,297.85v2.61l-10.75-21.53v-.81Z" fill="url(#linear-gradient-49)"/>
                  </g>
                  <g id="Group_292" data-name="Group 292">
                    <path id="Path_718" data-name="Path 718" d="M195.18,284.79l-.01.81L170.9,302.09l.01-2.61Z" fill="url(#linear-gradient-50)"/>
                  </g>
                  <g id="Group_293" data-name="Group 293">
                    <path id="Path_719" data-name="Path 719" d="M125.81,302.23v.81l-.16-1.13.01-.8Z" fill="url(#linear-gradient-51)"/>
                  </g>
                  <g id="Group_294" data-name="Group 294">
                    <path id="Path_720" data-name="Path 720" d="M160.18,302.18v2.61l-34.37-1.75v-.81Z" fill="url(#linear-gradient-52)"/>
                  </g>
                  <g id="Group_295" data-name="Group 295">
                    <path id="Path_721" data-name="Path 721" d="M197.82,312.61v.8l-30.65-7.62v-2.61Z" fill="url(#linear-gradient-53)"/>
                  </g>
                  <g id="Group_296" data-name="Group 296">
                    <path id="Path_722" data-name="Path 722" d="M198.79,311.64v.81l-.97.96v-.8Z" fill="url(#linear-gradient-54)"/>
                  </g>
                  <g id="Group_297" data-name="Group 297">
                    <path id="Path_723" data-name="Path 723" d="M156.67,322.95v.81l-1.82-.27v-.8Z" fill="url(#linear-gradient-55)"/>
                  </g>
                  <g id="Group_298" data-name="Group 298">
                    <path id="Path_724" data-name="Path 724" d="M167.17,303.18v2.61l-10.5,17.97v-.81Z" fill="url(#linear-gradient-56)"/>
                  </g>
                  <g id="Group_299" data-name="Group 299">
                    <path id="Path_725" data-name="Path 725" d="M150.58,277.69l15.65,18.5,27.73-12.25,1.22.85-24.27,14.69,27.88,12.16-.97.97-30.65-9.43-10.5,19.77-1.82-.26,5.33-20.51-34.37.05-.15-1.12,33.94-3.26-10.75-19.73Z" fill="url(#linear-gradient-57)"/>
                  </g>
                </g>
              </g>
            </g>
            <g id="Group_305" data-name="Group 305">
              <g id="Group_303" data-name="Group 303">
                <path id="Path_726" data-name="Path 726" d="M161.12,292.54v6.66a2.156,2.156,0,0,0,1.08,1.88,4.78,4.78,0,0,0,4.77,0,2.156,2.156,0,0,0,1.08-1.88v-6.66Z" fill="url(#linear-gradient-58)"/>
                <path id="Path_727" data-name="Path 727" d="M166.97,294.42h0a2.168,2.168,0,0,0,0-3.75h0a4.78,4.78,0,0,0-4.77,0h0a2.168,2.168,0,0,0,0,3.75h0A4.78,4.78,0,0,0,166.97,294.42Z" fill="url(#linear-gradient-59)"/>
              </g>
              <g id="Group_304" data-name="Group 304">
                <path id="Path_728" data-name="Path 728" d="M162.23,272.19V290.9a1.475,1.475,0,0,0,.74,1.28,3.253,3.253,0,0,0,3.25,0,1.463,1.463,0,0,0,.74-1.28V272.19Z" fill="url(#linear-gradient-60)"/>
                <path id="Path_729" data-name="Path 729" d="M166.22,273.46h0a1.482,1.482,0,0,0,0-2.56h0a3.253,3.253,0,0,0-3.25,0h0a1.482,1.482,0,0,0,0,2.56h0A3.253,3.253,0,0,0,166.22,273.46Z" fill="#c1c1c1"/>
              </g>
            </g>
          </g>
          <g id="Group_307" data-name="Group 307">
            <path id="Path_730" data-name="Path 730" d="M196.77,257.46l-36.45-21.05-19.17,10.82,31.25,24.06Z" fill="url(#linear-gradient-61)"/>
            <path id="Path_731" data-name="Path 731" d="M167.22,274.28s14.14-13.07,27.13-17.08a3.174,3.174,0,0,1,4.1,3.04v.96a1.454,1.454,0,0,1-.99,1.38,91.438,91.438,0,0,0-30.23,17.73v-6.03Z" fill="url(#linear-gradient-62)"/>
          </g>
          <g id="Group_312" data-name="Group 312">
            <g id="Group_308" data-name="Group 308">
              <path id="Path_732" data-name="Path 732" d="M187.54,200.82l1.34-.31s3.37-3.11,6.06-2.9,7.27,1.02,5.08,2.25-5.06.89-5.95,1.76c0,0,1.46.04,2.21.05s1.62-.54,2.36-.12-1.04.42-1.45.85-2.11.52-3.12.74-3.01-.54-7.18,1.93S187.54,200.82,187.54,200.82Z" fill="#ffcbbb"/>
              <path id="Path_733" data-name="Path 733" d="M186.33,200.67l1.27-.28c1.19-.34,1.65,4.53.48,5.03l-1.09.49Z" fill="#f4f4f4"/>
              <path id="Path_734" data-name="Path 734" d="M149.6,203.15c-1.17-1.22-4.79-5.82-.08-10.32,2.68-2.56,6.16.06,7.86,2.03a14.814,14.814,0,0,1,2.51,4.37l5.26,5.7s20.49-4.21,21.01-4.33c1.73-.49,2.53,5.08.68,5.58,0,0-18.38,6.16-23.46,6.86C161.26,213.31,150.77,204.36,149.6,203.15Z" fill="#0c3b5b"/>
            </g>
            <g id="Group_310" data-name="Group 310">
              <g id="Group_309" data-name="Group 309">
                <path id="Path_735" data-name="Path 735" d="M199.45,285.75s-2.64,2.56-1.33,7.14c.33,1.68,2.57,2.34,4.12,2.02,2.59-.53,4.89-2.02,7.91-3.77,3.75-2.18,6.68-3.68,7.47-4.45,1.8-1.77-.62-4.6-11.49-2.99C205.16,283.88,199.45,285.75,199.45,285.75Z" fill="#0d2935"/>
                <path id="Path_736" data-name="Path 736" d="M172.52,245.59s19.22-6.79,22.76-8.03c3.79-1.32,12.47.6,12.47,8.66s-1.05,38.23-1.05,39.77c0,5.19-8.35,4.96-8.35,1.17,0-3.42-1.32-26.91-1.32-28.77v-4.61s-17.27,10.98-26.94,13.55-27.02-2.27-23.23-18.71S172.52,245.59,172.52,245.59Z" fill="#59acef"/>
              </g>
              <path id="Path_737" data-name="Path 737" d="M167.47,199.88c-2.09,1.89-9.93-2.56-9.78-5.65-1.91-.75-4.38-1.9-6.71-1.18-4.61,1.42-3.92,8.52-4.36,12.31-1.03,8.89-.34,29.35-.86,43.43,0,4.38,10.42,8.4,16.65,8.4s12.62-4.84,12.58-6.78-.61-21.19.84-26.58,3.37-15.34,1.13-18.07C174.12,202.28,167.47,199.88,167.47,199.88Z" fill="#1b5687"/>
              <path id="Path_738" data-name="Path 738" d="M177.39,173.02c1.48,3.26.03,4.97.15,7.37,0,2.12,1.59,10.98-2.59,11.92a13.612,13.612,0,0,1-4.92.32l-2.55,7.25c-.69,1.62-10.57.15-9.78-4.72l.48-4.28c-2.23-1.03-6.34-4.71-6.34-11.99S159.6,166,166.6,166C173.58,166,176.98,172.12,177.39,173.02Z" fill="#ffcbbb"/>
            </g>
            <path id="Path_739" data-name="Path 739" d="M171.27,182.24c-1.14-.68-3.9,2.73-.35,5.81a4.4,4.4,0,0,1-1.31,3.13c-.89.98.75,1.07-1.63,2.29s-7.38.62-8.09,1.52c.02-.83-.68-1.22-1.89-3.61-1.63-2.16-3.91-2.17-5.83-6.57,0,0-4.2-9.2.3-14.72,2.56-5.66,8.58-5.18,9.89-5.38,1.67-.25,5.88-.35,5.32-2.7,1.07.35,14,2.17,10.12,12.09-1.89,4.84-6.29,4.61-6.17,6.21C171.73,181.91,171.27,182.24,171.27,182.24Z" fill="#e29930"/>
            <g id="Group_311" data-name="Group 311">
              <path id="Path_740" data-name="Path 740" d="M192.91,221.53c-1.36.07-9.1-8.68-11.27-11.01s-4.98-2-5.83-.59a6.225,6.225,0,0,0,1.76,8.53c3.38,2.64,10.57,9.23,13.42,9.41s27.13.61,32.02-.75c1.56-.43,2.83-.56,3.74-.9s2.71-.17,3.92-1.17c.54-.45,1.99-1.9,3.33-2.87,1.65-1.19,3.12-1.79,3.37-2.26,1.04-1.89-3.69-3.48-5.73-3.09a11.72,11.72,0,0,0-3.78,1.12c1.02-.71-.49-1.07-1.2-.42-.8.74-.71,1.53-1.61,2.85a6.987,6.987,0,0,1-2.38,2.05S194.28,221.46,192.91,221.53Z" fill="#ffcbbb"/>
              <path id="Path_741" data-name="Path 741" d="M220.36,222.2l1.68.08c1.58-.01,2.19,5,.63,5.16l-1.44.18Z" fill="#f4f4f4"/>
              <path id="Path_742" data-name="Path 742" d="M171.73,214.29c-1.55-1.55-3.62-6.33-.62-9.52,2.5-2.66,5.64-.45,7.89,2s6.36,6.51,6.36,6.51l6.96,7.19s27.14,1.58,27.82,1.6c2.3,0,3.34,5.79.91,5.77,0,0-24.34.97-31.07.23C187.17,227.75,173.28,215.84,171.73,214.29Z" fill="#0c3b5b"/>
            </g>
          </g>
          <g id="Group_313" data-name="Group 313">
            <path id="Path_743" data-name="Path 743" d="M167.04,234l-31.25-18.04-5.05,1.21,31.25,18.03Z" fill="url(#linear-gradient-63)"/>
            <path id="Path_744" data-name="Path 744" d="M168.43,235.62a3.029,3.029,0,0,0-4.36-1.62l-2.08,1.2v42.08l.62.36-.06.05-.57,5.62,5.23-3.01C178.19,262.59,175.49,255.57,168.43,235.62Z" fill="url(#linear-gradient-64)"/>
            <path id="Path_745" data-name="Path 745" d="M161.99,235.2l5.52,15.92a32.789,32.789,0,0,1-2.58,27.11L162,283.31l-31.25-18.04,2.93-5.08a32.751,32.751,0,0,0,2.58-27.11l-5.52-15.92Z" fill="url(#linear-gradient-65)"/>
          </g>
          <g id="Group_314" data-name="Group 314">
            <path id="Path_746" data-name="Path 746" d="M182.47,257.82l-.95,12.19.73.44.96-12.19Z" fill="url(#linear-gradient-66)"/>
            <path id="Path_747" data-name="Path 747" d="M183.21,258.26l4.24-2.45L186.49,268c-2.12,2.86-4.24,2.45-4.24,2.45Z" fill="url(#linear-gradient-67)"/>
            <path id="Path_748" data-name="Path 748" d="M182.47,257.82l4.23-2.44.75.44-4.24,2.44Z" fill="#bcbcbc"/>
          </g>
          <g id="Group_315" data-name="Group 315">
            <path id="Path_749" data-name="Path 749" d="M196.86,251.81c-.19.57-8.66,6.49-15.08,8.58v-.86l14.72-7.87Z" fill="url(#linear-gradient-68)"/>
            <path id="Path_750" data-name="Path 750" d="M178.51,257.81l14.28-8.25a1.509,1.509,0,0,1,1.51,0l2.42,1.39a.554.554,0,0,1,0,.96l-14.28,8.25a1.807,1.807,0,0,1-1.8,0l-2.13-1.23A.64.64,0,0,1,178.51,257.81Z" fill="url(#linear-gradient-69)"/>
          </g>
        </g>
        <g id="Group_321" data-name="Group 321">
          <g id="Group_317" data-name="Group 317">
            <path id="Path_751" data-name="Path 751" d="M216.82,176.68h0a8.059,8.059,0,0,1,8.06,0l17.5,10.1a2.8,2.8,0,0,1,0,4.84h0a8.783,8.783,0,0,1-8.76,0l-16.8-9.7A3.023,3.023,0,0,1,216.82,176.68Z" fill="#72abc1"/>
          </g>
          <g id="Group_318" data-name="Group 318">
            <path id="Path_752" data-name="Path 752" d="M216.82,176.06h0a8.059,8.059,0,0,1,8.06,0l17.5,10.1a2.8,2.8,0,0,1,0,4.84h0a8.783,8.783,0,0,1-8.76,0l-16.8-9.7A3.023,3.023,0,0,1,216.82,176.06Z" fill="#b3e6ff"/>
          </g>
          <g id="Group_319" data-name="Group 319">
            <path id="Path_753" data-name="Path 753" d="M228.07,173.73v9.9l2.71,1.57v-9.9Z" fill="#72abc1"/>
            <path id="Path_754" data-name="Path 754" d="M228.07,173.73l.7-.41,2.71,1.57-.7.41Z" fill="#ccc"/>
            <path id="Path_755" data-name="Path 755" d="M230.78,175.3l.7-.41v9.9l-.7.41Z" fill="#b3e6ff"/>
          </g>
          <g id="Group_320" data-name="Group 320">
            <path id="Path_756" data-name="Path 756" d="M204.05,159.99v-39.6l51.45,29.7v39.6Z" fill="#72abc1"/>
            <path id="Path_757" data-name="Path 757" d="M205.32,158.28V122.09l48.91,28.24v36.19Z" fill="url(#linear-gradient-70)"/>
            <path id="Path_758" data-name="Path 758" d="M204.05,120.39l1.8-.97,51.45,29.7-1.8.97Z" fill="#e6f8ff"/>
            <path id="Path_759" data-name="Path 759" d="M255.5,189.69v-39.6l1.8-.97v39.55Z" fill="#b3e6ff"/>
          </g>
        </g>
        <g id="Group_322" data-name="Group 322">
          <path id="Path_760" data-name="Path 760" d="M174.76,187.61s3.25,1.66,4.38,1.35,1.46-1.68.5-3.08" fill="none" stroke="#616161" stroke-linecap="round" stroke-miterlimit="10" stroke-width="1"/>
          <path id="Path_761" data-name="Path 761" d="M180.39,186.4c-.25.36-.87.35-1.38-.01s-.72-.95-.46-1.3.87-.35,1.38.01S180.64,186.04,180.39,186.4Z" fill="#616161"/>
        </g>
        <g id="Group_327" data-name="Group 327">
          <g id="Group_323" data-name="Group 323">
            <path id="Path_762" data-name="Path 762" d="M168.45,185.48l1.01.55.55-1.12-.87-1.01-.38,1.07Z" fill="#666"/>
            <path id="Path_763" data-name="Path 763" d="M156.15,162.66a1.118,1.118,0,0,0-.88-.03,3.368,3.368,0,0,0-2.68,3.32v10.12l3.56-2.01Z" fill="#616161"/>
            <path id="Path_764" data-name="Path 764" d="M153.22,176.37l2.93-1.76V163.47a2.607,2.607,0,0,0-3.1,1.96l-.15,10.12Z" fill="url(#linear-gradient-71)"/>
            <path id="Path_765" data-name="Path 765" d="M162.72,162.7h0a6.6,6.6,0,0,0-6.84-.24l-.85.19a3.959,3.959,0,0,0-1.77,1.29,3.084,3.084,0,0,0-.66,1.7.419.419,0,0,1-.02.05v.26a4.333,4.333,0,0,0,0,.51v9.6l.64.3v-10.2a2.313,2.313,0,0,1,1.88-2.34h.03a6.6,6.6,0,0,1,4.24.88,18.691,18.691,0,0,1,9.08,16.11v4.67l3.35-1.61v-5.06A18.7,18.7,0,0,0,162.72,162.7Z" fill="url(#linear-gradient-72)"/>
            <path id="Path_766" data-name="Path 766" d="M163.36,161.61h0a7.205,7.205,0,0,0-7.32.03h0s-3.31,1.64-3.42,3.91a3.443,3.443,0,0,1,2.67-2.77h.01a7.089,7.089,0,0,1,4.51.92,19.314,19.314,0,0,1,9.66,16.73v5.62l3.56-2.04v-5.66A19.348,19.348,0,0,0,163.36,161.61Z" fill="url(#linear-gradient-73)"/>
          </g>
          <g id="Group_326" data-name="Group 326">
            <g id="Group_324" data-name="Group 324">
              <path id="Path_767" data-name="Path 767" d="M168.42,182.34c1.28-2.16,3.44-3.25,4.82-2.43l2.24,1.25-4.69,7.8-2.19-1.22C167.22,186.92,167.14,184.5,168.42,182.34Z" fill="url(#linear-gradient-74)"/>
              <path id="Path_768" data-name="Path 768" d="M175.61,186.53c-1.28,2.16-3.44,3.25-4.82,2.43s-1.46-3.24-.18-5.4,3.44-3.25,4.82-2.43S176.89,184.37,175.61,186.53Z" fill="url(#linear-gradient-75)"/>
            </g>
            <g id="Group_325" data-name="Group 325">
              <path id="Path_769" data-name="Path 769" d="M171.24,183.95c1.08-1.83,2.91-2.74,4.07-2.05l.75.42-3.96,6.59-.71-.4C170.22,187.81,170.15,185.77,171.24,183.95Z" fill="url(#linear-gradient-76)"/>
              <path id="Path_770" data-name="Path 770" d="M176.18,186.85c-1.08,1.83-2.91,2.74-4.07,2.05s-1.23-2.73-.15-4.56,2.91-2.74,4.07-2.05S177.26,185.03,176.18,186.85Z" fill="url(#linear-gradient-77)"/>
            </g>
          </g>
        </g>
        <g id="Group_336" data-name="Group 336">
          <g id="Group_330" data-name="Group 330">
            <g id="Group_329" data-name="Group 329">
              <path id="Path_771" data-name="Path 771" d="M333.09,135.78c0-.09-.01-.19-.01-.28,0-.04-.01-.09-.01-.13v-.06a.34.34,0,0,0-.01-.1c-.01-.09-.02-.19-.03-.28s-.03-.19-.04-.29v-.02a2.564,2.564,0,0,0-.05-.27l-.06-.3c-.01-.04-.02-.07-.03-.11,0-.02-.01-.04-.01-.06-.01-.04-.02-.09-.03-.13-.03-.1-.05-.21-.08-.31a2.014,2.014,0,0,0-.07-.23c0-.01-.01-.03-.01-.04s-.01-.03-.01-.04c-.03-.1-.06-.2-.1-.3s-.07-.2-.1-.3c-.01-.02-.01-.04-.02-.06s-.01-.03-.02-.04c-.02-.06-.05-.12-.07-.18-.04-.09-.07-.19-.11-.28-.03-.07-.06-.14-.09-.2-.01-.01-.01-.03-.02-.04s-.01-.02-.02-.04c-.04-.09-.08-.19-.13-.28s-.1-.21-.15-.31c-.01-.02-.02-.03-.02-.05l-.03-.06-.12-.24c-.05-.1-.11-.2-.17-.3-.03-.05-.05-.1-.08-.15l-.03-.06c-.05-.09-.11-.17-.16-.25-.08-.13-.16-.25-.24-.38a.209.209,0,0,0-.04-.06c-.12-.18-.24-.35-.37-.52h0c-.08-.11-.17-.23-.26-.34-.07-.09-.15-.18-.22-.27h0c-.07-.09-.15-.18-.22-.26a2.724,2.724,0,0,0-.23-.25l-.04-.04-.04-.04c-.05-.06-.1-.11-.16-.17-.08-.08-.16-.16-.25-.24-.03-.02-.05-.05-.08-.07a.265.265,0,0,0-.06-.05c-.04-.04-.08-.07-.12-.11l-.26-.23-.12-.09c-.02-.02-.04-.03-.06-.05a.571.571,0,0,1-.08-.07c-.08-.07-.17-.13-.26-.2a2.141,2.141,0,0,0-.19-.13c-.01-.01-.02-.02-.03-.02s-.02-.02-.03-.02a2.128,2.128,0,0,0-.25-.16c-.08-.05-.16-.1-.25-.15l-.06-.03-36.51-21.08a1.139,1.139,0,0,0-.19-.1l-.24-.12a1.009,1.009,0,0,0-.15-.07c-.01-.01-.03-.01-.04-.02s-.03-.01-.05-.02c-.08-.04-.16-.07-.23-.1l-.24-.09c-.01,0-.03-.01-.04-.01s-.02-.01-.03-.01a.983.983,0,0,0-.16-.05c-.08-.02-.16-.05-.24-.07-.04-.01-.08-.02-.11-.03s-.03-.01-.05-.01-.05-.01-.07-.02a2.337,2.337,0,0,0-.26-.04c-.05-.01-.1-.01-.15-.02a19414127527.331,19414127527.331,0,0,1-.1-.02,2.436,2.436,0,0,0-.27-.01.487.487,0,0,0-.12.01h-.18c-.11.01-.23.03-.34.05h-.01a.255.255,0,0,0-.07.02,3.178,3.178,0,0,0-.33.09.035.035,0,0,0-.02.01,2.313,2.313,0,0,0-.45.21l-2.82,1.64a2.63,2.63,0,0,1,.81-.31c.02-.01.05-.01.07-.02a2.119,2.119,0,0,1,.44-.05h.09a3.268,3.268,0,0,1,.44.01.127.127,0,0,1,.06.01c.16.02.32.04.48.07.02,0,.03.01.05.01.17.04.34.09.51.14.01,0,.02.01.04.01.18.06.37.14.55.22.01.01.02.01.04.02.19.09.38.19.58.3l36.51,21.08c.2.11.39.24.58.37a.138.138,0,0,0,.04.03c.18.12.35.26.53.4.02.02.04.03.06.05.17.14.33.28.5.43a.265.265,0,0,0,.06.05c.16.15.33.32.48.48l.04.04c.17.18.33.37.49.56v.01a14.619,14.619,0,0,1,.88,1.19c.08.12.16.25.24.38.06.1.13.21.19.31a1.093,1.093,0,0,1,.08.15c.1.18.2.36.29.54l.03.06c.11.22.22.45.32.67,0,.01.01.02.01.03.1.22.19.45.27.67.01.01.01.03.02.04.08.23.16.46.23.69,0,.01.01.03.01.04.07.22.13.45.18.67a.127.127,0,0,1,.01.06c.05.23.1.46.13.68v.01c.04.23.06.46.08.68v.05c.02.23.03.45.03.67l-.08,28.41c0,.22-.01.43-.03.64a.127.127,0,0,1-.01.06c-.02.19-.05.37-.08.54,0,.02-.01.05-.01.07-.03.17-.08.33-.12.48l-.03.09c-.05.14-.1.28-.16.42-.01.01-.01.03-.02.04a4.16,4.16,0,0,1-.23.42,3.372,3.372,0,0,1-.4.5l-.11.11a2.522,2.522,0,0,1-.49.37l2.82-1.64a2.523,2.523,0,0,0,.49-.37,1.138,1.138,0,0,0,.11-.11,2.831,2.831,0,0,0,.4-.5l.01-.01a3.78,3.78,0,0,0,.22-.4.01.01,0,0,1,.01-.01c.01-.01.01-.03.02-.05.04-.09.08-.18.11-.27.02-.05.03-.1.05-.14l.03-.09c.01-.03.02-.05.03-.08.03-.1.05-.2.08-.3.01-.04.01-.07.02-.11,0-.02.01-.05.01-.07a.425.425,0,0,0,.02-.11,2.362,2.362,0,0,0,.04-.28c.01-.05.01-.11.02-.16a.127.127,0,0,1,.01-.06c0-.02.01-.04.01-.07.01-.09.01-.18.02-.27s.01-.19.01-.28v-.02l.08-28.41A.857.857,0,0,1,333.09,135.78Z" fill="url(#linear-gradient-78)"/>
              <g id="Group_328" data-name="Group 328">
                <path id="Path_772" data-name="Path 772" d="M324.47,127.64a12.786,12.786,0,0,1,5.8,10.05l-.08,28.41c-.01,3.69-2.62,5.19-5.84,3.33L302.99,157.1l-11.21,5.19.03-11.64-3.97-2.29a12.786,12.786,0,0,1-5.8-10.05l.08-28.41c.01-3.69,2.62-5.18,5.84-3.32Z" fill="url(#linear-gradient-79)"/>
              </g>
            </g>
          </g>
          <g id="Group_335" data-name="Group 335">
            <g id="Group_332" data-name="Group 332">
              <path id="Path_773" data-name="Path 773" d="M307.56,149.28a.756.756,0,0,0-.01-.15c0-.05-.01-.1-.01-.15a.773.773,0,0,0-.02-.15c-.01-.05-.01-.1-.02-.15h0l-.03-.15c-.01-.05-.02-.1-.03-.16a1.242,1.242,0,0,0-.04-.16c-.01-.05-.03-.11-.04-.16s-.02-.08-.03-.11v-.01c0-.01-.01-.02-.01-.03-.02-.05-.03-.1-.05-.15s-.03-.1-.05-.15a.879.879,0,0,1-.05-.15c-.02-.05-.04-.1-.06-.14s-.03-.07-.04-.1v-.01c0-.01-.01-.02-.01-.03a.61.61,0,0,0-.07-.14c-.02-.05-.05-.1-.07-.15l-.09-.18c-.03-.06-.07-.12-.1-.19-.01-.01-.01-.02-.02-.03s-.01-.03-.02-.04c-.07-.12-.14-.24-.22-.35-.06-.09-.12-.18-.19-.27h0a1.921,1.921,0,0,0-.13-.17,1.343,1.343,0,0,1-.11-.14c-.04-.05-.08-.09-.11-.13s-.08-.09-.12-.13l-.03-.03-.01-.01a.646.646,0,0,1-.08-.09,1.537,1.537,0,0,0-.13-.12c-.04-.04-.09-.08-.13-.12s-.09-.08-.13-.12c-.02-.02-.05-.04-.07-.06-.01,0-.01-.01-.02-.01s-.03-.03-.05-.04l-.13-.1c-.04-.03-.09-.06-.13-.09a.567.567,0,0,0-.13-.08,1.479,1.479,0,0,0-.13-.08c-.01-.01-.02-.01-.03-.02a.313.313,0,0,0-.1-.05l-.12-.06-.12-.06c-.04-.02-.08-.03-.12-.05s-.08-.03-.12-.05c-.01,0-.01,0-.02-.01H304l-.09-.03-.12-.03-.12-.03a.586.586,0,0,0-.13-.02c-.03,0-.06-.01-.08-.01h-.18a.757.757,0,0,0-.15.01c-.06.01-.12.01-.17.02h0a.664.664,0,0,0-.2.06,2.558,2.558,0,0,0-.24.11l-2.82,1.64a1.549,1.549,0,0,1,.44-.17h0a1.653,1.653,0,0,1,.5-.02h.01a2.865,2.865,0,0,1,.55.12h.01a3.965,3.965,0,0,1,.6.28,5.673,5.673,0,0,1,.59.41l.01.01a4.3,4.3,0,0,1,.54.51l.01.01a7.225,7.225,0,0,1,.5.6h0a7.48,7.48,0,0,1,.43.66c.01.01.01.02.02.03a5.58,5.58,0,0,1,.35.69v.01c.1.24.19.48.27.73v.01a5.045,5.045,0,0,1,.23,1.46,3.164,3.164,0,0,1-.06.64v.02a2.441,2.441,0,0,1-.17.52.01.01,0,0,1-.01.01,2.071,2.071,0,0,1-.22.35c-.03.03-.05.07-.08.1a1.638,1.638,0,0,1-.32.27l2.82-1.64a1.18,1.18,0,0,0,.32-.27c.03-.03.05-.07.08-.1s.07-.08.11-.13a1.28,1.28,0,0,0,.11-.2.01.01,0,0,1,.01-.01v-.01c.02-.05.04-.09.06-.14a.749.749,0,0,0,.05-.16c.01-.05.03-.1.04-.15a.17.17,0,0,0,.01-.07v-.02c0-.02.01-.04.01-.06a.675.675,0,0,0,.02-.14.708.708,0,0,0,.01-.14c0-.05.01-.09.01-.14v-.16Q307.56,149.34,307.56,149.28Z" fill="#e6f8ff"/>
              <g id="Group_331" data-name="Group 331">
                <path id="Path_774" data-name="Path 774" d="M301.78,145.92a6.5,6.5,0,0,1,2.96,5.13c-.01,1.89-1.33,2.65-2.98,1.7a6.525,6.525,0,0,1-2.96-5.13C298.81,145.73,300.14,144.98,301.78,145.92Z" fill="#72abc1"/>
              </g>
            </g>
            <g id="Group_334" data-name="Group 334">
              <path id="Path_775" data-name="Path 775" d="M307.2,141.59a1.485,1.485,0,0,1,.2-.31c.03-.03.05-.07.08-.1a1.655,1.655,0,0,1,.35-.28l-2.82,1.64a1.655,1.655,0,0,0-.35.28.874.874,0,0,0-.08.1c-.03.04-.07.08-.1.12s-.06.11-.09.16a.037.037,0,0,0-.01.03c0,.01-.01.01-.01.02-.01.03-.02.05-.03.08s-.03.08-.04.12-.02.08-.03.11a.425.425,0,0,0-.02.11h0c-.01.04-.01.07-.02.11s-.01.08-.01.12-.01.08-.01.12v1.22l2.82-1.64v-1.08a2.318,2.318,0,0,1,.17-.92Z" fill="#e6f8ff"/>
              <path id="Path_776" data-name="Path 776" d="M302.05,130.23a2.448,2.448,0,0,1,.17-.5h0a2.081,2.081,0,0,1,.21-.33c.03-.03.05-.07.08-.1a1.3,1.3,0,0,1,.31-.26L300,130.68a1.3,1.3,0,0,0-.31.26c-.03.03-.05.07-.08.1s-.07.08-.1.12a1.389,1.389,0,0,0-.11.21h0c-.03.06-.05.12-.08.19l-.06.18c-.01.04-.02.09-.03.13v.02a.037.037,0,0,1-.01.03c-.01.06-.03.12-.04.18l-.03.18c-.01.06-.01.12-.02.18v.02h0l2.82-1.64a4.882,4.882,0,0,1,.09-.59C302.05,130.24,302.05,130.24,302.05,130.23Z" fill="#e6f8ff"/>
              <path id="Path_777" data-name="Path 777" d="M312.31,135.37c0-.12-.01-.24-.02-.35,0-.06-.01-.11-.01-.17v-.06c0-.03-.01-.07-.01-.1-.01-.11-.02-.22-.04-.33s-.03-.22-.05-.33c0-.02-.01-.05-.01-.07s-.01-.03-.01-.05c-.01-.07-.02-.13-.03-.2-.02-.11-.04-.21-.06-.32s-.05-.21-.07-.32h0c-.03-.1-.05-.2-.08-.31l-.09-.3c-.02-.07-.05-.15-.07-.22,0-.01-.01-.02-.01-.04s-.01-.03-.01-.04c-.03-.09-.06-.19-.1-.28s-.07-.19-.1-.28c-.03-.07-.05-.13-.08-.2,0-.01-.01-.02-.01-.03s-.01-.03-.02-.04c-.04-.09-.07-.18-.11-.26s-.08-.18-.13-.27c-.03-.07-.06-.13-.09-.19-.01-.01-.01-.03-.02-.04l-.03-.06a3.231,3.231,0,0,0-.17-.32c-.06-.1-.12-.21-.17-.31a.745.745,0,0,0-.07-.12l-.03-.06c-.06-.11-.14-.21-.2-.32-.08-.13-.16-.26-.25-.39-.01-.02-.02-.03-.03-.05-.12-.18-.25-.36-.38-.54a.423.423,0,0,1-.05-.07c-.02-.02-.04-.05-.06-.07-.05-.07-.11-.14-.16-.21l-.27-.33c-.02-.03-.05-.05-.07-.08s-.04-.05-.06-.07c-.05-.05-.09-.11-.14-.16-.09-.11-.19-.21-.29-.32a.943.943,0,0,0-.1-.1l-.08-.08a1.592,1.592,0,0,0-.13-.13c-.11-.11-.22-.22-.34-.33-.03-.03-.06-.05-.09-.08l-.09-.09c-.06-.06-.12-.11-.18-.17-.13-.11-.25-.22-.38-.33-.01-.01-.02-.02-.03-.02-.02-.02-.04-.03-.06-.05-.1-.09-.21-.17-.31-.26-.09-.07-.19-.14-.28-.21-.03-.02-.05-.04-.08-.06a.175.175,0,0,1-.05-.04l-.42-.3a.863.863,0,0,0-.16-.1.567.567,0,0,0-.13-.08c-.05-.03-.09-.06-.14-.09-.14-.09-.29-.18-.43-.26-.03-.02-.07-.04-.1-.06-.12-.07-.25-.14-.37-.21-.16-.08-.31-.16-.46-.24a.218.218,0,0,1-.05-.03c-.02-.01-.05-.02-.07-.03-.1-.05-.21-.1-.31-.15-.14-.06-.27-.12-.41-.17a63507156201.4,63507156201.4,0,0,0-.14-.06l-.24-.09c-.13-.04-.25-.09-.37-.12l-.12-.03a.235.235,0,0,0-.08-.02c-.05-.01-.1-.03-.16-.04-.12-.03-.24-.06-.35-.08l-.18-.03c-.02,0-.05-.01-.07-.01a.292.292,0,0,1-.09-.02c-.12-.02-.24-.03-.35-.04-.07,0-.14-.01-.21-.01h-.14c-.13,0-.25.01-.37.02a.772.772,0,0,0-.15.02c-.04.01-.08.01-.12.02s-.09.01-.13.02a3.1,3.1,0,0,0-.36.1c-.03.01-.06.01-.09.02-.01,0-.01,0-.02.01a3.217,3.217,0,0,0-.53.25l-2.82,1.64a3.426,3.426,0,0,1,.55-.25c.03-.01.06-.01.09-.02a3.9,3.9,0,0,1,.49-.12c.04-.01.08-.01.12-.02a5.463,5.463,0,0,1,.58-.04h.07a4.91,4.91,0,0,1,.65.06c.02,0,.05.01.08.01.22.04.46.09.69.15.03.01.05.01.08.02.24.07.49.15.74.25.02.01.05.02.07.03.26.1.52.22.79.35.02.01.05.02.07.03.29.14.58.3.89.47.23.13.45.27.67.41.04.03.08.05.12.08.21.14.42.28.62.44a.554.554,0,0,1,.08.06c.2.15.39.3.59.46.02.02.04.03.06.05.2.17.4.34.59.52l.09.09c.19.18.37.36.55.55.02.03.05.05.07.08.18.19.36.39.53.59.02.02.04.05.06.07.17.2.34.41.5.63.02.02.04.05.06.07.16.21.31.43.46.65l.24.39.24.39a1.091,1.091,0,0,0,.06.11c.13.23.25.46.37.69.01.01.01.03.02.04.13.26.24.51.35.78,0,.01.01.02.01.03.11.26.21.53.3.8,0,.01.01.02.01.04.09.27.17.55.24.83h0a8.332,8.332,0,0,1,.17.84c0,.02.01.03.01.05a7.836,7.836,0,0,1,.1.83v.06a8.239,8.239,0,0,1,.03.86c0,.25-.01.48-.03.71v.05a6.418,6.418,0,0,1-.08.65v.01c-.04.2-.08.39-.13.57,0,.02-.01.03-.02.05a4.288,4.288,0,0,1-.19.5c0,.01-.01.01-.01.02a3.258,3.258,0,0,1-.24.4c-.03.05-.07.09-.1.14a2.75,2.75,0,0,1-.22.26.8.8,0,0,1-.13.13,3.217,3.217,0,0,1-.28.24c-.04.04-.09.07-.13.11a5.715,5.715,0,0,1-.48.32l2.82-1.64a4.45,4.45,0,0,0,.48-.32.689.689,0,0,0,.13-.11c.1-.08.19-.16.28-.24l.13-.13a2.75,2.75,0,0,0,.22-.26c.03-.05.07-.09.1-.14a.423.423,0,0,0,.05-.07,2.682,2.682,0,0,0,.18-.33c0-.01.01-.01.01-.02h0c.05-.1.09-.2.13-.3.02-.06.04-.13.06-.19.01-.02.01-.03.02-.05s.01-.02.01-.04a2.685,2.685,0,0,0,.07-.27,2.379,2.379,0,0,0,.05-.26v-.02a2.54,2.54,0,0,0,.04-.29c.01-.1.02-.21.03-.31v-.09c.01-.09.01-.18.02-.27.01-.13.01-.27.01-.41v-.03A1.088,1.088,0,0,0,312.31,135.37Z" fill="#e6f8ff"/>
              <g id="Group_333" data-name="Group 333">
                <path id="Path_778" data-name="Path 778" d="M302.26,125.85c3.94,2.27,7.25,6.71,7.24,11.5-.01,2.82-.95,3.99-4.02,5a1.688,1.688,0,0,0-1.27,1.82v1.08l-4.84-2.79v-1.64c0-1.48.33-2.26,1.14-2.68,2.4-1.26,4.14-1.47,4.15-3.18a4.7,4.7,0,0,0-2.32-3.94c-2-1.15-3.07-.29-3.2,1.46l-4.97-3.24C294.63,124.26,297.78,123.26,302.26,125.85Z" fill="#72abc1"/>
              </g>
            </g>
          </g>
        </g>
        <g id="Group_347" data-name="Group 347">
          <g id="Group_339" data-name="Group 339">
            <g id="Group_338" data-name="Group 338">
              <path id="Path_779" data-name="Path 779" d="M120.24,75.05c0-.09.01-.19.01-.28,0-.04.01-.09.01-.13v-.06a.34.34,0,0,1,.01-.1c.01-.09.02-.19.03-.28s.03-.19.04-.29v-.02a2.557,2.557,0,0,1,.05-.27l.06-.3c.01-.04.02-.07.03-.11,0-.02.01-.04.01-.06.01-.04.02-.09.03-.13.03-.1.05-.21.08-.31a1.416,1.416,0,0,1,.07-.22c0-.01.01-.03.01-.04s.01-.03.01-.04c.03-.1.06-.2.1-.3s.07-.2.1-.3c.01-.02.01-.04.02-.06s.01-.03.02-.04c.02-.06.05-.12.07-.19.04-.09.07-.19.11-.28.03-.07.06-.13.09-.2.01-.01.01-.02.02-.04s.01-.03.02-.04c.04-.09.08-.19.13-.28s.1-.21.15-.31c.01-.02.02-.03.02-.05l.03-.06.12-.24c.05-.1.11-.2.17-.3l.09-.15.03-.06c.05-.09.11-.17.16-.25.08-.13.15-.25.24-.38a.209.209,0,0,1,.04-.06c.12-.18.24-.35.37-.52h0c.08-.11.17-.23.26-.34.07-.09.14-.18.22-.27l.01-.01h0c.07-.09.15-.18.22-.26s.15-.17.23-.25l.04-.04.04-.04c.05-.06.11-.11.16-.17.08-.08.16-.16.25-.24.03-.02.05-.05.08-.07a.265.265,0,0,1,.06-.05,1.2,1.2,0,0,1,.12-.11l.26-.23a1.063,1.063,0,0,0,.11-.09c.02-.02.04-.03.06-.05s.06-.05.09-.07a2.477,2.477,0,0,1,.26-.19,1.273,1.273,0,0,1,.19-.13c.01-.01.02-.02.03-.02s.02-.02.03-.02a2.13,2.13,0,0,1,.25-.16c.08-.05.16-.1.25-.15l.06-.03,36.51-21.08a1.617,1.617,0,0,1,.18-.1l.24-.12a1.01,1.01,0,0,1,.15-.07c.01-.01.02-.01.04-.02s.03-.01.04-.02c.08-.03.16-.07.23-.1s.16-.06.23-.09c.01,0,.03-.01.04-.01s.02-.01.04-.01a.749.749,0,0,1,.16-.05c.08-.02.16-.05.24-.07l.12-.03c.02,0,.03-.01.05-.01s.05-.01.07-.02c.09-.02.17-.03.25-.04.05-.01.1-.01.15-.02a.075.075,0,0,0,.05-.01.09.09,0,0,0,.05-.01,2.437,2.437,0,0,1,.27-.01.487.487,0,0,1,.12.01h.18c.11.01.23.03.34.05h.01a.185.185,0,0,1,.07.02c.11.03.22.05.33.09.01,0,.02.01.03.01a2.622,2.622,0,0,1,.45.21l2.82,1.64a3.1,3.1,0,0,0-.45-.21,3.573,3.573,0,0,0-.35-.1.254.254,0,0,0-.07-.02,2.1,2.1,0,0,0-.43-.05h-.09a3.27,3.27,0,0,0-.44.01.075.075,0,0,0-.05.01,3.966,3.966,0,0,0-.48.07c-.02,0-.03.01-.05.01a4.838,4.838,0,0,0-.51.14c-.01,0-.02.01-.04.01-.18.06-.37.14-.55.22-.01.01-.02.01-.04.02-.19.09-.38.19-.58.3L128.89,66.94c-.2.11-.39.24-.58.37a.138.138,0,0,1-.04.03c-.18.12-.35.26-.53.4-.02.02-.04.03-.06.05-.17.14-.33.28-.49.43a.265.265,0,0,1-.06.05c-.16.15-.33.32-.48.48l-.04.04c-.17.18-.33.37-.49.56h0c-.16.2-.32.4-.47.61h0l-.01.01c-.14.19-.27.38-.4.57-.08.12-.16.25-.23.37-.06.1-.13.21-.19.31l-.09.15c-.1.18-.2.36-.29.54l-.03.06c-.11.22-.22.45-.32.67-.01.01-.01.02-.02.04-.1.22-.19.45-.27.67-.01.01-.01.03-.02.05-.08.23-.16.46-.23.69,0,.01-.01.03-.01.04-.07.22-.13.45-.18.67,0,.02-.01.04-.01.06-.05.23-.1.46-.13.69v.01c-.04.23-.06.46-.08.68v.06c-.02.23-.03.45-.03.67l.08,28.41c0,.22.01.43.03.64a.075.075,0,0,0,.01.05c.02.19.05.37.08.54,0,.02.01.05.01.07a3.364,3.364,0,0,0,.13.48l.03.09a4.089,4.089,0,0,0,.16.42c.01.01.01.03.02.04a4.16,4.16,0,0,0,.23.42,3.372,3.372,0,0,0,.4.5l.11.11a2.523,2.523,0,0,0,.49.37l-2.82-1.64a2.523,2.523,0,0,1-.49-.37,1.141,1.141,0,0,1-.11-.11,2.831,2.831,0,0,1-.4-.5l-.01-.01c-.08-.13-.15-.26-.22-.4a.01.01,0,0,0-.01-.01c-.01-.01-.01-.03-.02-.05-.04-.09-.08-.18-.11-.27-.02-.05-.03-.1-.05-.14l-.03-.09c-.01-.03-.02-.05-.03-.08-.03-.1-.05-.2-.08-.3-.01-.04-.01-.07-.02-.11,0-.02-.01-.05-.01-.07a.425.425,0,0,1-.02-.11,2.359,2.359,0,0,1-.04-.28c-.01-.05-.01-.11-.02-.16a.127.127,0,0,0-.01-.06c0-.02-.01-.04-.01-.07-.01-.09-.01-.18-.02-.27s-.01-.19-.01-.28v-.02l-.08-28.41A.662.662,0,0,1,120.24,75.05Z" fill="url(#linear-gradient-80)"/>
              <g id="Group_337" data-name="Group 337">
                <path id="Path_780" data-name="Path 780" d="M128.85,66.91a12.779,12.779,0,0,0-5.8,10.04l.08,28.41c.01,3.69,2.62,5.19,5.84,3.33l21.36-12.33,11.21,5.19-.03-11.64,3.98-2.3a12.8,12.8,0,0,0,5.8-10.05l-.08-28.41c-.01-3.69-2.62-5.18-5.84-3.33Z" fill="url(#linear-gradient-81)"/>
              </g>
            </g>
          </g>
          <g id="Group_346" data-name="Group 346">
            <g id="Group_341" data-name="Group 341">
              <path id="Path_781" data-name="Path 781" d="M152.54,73.43a.757.757,0,0,1,.01-.15c0-.05.01-.1.01-.15a.771.771,0,0,1,.02-.15c.01-.05.01-.1.02-.15l.03-.15c.01-.05.02-.1.03-.16a1.245,1.245,0,0,1,.04-.16c.01-.05.03-.11.04-.16s.02-.08.03-.11v-.01c0-.01.01-.02.01-.03.02-.05.03-.1.05-.15s.03-.1.05-.15a.881.881,0,0,0,.05-.15c.02-.05.04-.1.06-.14s.03-.07.04-.1v-.01c0-.01.01-.02.01-.03a.611.611,0,0,1,.07-.14c.02-.05.05-.1.07-.15l.09-.18a1.859,1.859,0,0,1,.11-.19c.01-.01.01-.02.02-.03s.01-.03.02-.04c.07-.12.14-.24.22-.35.06-.09.12-.18.19-.27h0c.04-.06.09-.11.13-.17l.11-.14c.04-.05.08-.09.11-.13s.08-.09.12-.13l.03-.03.01-.01a.647.647,0,0,0,.08-.09,1.537,1.537,0,0,1,.13-.12c.04-.04.09-.08.13-.12s.09-.08.13-.12c.02-.02.05-.04.07-.06l.01-.01c.02-.01.03-.03.05-.04l.13-.1c.04-.03.09-.06.13-.09a.567.567,0,0,1,.13-.08,1.479,1.479,0,0,1,.13-.08c.01-.01.02-.01.03-.02a.313.313,0,0,1,.1-.05l.12-.06.12-.06c.04-.02.08-.03.12-.05s.08-.03.12-.05c.01,0,.01,0,.02-.01h.01l.09-.03.12-.03.12-.03a.585.585,0,0,1,.13-.02c.03,0,.05-.01.08-.01h.19a.757.757,0,0,1,.15.01c.06.01.11.01.17.02h0a.664.664,0,0,1,.2.06,2.557,2.557,0,0,1,.24.11l2.82,1.64a1.549,1.549,0,0,0-.44-.17h0a1.653,1.653,0,0,0-.5-.02h-.01a2.864,2.864,0,0,0-.55.12h-.01a3.562,3.562,0,0,0-.6.28,5.677,5.677,0,0,0-.59.41c-.01,0-.01.01-.02.01a4.3,4.3,0,0,0-.54.51l-.01.01a7.226,7.226,0,0,0-.5.6h0a7.477,7.477,0,0,0-.43.66c-.01.01-.01.02-.02.03a5.58,5.58,0,0,0-.35.69v.01c-.1.24-.19.48-.27.73v.01a6.948,6.948,0,0,0-.17.73h0a4.56,4.56,0,0,0-.06.72,3.165,3.165,0,0,0,.06.64v.02a2.44,2.44,0,0,0,.17.52v.01a2.071,2.071,0,0,0,.22.35c.03.03.05.07.08.1a1.638,1.638,0,0,0,.32.27l-2.82-1.64a1.18,1.18,0,0,1-.32-.27c-.03-.03-.05-.07-.08-.1s-.07-.08-.11-.13a1.281,1.281,0,0,1-.11-.2.01.01,0,0,0-.01-.01v-.01c-.02-.05-.04-.09-.06-.14a.75.75,0,0,1-.05-.16c-.01-.05-.03-.1-.04-.15a.17.17,0,0,1-.01-.07v-.02c0-.02-.01-.04-.01-.06a.676.676,0,0,1-.02-.14.709.709,0,0,1-.01-.14c0-.05-.01-.09-.01-.14v-.16A.662.662,0,0,0,152.54,73.43Z" fill="#e6f8ff"/>
              <g id="Group_340" data-name="Group 340">
                <path id="Path_782" data-name="Path 782" d="M158.32,70.08a6.5,6.5,0,0,0-2.96,5.13c0,1.9,1.33,2.65,2.98,1.7a6.5,6.5,0,0,0,2.96-5.13C161.29,69.89,159.97,69.13,158.32,70.08Z" fill="#72abc1"/>
              </g>
            </g>
            <g id="Group_343" data-name="Group 343">
              <path id="Path_783" data-name="Path 783" d="M142.99,78.95a.757.757,0,0,1,.01-.15c0-.05.01-.1.01-.15a.771.771,0,0,1,.02-.15c.01-.05.01-.1.02-.15h0l.03-.15c.01-.05.02-.1.03-.16a1.245,1.245,0,0,1,.04-.16c.01-.05.03-.11.04-.16s.02-.08.03-.11V77.6c0-.01.01-.02.01-.03.02-.05.03-.1.05-.15s.03-.1.05-.15a.881.881,0,0,0,.05-.15c.02-.05.04-.1.06-.14s.03-.07.04-.1v-.01c0-.01.01-.02.01-.03a.611.611,0,0,1,.07-.14c.02-.05.05-.1.07-.15l.09-.18c.03-.06.07-.12.1-.19.01-.01.01-.02.02-.03s.01-.03.02-.04c.07-.12.14-.24.22-.35.06-.09.12-.18.19-.27h0a1.921,1.921,0,0,1,.13-.17l.11-.14c.04-.05.08-.09.11-.13s.08-.09.12-.13l.03-.03.01-.01a.647.647,0,0,0,.08-.09,1.537,1.537,0,0,1,.13-.12c.04-.04.09-.08.13-.12s.09-.08.13-.12c.02-.02.05-.04.07-.06.01,0,.01-.01.02-.01s.03-.03.05-.04l.13-.1c.04-.03.09-.06.13-.09a.567.567,0,0,1,.13-.08,1.479,1.479,0,0,1,.13-.08c.01-.01.02-.01.03-.02a.313.313,0,0,1,.1-.05l.12-.06.12-.06a.612.612,0,0,1,.12-.05c.04-.02.08-.03.12-.05.01,0,.01,0,.02-.01h.01l.09-.03.12-.03.12-.03a.585.585,0,0,1,.13-.02c.03,0,.06-.01.08-.01h.19a.757.757,0,0,1,.15.01c.06.01.11.01.17.02h0a.664.664,0,0,1,.2.06,2.557,2.557,0,0,1,.24.11l2.82,1.64a1.549,1.549,0,0,0-.44-.17h0a1.653,1.653,0,0,0-.5-.02h-.01a2.864,2.864,0,0,0-.55.12h-.01a3.562,3.562,0,0,0-.6.28,5.677,5.677,0,0,0-.59.41l-.01.01a5.2,5.2,0,0,0-.55.51l-.01.01a6.959,6.959,0,0,0-.93,1.26c-.01.01-.01.02-.02.03a6.385,6.385,0,0,0-.35.69v.01c-.1.24-.19.48-.27.73v.01a5.045,5.045,0,0,0-.23,1.46,3.165,3.165,0,0,0,.06.64v.02a1.984,1.984,0,0,0,.17.52v.01a2.071,2.071,0,0,0,.22.35c.03.03.05.07.08.1a1.638,1.638,0,0,0,.32.27L143.82,81a1.18,1.18,0,0,1-.32-.27c-.03-.03-.05-.07-.08-.1s-.07-.08-.11-.13a1.281,1.281,0,0,1-.11-.2.01.01,0,0,0-.01-.01v-.01c-.02-.05-.04-.09-.06-.14a.75.75,0,0,1-.05-.16c-.01-.05-.03-.1-.04-.15a.17.17,0,0,1-.01-.07v-.02c0-.02-.01-.04-.01-.06a.676.676,0,0,1-.02-.14.709.709,0,0,1-.01-.14c0-.05-.01-.09-.01-.14V79.1A.867.867,0,0,0,142.99,78.95Z" fill="#e6f8ff"/>
              <g id="Group_342" data-name="Group 342">
                <path id="Path_784" data-name="Path 784" d="M148.77,75.6a6.5,6.5,0,0,0-2.96,5.13c.01,1.89,1.33,2.65,2.98,1.7a6.5,6.5,0,0,0,2.96-5.13C151.74,75.4,150.42,74.65,148.77,75.6Z" fill="#72abc1"/>
              </g>
            </g>
            <g id="Group_345" data-name="Group 345">
              <path id="Path_785" data-name="Path 785" d="M133.44,84.46a.757.757,0,0,1,.01-.15c0-.05.01-.1.01-.15a.771.771,0,0,1,.02-.15c.01-.05.01-.1.02-.15h0l.03-.15c.01-.05.02-.1.03-.16a1.245,1.245,0,0,1,.04-.16c.01-.05.03-.11.04-.16s.02-.08.03-.11v-.01c0-.01.01-.02.01-.03.02-.05.03-.1.05-.15s.03-.1.05-.15a1.214,1.214,0,0,0,.05-.14c.02-.05.04-.1.06-.14s.03-.07.04-.1v-.01c0-.01.01-.02.01-.03a.611.611,0,0,1,.07-.14c.02-.05.05-.1.07-.15l.09-.18c.03-.06.07-.12.1-.19.01-.01.01-.02.02-.03s.01-.03.02-.04c.07-.12.14-.24.22-.35.06-.09.12-.18.19-.27h0a1.921,1.921,0,0,1,.13-.17,1.345,1.345,0,0,0,.11-.14c.04-.05.08-.09.11-.13s.08-.09.12-.13l.03-.03.01-.01a.647.647,0,0,0,.08-.09,1.537,1.537,0,0,1,.13-.12c.04-.04.09-.08.13-.12s.09-.08.13-.12c.02-.02.05-.04.07-.06.01,0,.01-.01.02-.01s.03-.03.05-.04l.13-.1c.04-.03.09-.06.13-.09a.567.567,0,0,1,.13-.08,1.479,1.479,0,0,1,.13-.08c.01-.01.02-.01.03-.02a.313.313,0,0,1,.1-.05l.12-.06.12-.06c.04-.02.08-.03.12-.05s.08-.03.12-.05c.01,0,.01,0,.02-.01H137l.09-.03.12-.03.12-.03a.585.585,0,0,1,.13-.02c.03,0,.06-.01.08-.01h.19a.757.757,0,0,1,.15.01c.06.01.11.01.17.02h0a.664.664,0,0,1,.2.06,2.557,2.557,0,0,1,.24.11l2.82,1.64a1.549,1.549,0,0,0-.44-.17h0a1.653,1.653,0,0,0-.5-.02h-.01a2.864,2.864,0,0,0-.55.12h-.01a3.965,3.965,0,0,0-.6.28,5.677,5.677,0,0,0-.59.41l-.01.01a5.2,5.2,0,0,0-.55.51l-.01.01a6.959,6.959,0,0,0-.93,1.26c-.01.01-.01.02-.02.03a6.385,6.385,0,0,0-.35.69v.01c-.1.24-.19.48-.27.73v.01a5.045,5.045,0,0,0-.23,1.46,3.165,3.165,0,0,0,.06.64v.02a1.984,1.984,0,0,0,.17.52v.01a2.071,2.071,0,0,0,.22.35c.03.03.05.07.08.1a1.638,1.638,0,0,0,.32.27l-2.82-1.64a1.18,1.18,0,0,1-.32-.27c-.03-.03-.05-.07-.08-.1s-.07-.08-.11-.13a1.281,1.281,0,0,1-.11-.2.01.01,0,0,0-.01-.01V85.8c-.02-.05-.04-.09-.06-.14a.75.75,0,0,1-.05-.16c-.01-.05-.03-.1-.04-.15a.17.17,0,0,1-.01-.07v-.02c0-.02-.01-.04-.01-.06a.676.676,0,0,1-.02-.14.709.709,0,0,1-.01-.14c0-.05-.01-.09-.01-.14v-.16A.977.977,0,0,0,133.44,84.46Z" fill="#e6f8ff"/>
              <g id="Group_344" data-name="Group 344">
                <path id="Path_786" data-name="Path 786" d="M139.22,81.11a6.5,6.5,0,0,0-2.96,5.13c.01,1.89,1.33,2.65,2.98,1.7a6.5,6.5,0,0,0,2.96-5.13C142.19,80.92,140.87,80.16,139.22,81.11Z" fill="#72abc1"/>
              </g>
            </g>
          </g>
        </g>
        <g id="Group_377" data-name="Group 377">
          <g id="Group_350" data-name="Group 350">
            <g id="Group_349" data-name="Group 349">
              <path id="Path_787" data-name="Path 787" d="M260.25,70.36c0-.09-.01-.19-.01-.28,0-.04-.01-.09-.01-.13v-.06a.34.34,0,0,0-.01-.1c-.01-.09-.02-.19-.03-.28s-.03-.19-.04-.29V69.2a2.563,2.563,0,0,0-.05-.27l-.06-.3c-.01-.04-.02-.07-.03-.11,0-.02-.01-.04-.01-.06-.01-.04-.02-.09-.03-.13-.03-.1-.05-.21-.08-.31a1.415,1.415,0,0,0-.07-.22c0-.01-.01-.03-.01-.04s-.01-.03-.01-.04c-.03-.1-.06-.2-.1-.3s-.07-.2-.1-.3c-.01-.02-.01-.04-.02-.06s-.01-.03-.02-.04c-.02-.06-.05-.12-.07-.19-.04-.09-.07-.19-.11-.28-.03-.07-.06-.13-.09-.2-.01-.01-.01-.02-.02-.04s-.01-.03-.02-.04c-.04-.09-.08-.19-.13-.28s-.1-.21-.15-.31c-.01-.02-.02-.03-.02-.05l-.03-.06-.12-.24c-.05-.1-.11-.2-.17-.3l-.09-.15-.03-.06c-.05-.09-.11-.17-.16-.25-.08-.13-.15-.25-.24-.38a.209.209,0,0,0-.04-.06c-.12-.18-.24-.35-.37-.52h0c-.08-.11-.17-.23-.26-.34-.07-.09-.14-.18-.22-.27l-.01-.01h0c-.07-.09-.15-.18-.22-.26s-.15-.17-.23-.25l-.04-.04-.04-.04c-.05-.06-.11-.11-.16-.17-.08-.08-.16-.16-.25-.24-.03-.02-.05-.05-.08-.07a.265.265,0,0,0-.06-.05,1.2,1.2,0,0,0-.12-.11l-.26-.23a1.063,1.063,0,0,1-.11-.09c-.02-.02-.04-.03-.06-.05s-.06-.05-.09-.07a2.476,2.476,0,0,0-.26-.19,1.273,1.273,0,0,0-.19-.13c-.01-.01-.02-.02-.03-.02s-.02-.02-.03-.02a2.129,2.129,0,0,0-.25-.16c-.08-.05-.16-.1-.25-.15l-.06-.03L217.94,39.5a1.617,1.617,0,0,0-.18-.1l-.24-.12a1.01,1.01,0,0,0-.15-.07c-.01-.01-.03-.01-.04-.02s-.03-.01-.04-.02c-.08-.03-.16-.07-.23-.1s-.16-.06-.23-.09c-.01,0-.03-.01-.04-.01s-.02-.01-.04-.01a.749.749,0,0,0-.16-.05c-.08-.02-.16-.05-.24-.07-.04-.01-.08-.02-.11-.03s-.03-.01-.05-.01-.05-.01-.07-.02c-.09-.02-.17-.03-.25-.04-.05-.01-.1-.01-.15-.02a.075.075,0,0,1-.05-.01.09.09,0,0,1-.05-.01,2.437,2.437,0,0,0-.27-.01.487.487,0,0,0-.12.01h-.18c-.11.01-.23.03-.34.05h-.01a.185.185,0,0,0-.07.02c-.11.03-.22.05-.33.09-.01,0-.02.01-.03.01a2.622,2.622,0,0,0-.45.21L211,40.72a3.1,3.1,0,0,1,.45-.21,3.573,3.573,0,0,1,.35-.1.254.254,0,0,1,.07-.02,2.1,2.1,0,0,1,.43-.05h.09a3.27,3.27,0,0,1,.44.01.075.075,0,0,1,.05.01c.16.02.32.04.48.07.02,0,.03.01.05.01a4.838,4.838,0,0,1,.51.14c.01,0,.02.01.04.01.18.06.37.14.55.22.01.01.02.01.04.02.19.09.38.19.58.3l36.51,21.08c.2.11.39.24.58.37.01.01.02.02.03.02.18.12.35.26.53.4.02.02.04.03.06.05.17.14.33.28.49.43a.265.265,0,0,0,.06.05c.16.15.33.32.48.48l.04.04c.17.18.33.37.49.56h0a14.614,14.614,0,0,1,.88,1.19c.08.12.16.25.23.37.06.1.13.21.19.31l.09.15c.1.18.2.36.29.54l.03.06c.11.22.22.45.32.67.01.01.01.02.02.04.1.22.19.45.27.67.01.01.01.03.02.05.08.23.16.46.23.69,0,.01.01.03.01.04.07.22.13.45.18.67,0,.02.01.04.01.06.05.23.1.46.13.69v.01c.04.23.06.46.08.68v.06c.02.23.03.45.03.67l-.08,28.41c0,.22-.01.43-.03.64a.075.075,0,0,1-.01.05c-.02.19-.05.37-.08.54,0,.02-.01.05-.01.07a3.361,3.361,0,0,1-.13.48l-.03.09a4.087,4.087,0,0,1-.16.42c-.01.01-.01.03-.02.04a4.159,4.159,0,0,1-.23.42,3.372,3.372,0,0,1-.4.5l-.11.11a2.523,2.523,0,0,1-.49.37l2.82-1.64a2.523,2.523,0,0,0,.49-.37,1.137,1.137,0,0,0,.11-.11,2.831,2.831,0,0,0,.4-.5l.01-.01c.08-.13.15-.26.22-.4a.01.01,0,0,1,.01-.01c.01-.01.01-.03.02-.05.04-.09.08-.18.11-.27.02-.05.03-.1.05-.14l.03-.09c.01-.03.02-.05.03-.08.03-.1.05-.2.08-.3.01-.04.01-.07.02-.11,0-.02.01-.05.01-.07a.425.425,0,0,0,.02-.11,2.362,2.362,0,0,0,.04-.28c.01-.05.01-.11.02-.16a.127.127,0,0,1,.01-.06c0-.02.01-.04.01-.07.01-.09.01-.18.02-.27s.01-.19.01-.28v-.02l.08-28.41C260.25,70.53,260.25,70.44,260.25,70.36Z" fill="url(#linear-gradient-82)"/>
              <g id="Group_348" data-name="Group 348">
                <path id="Path_788" data-name="Path 788" d="M251.63,62.22a12.779,12.779,0,0,1,5.8,10.04l-.08,28.41c-.01,3.69-2.62,5.19-5.84,3.33L230.15,91.67l-11.21,5.19.03-11.64-3.98-2.3a12.8,12.8,0,0,1-5.8-10.05l.08-28.41c.01-3.69,2.62-5.18,5.84-3.33Z" fill="url(#linear-gradient-83)"/>
              </g>
            </g>
          </g>
          <g id="Group_376" data-name="Group 376">
            <g id="Group_357" data-name="Group 357">
              <g id="Group_351" data-name="Group 351">
                <path id="Path_789" data-name="Path 789" d="M217.76,68.94l2.82-1.64,4.94,2.85-2.82,1.64Z" fill="#e6f8ff"/>
              </g>
              <g id="Group_352" data-name="Group 352">
                <path id="Path_790" data-name="Path 790" d="M222.7,71.79l2.82-1.64-.01,2.4-2.82,1.63Z" fill="#acd6e2"/>
              </g>
              <g id="Group_353" data-name="Group 353">
                <path id="Path_791" data-name="Path 791" d="M214.92,66.82l2.82-1.64,4.35-1.97-2.82,1.64Z" fill="#e6f8ff"/>
              </g>
              <g id="Group_355" data-name="Group 355">
                <g id="Group_354" data-name="Group 354" clip-path="url(#clip-path)">
                  <path id="Path_792" data-name="Path 792" d="M219.27,64.85l2.82-1.64a3.6,3.6,0,0,0,.39-.2l-2.82,1.64c-.13.08-.27.14-.39.2" fill="#e6f8ff"/>
                </g>
              </g>
              <path id="Path_794" data-name="Path 794" d="M220.31,60.28a.924.924,0,0,1,.09-.25h0a1.1,1.1,0,0,1,.09-.14.7.7,0,0,1,.21-.21l-2.82,1.64a.7.7,0,0,0-.21.21c-.01.01-.02.01-.03.03a1.091,1.091,0,0,0-.06.11h0c-.01.03-.03.06-.04.09l-.03.09c-.01.02-.01.05-.02.07v.02c-.01.03-.01.06-.02.09a.277.277,0,0,0-.01.09c0,.03-.01.06-.01.1v.02l2.82-1.64a1.75,1.75,0,0,1,.04-.32Z" fill="#468a9e"/>
              <path id="Path_795" data-name="Path 795" d="M225.44,63.12c0-.07-.01-.14-.01-.21a1.354,1.354,0,0,0-.02-.2c-.01-.06-.01-.13-.02-.19-.01-.04-.01-.09-.02-.13v-.01a.06.06,0,0,0-.01-.04l-.03-.18a1.163,1.163,0,0,0-.04-.18c-.01-.06-.03-.12-.04-.18s-.03-.11-.04-.17-.03-.1-.04-.15h0v-.01c-.02-.05-.03-.1-.05-.15a.88.88,0,0,1-.05-.15.784.784,0,0,1-.05-.14c-.02-.05-.04-.09-.06-.14s-.04-.09-.06-.14c-.02-.03-.03-.07-.05-.1v-.01c0-.01-.01-.02-.01-.03a.913.913,0,0,0-.07-.14l-.09-.18c-.05-.09-.1-.19-.16-.28-.03-.05-.06-.09-.08-.13a.219.219,0,0,0-.03-.05c-.02-.03-.04-.07-.06-.1a2.833,2.833,0,0,0-.2-.28c-.05-.06-.09-.12-.14-.18a1.267,1.267,0,0,0-.11-.13l-.01-.01-.01-.01a1.737,1.737,0,0,0-.13-.15,1.919,1.919,0,0,0-.14-.15l-.15-.15-.16-.16c-.01-.01-.02-.01-.02-.02l-.01-.01c-.05-.04-.09-.09-.14-.13s-.12-.11-.18-.16l-.19-.16a1.432,1.432,0,0,0-.15-.11c-.01,0-.01-.01-.02-.01l-.03-.03-.21-.15c-.07-.05-.14-.1-.21-.14s-.15-.09-.22-.14c-.02-.01-.03-.02-.05-.03-.07-.04-.13-.07-.19-.11-.08-.04-.16-.09-.24-.12a.01.01,0,0,1-.01-.01c-.01,0-.01-.01-.02-.01-.07-.03-.13-.06-.2-.09l-.21-.09h-.01c-.01,0-.01,0-.02-.01-.06-.02-.12-.05-.17-.07s-.13-.04-.19-.06a23378630759.683,23378630759.683,0,0,0-.06-.02c-.04-.01-.09-.03-.13-.04a1.163,1.163,0,0,0-.18-.04c-.02,0-.03-.01-.05-.01a.076.076,0,0,1-.04-.01c-.03,0-.06-.01-.09-.01-.06-.01-.12-.01-.17-.02h-.17a1.087,1.087,0,0,0-.18.01c-.02,0-.03.01-.05.01a.075.075,0,0,0-.05.01c-.03,0-.06.01-.09.01-.05.01-.1.03-.15.04-.02,0-.03.01-.05.01h-.02a1.151,1.151,0,0,0-.25.12l-2.82,1.64a1.307,1.307,0,0,1,.27-.12.09.09,0,0,1,.05-.01,2.048,2.048,0,0,1,.24-.05.433.433,0,0,0,.05-.01,1.383,1.383,0,0,1,.29-.01H217c.1,0,.21.02.32.03a.06.06,0,0,1,.04.01c.11.02.23.05.35.08a.037.037,0,0,1,.03.01,3.044,3.044,0,0,1,.39.14.01.01,0,0,1,.01.01c.14.05.27.12.41.18.01,0,.01.01.02.01.15.07.29.15.45.24a8.33,8.33,0,0,1,.73.48c.01,0,.01.01.02.01a6.981,6.981,0,0,1,.66.56l.01.01a6.161,6.161,0,0,1,.6.65l.01.01c.18.22.35.46.51.7a.219.219,0,0,0,.03.05c.15.24.29.5.42.76v.01a6.062,6.062,0,0,1,.32.84h0a5.45,5.45,0,0,1,.2.89v.01a5.862,5.862,0,0,1,.07.94c0,.17-.01.33-.02.48v.03c-.01.14-.03.26-.05.38,0,.01-.01.03-.01.04a2.993,2.993,0,0,1-.08.32.076.076,0,0,0-.01.04,2.176,2.176,0,0,1-.11.27c-.01.03-.03.05-.04.08-.03.05-.06.1-.09.14a2.158,2.158,0,0,1-.27.33c-.02.02-.04.03-.06.05a2.7,2.7,0,0,1-.34.25l2.82-1.64a2.128,2.128,0,0,0,.34-.25c.02-.02.04-.03.06-.05a1.491,1.491,0,0,0,.27-.33c.01-.01.02-.02.02-.03a1.091,1.091,0,0,1,.06-.11c.01-.03.03-.05.04-.08,0-.01.01-.02.02-.03.03-.06.05-.12.08-.19.01-.02.01-.04.02-.05a.06.06,0,0,0,.01-.04c.01-.03.02-.05.03-.08.02-.06.03-.11.05-.17,0-.02.01-.04.01-.07,0-.01.01-.03.01-.04s.01-.05.01-.07l.03-.18a.571.571,0,0,0,.01-.13v-.06a1.478,1.478,0,0,0,.01-.21,1.621,1.621,0,0,1,.01-.22v-.01A2.11,2.11,0,0,0,225.44,63.12Z" fill="#e6f8ff"/>
              <g id="Group_356" data-name="Group 356">
                <path id="Path_796" data-name="Path 796" d="M219.03,59.03a6.946,6.946,0,0,1,3.59,5.93c0,1.64-.62,2.23-1.47,2.59l-3.39,1.39,4.94,2.85-.01,2.39-7.78-4.49.01-2.88,4.34-1.97c.44-.22,1-.44,1-1.22a2.755,2.755,0,0,0-1.37-2.19c-.86-.5-1.39-.1-1.45.79l-2.36-1.56C215.24,58.12,216.84,57.76,219.03,59.03Z" fill="#72abc1"/>
              </g>
            </g>
            <g id="Group_366" data-name="Group 366">
              <g id="Group_358" data-name="Group 358">
                <path id="Path_797" data-name="Path 797" d="M226.22,71.36l2.82-1.64,2.5,1.45-2.82,1.64Z" fill="#e6f8ff"/>
              </g>
              <g id="Group_359" data-name="Group 359">
                <path id="Path_798" data-name="Path 798" d="M230.98,76.4l2.82-1.64-.01,2.57-2.82,1.63Z" fill="#acd6e2"/>
              </g>
              <g id="Group_360" data-name="Group 360">
                <path id="Path_799" data-name="Path 799" d="M232.42,74.94l2.82-1.63v2.28l-2.82,1.64Z" fill="#acd6e2"/>
              </g>
              <g id="Group_361" data-name="Group 361">
                <path id="Path_800" data-name="Path 800" d="M230.99,74.12l2.82-1.64,1.43.83-2.82,1.63Z" fill="#e6f8ff"/>
              </g>
              <g id="Group_362" data-name="Group 362">
                <path id="Path_801" data-name="Path 801" d="M228.7,68.37l2.82-1.64-2.48,2.99-2.82,1.64Z" fill="#acd6e2"/>
              </g>
              <g id="Group_363" data-name="Group 363">
                <path id="Path_802" data-name="Path 802" d="M231.01,66.16l2.82-1.64-.02,7.96-2.82,1.64Z" fill="#acd6e2"/>
              </g>
              <g id="Group_364" data-name="Group 364">
                <path id="Path_803" data-name="Path 803" d="M228.43,64.67l2.82-1.64,2.58,1.49-2.82,1.64Z" fill="#e6f8ff"/>
              </g>
              <g id="Group_365" data-name="Group 365">
                <path id="Path_804" data-name="Path 804" d="M230.99,74.12l1.44.83-.01,2.28-1.44-.83-.01,2.57-2.27-1.31.01-2.57-4.86-2.81.01-2.28,4.57-5.34,2.58,1.49Zm-2.27-1.31.01-4.42-.03-.02-2.48,2.99,2.5,1.45" fill="#72abc1"/>
              </g>
            </g>
            <g id="Group_370" data-name="Group 370">
              <g id="Group_367" data-name="Group 367">
                <path id="Path_805" data-name="Path 805" d="M237.49,68.94l2.82-1.64,1.79,1.67-2.82,1.64Z" fill="#e6f8ff"/>
              </g>
              <g id="Group_368" data-name="Group 368">
                <path id="Path_806" data-name="Path 806" d="M239.28,70.61l2.82-1.64-4.77,11.36-2.82,1.63Z" fill="#acd6e2"/>
              </g>
              <g id="Group_369" data-name="Group 369">
                <path id="Path_807" data-name="Path 807" d="M237.49,68.94l1.79,1.67-4.77,11.35-1.77-1.65Z" fill="#72abc1"/>
              </g>
            </g>
            <g id="Group_375" data-name="Group 375">
              <g id="Group_371" data-name="Group 371">
                <path id="Path_808" data-name="Path 808" d="M247.96,78.34l2.82-1.64-4.49,7.84-2.81,1.64Z" fill="#acd6e2"/>
              </g>
              <g id="Group_372" data-name="Group 372">
                <path id="Path_809" data-name="Path 809" d="M247.97,75.95l2.82-1.64-.01,2.39-2.82,1.64Z" fill="#8bc4d1"/>
              </g>
              <g id="Group_373" data-name="Group 373">
                <path id="Path_810" data-name="Path 810" d="M239.81,71.24l2.82-1.64,8.16,4.71-2.82,1.64Z" fill="#e6f8ff"/>
              </g>
              <g id="Group_374" data-name="Group 374">
                <path id="Path_811" data-name="Path 811" d="M247.97,75.95l-.01,2.39-4.48,7.84-2.76-1.59,4.6-7.68-5.51-3.18V71.24Z" fill="#72abc1"/>
              </g>
            </g>
          </g>
        </g>
        <g id="Group_384" data-name="Group 384">
          <g id="Group_380" data-name="Group 380">
            <g id="Group_379" data-name="Group 379">
              <path id="Path_812" data-name="Path 812" d="M55.88,137.29c0-.09.01-.19.01-.28,0-.04.01-.09.01-.13v-.06a.375.375,0,0,1,.01-.1c.01-.09.02-.19.03-.28s.03-.19.04-.29v-.02a2.558,2.558,0,0,1,.05-.27l.06-.3a.425.425,0,0,0,.02-.11.638.638,0,0,0,.02-.07c.01-.04.02-.09.03-.13.03-.1.05-.21.08-.31a1.866,1.866,0,0,1,.07-.22c0-.01.01-.03.01-.04s.01-.03.01-.04c.03-.1.06-.2.1-.3s.07-.2.1-.3c.01-.02.01-.04.02-.05s.01-.03.02-.04c.02-.06.05-.12.07-.19.04-.09.07-.19.11-.28.03-.07.06-.14.09-.2.01-.01.01-.02.02-.04s.01-.03.02-.04c.04-.09.08-.19.13-.28s.1-.21.15-.31c.01-.02.02-.03.02-.05l.03-.06c.04-.08.08-.16.13-.24.05-.1.11-.2.17-.3l.09-.15.03-.06c.05-.09.11-.17.16-.25.08-.13.15-.25.24-.38a.209.209,0,0,1,.04-.06c.12-.18.24-.35.37-.52h0c.08-.11.17-.23.26-.34.07-.09.14-.18.22-.27h0c.07-.09.15-.18.22-.26s.15-.17.23-.25l.04-.04.04-.04c.05-.06.11-.11.16-.17.08-.08.16-.16.25-.24.03-.02.05-.05.08-.07a.265.265,0,0,1,.06-.05,1.2,1.2,0,0,1,.12-.11l.26-.23a1.063,1.063,0,0,0,.11-.09c.02-.02.04-.03.06-.05s.06-.05.09-.07a2.475,2.475,0,0,1,.26-.19,1.273,1.273,0,0,1,.19-.13.138.138,0,0,1,.04-.03c.01-.01.02-.02.03-.02a2.129,2.129,0,0,1,.25-.16c.08-.05.16-.1.25-.15l.06-.03,36.51-21.08a1.618,1.618,0,0,1,.18-.1l.24-.12a1.009,1.009,0,0,1,.15-.07c.01-.01.03-.01.04-.02s.03-.01.04-.02c.08-.03.16-.07.23-.1s.16-.06.23-.09c.01,0,.03-.01.04-.01s.02-.01.04-.01a.75.75,0,0,1,.16-.05c.08-.02.16-.05.24-.07.04-.01.08-.02.11-.03s.03-.01.05-.01.05-.01.07-.02c.09-.02.17-.03.25-.04.05-.01.1-.01.15-.02a.075.075,0,0,0,.05-.01.09.09,0,0,0,.05-.01,2.436,2.436,0,0,1,.27-.01.487.487,0,0,1,.12.01h.18c.11.01.23.03.34.05h.01a.185.185,0,0,1,.07.02c.11.03.22.05.33.09a.035.035,0,0,1,.02.01,2.622,2.622,0,0,1,.45.21l2.82,1.64a3.1,3.1,0,0,0-.45-.21,3.574,3.574,0,0,0-.35-.1c-.02-.01-.05-.01-.07-.02a2.1,2.1,0,0,0-.43-.05h-.09a3.268,3.268,0,0,0-.44.01.075.075,0,0,0-.05.01,3.967,3.967,0,0,0-.48.07c-.02,0-.03.01-.05.01a4.839,4.839,0,0,0-.51.14c-.01,0-.02.01-.04.01-.18.06-.37.14-.55.22-.01.01-.02.01-.04.02-.19.09-.38.19-.58.3L64.52,129.18c-.2.11-.39.24-.58.37-.01.01-.02.02-.03.02-.18.12-.35.26-.53.4-.02.02-.04.03-.06.05-.17.14-.33.28-.5.43a.265.265,0,0,1-.06.05c-.16.15-.33.32-.48.48l-.04.04c-.17.18-.33.37-.49.56h0c-.16.2-.32.4-.48.61h0c-.14.19-.27.38-.4.58-.08.12-.16.25-.23.37-.06.1-.13.21-.19.31l-.09.15c-.1.18-.2.36-.29.54l-.03.06c-.11.22-.22.45-.32.67-.01.01-.01.02-.02.04-.1.22-.19.45-.27.67-.01.02-.01.03-.02.05-.08.23-.16.46-.23.69,0,.01-.01.03-.01.04-.07.22-.13.45-.18.67a.127.127,0,0,0-.01.06c-.05.23-.1.46-.13.69v.01c-.04.23-.06.46-.08.68v.06c-.02.23-.03.45-.03.67l.08,28.41c0,.22.01.43.03.64a.127.127,0,0,0,.01.06c.02.19.05.37.08.54,0,.02.01.05.01.07a3.363,3.363,0,0,0,.13.48l.03.09c.05.15.1.28.16.42.01.01.01.03.02.05a4.162,4.162,0,0,0,.23.42,3.371,3.371,0,0,0,.4.5l.11.11a2.522,2.522,0,0,0,.49.37h0l-2.82-1.64a2.523,2.523,0,0,1-.49-.37,1.141,1.141,0,0,1-.11-.11,2.831,2.831,0,0,1-.4-.5l-.01-.01c-.08-.13-.15-.26-.22-.4a.01.01,0,0,0-.01-.01c-.01-.01-.01-.03-.02-.04l-.12-.27c-.02-.05-.03-.1-.05-.14l-.03-.09c-.01-.03-.02-.05-.03-.08-.03-.1-.05-.2-.08-.3-.01-.04-.01-.07-.02-.11,0-.02-.01-.05-.01-.07-.01-.04-.01-.07-.02-.11a2.358,2.358,0,0,1-.04-.28c-.01-.05-.01-.11-.02-.16a.127.127,0,0,0-.01-.06c0-.02-.01-.04-.01-.07-.01-.09-.01-.18-.02-.27s-.01-.19-.01-.28v-.02l-.08-28.41A.817.817,0,0,1,55.88,137.29Z" fill="url(#linear-gradient-84)"/>
              <g id="Group_378" data-name="Group 378">
                <path id="Path_813" data-name="Path 813" d="M64.49,129.15a12.779,12.779,0,0,0-5.8,10.04l.08,28.41c.01,3.69,2.62,5.19,5.84,3.33L85.97,158.6l11.21,5.19-.03-11.64,3.98-2.3a12.8,12.8,0,0,0,5.8-10.05l-.08-28.41c-.01-3.69-2.62-5.18-5.84-3.33Z" fill="url(#linear-gradient-85)"/>
              </g>
            </g>
          </g>
          <g id="Group_383" data-name="Group 383">
            <g id="Group_382" data-name="Group 382">
              <path id="Path_814" data-name="Path 814" d="M80.19,145.27a1.627,1.627,0,0,0,.23.11.585.585,0,0,0,.22.05h.01a.7.7,0,0,0,.25-.01h0a.771.771,0,0,0,.27-.11,1.155,1.155,0,0,0,.19-.14c.09-.08.19-.17.29-.27l.05-.05c.1-.1.2-.2.3-.31.01-.02.03-.03.05-.05.09-.1.18-.2.27-.31.05-.06.11-.12.16-.19s.13-.15.19-.23c.1-.12.2-.25.3-.38l.12-.15c.2-.26.41-.53.61-.8l.09-.12c.42-.56.83-1.15,1.22-1.73.02-.02.03-.05.05-.07.14-.21.28-.41.41-.61.02-.03.04-.07.06-.1.11-.17.22-.33.32-.49.04-.06.08-.12.12-.19.08-.13.16-.25.23-.37.04-.07.08-.13.12-.19.07-.11.13-.22.19-.32a1.29,1.29,0,0,0,.09-.16q.135-.225.24-.42c.02-.04.05-.09.07-.14.06-.1.12-.23.2-.38l.03-.06.27-.54c.01-.01.01-.02.02-.04.09-.17.18-.36.27-.55a.536.536,0,0,0,.05-.11c.1-.2.19-.41.29-.62.02-.03.03-.07.05-.1.13-.27.25-.55.37-.82.02-.04.04-.08.06-.13.06-.15.13-.29.18-.43.02-.05.04-.1.06-.14l.09-.21c.03-.07.06-.14.08-.2a1.038,1.038,0,0,1,.04-.1c.03-.09.06-.17.09-.25.01-.02.01-.04.02-.06.03-.1.06-.19.09-.28,0-.01,0-.02.01-.02a1.485,1.485,0,0,0,.06-.25v-.01c.02-.08.02-.15.03-.2a.948.948,0,0,0-.04-.3h0a.49.49,0,0,0-.11-.2.863.863,0,0,0-.13-.14l-.06-.06c-.08-.06-.16-.11-.25-.17l2.52,1.46a2.2,2.2,0,0,1,.25.17l.06.06a.863.863,0,0,1,.13.14c.01.01.02.02.02.03.02.03.03.05.05.08l.03.06c0,.01.01.02.01.03h0v.01c0,.02.01.03.01.05s.01.03.01.05a.06.06,0,0,0,.01.04v.25a.076.076,0,0,1-.01.04c0,.02-.01.03-.01.05v.02c0,.02-.01.03-.01.05s-.01.05-.02.07-.02.07-.03.1c0,.01-.01.02-.01.03s-.01.02-.01.03a.635.635,0,0,0-.02.07c-.02.05-.03.11-.05.17a.169.169,0,0,1-.02.05c-.01.02-.01.04-.02.06a.487.487,0,0,1-.04.11,1.215,1.215,0,0,0-.05.14c-.01.04-.03.07-.04.11-.01.02-.01.03-.02.05l-.06.15-.09.21c-.01.02-.01.03-.02.05s-.03.07-.04.1l-.18.42a.2.2,0,0,1-.04.08c-.01.02-.01.03-.02.05-.12.27-.25.54-.37.82-.01.02-.02.03-.02.05s-.02.03-.02.05c-.1.21-.2.41-.29.61l-.06.12c-.09.19-.19.38-.27.55,0,.01-.01.01-.01.02v.01l-.27.54c-.01.02-.03.05-.04.07-.08.15-.14.28-.2.38,0,.01-.01.02-.01.03a.88.88,0,0,1-.06.1q-.1.2-.24.42c-.01.01-.01.02-.02.04a1.091,1.091,0,0,0-.06.11c-.06.11-.13.22-.2.34-.04.06-.07.12-.11.18-.08.12-.16.25-.24.38-.04.06-.07.11-.11.17-.11.17-.22.34-.34.52-.02.02-.03.05-.05.07-.13.2-.27.41-.41.62-.01.01-.02.03-.03.04s-.01.02-.02.03c-.39.58-.81,1.16-1.23,1.73-.01.01-.02.03-.03.04a.435.435,0,0,1-.06.07c-.21.28-.41.55-.61.81-.01.01-.02.02-.02.03a1.059,1.059,0,0,1-.1.12c-.1.13-.2.25-.3.37-.02.03-.04.05-.06.08a1.737,1.737,0,0,1-.13.15l-.16.19c-.02.02-.04.05-.06.07-.07.08-.14.15-.21.23a.265.265,0,0,0-.05.06l-.01.01c-.07.08-.15.16-.22.23l-.07.07-.05.05-.06.06c-.05.05-.1.09-.14.13s-.06.05-.09.08a.01.01,0,0,0-.01.01.138.138,0,0,1-.04.03.138.138,0,0,1-.04.03.052.052,0,0,1-.04.02c-.01.01-.02.02-.03.02s-.02.01-.03.02h-.01c-.01,0-.02.01-.03.01s-.02.01-.03.02-.02.01-.03.02-.02.01-.04.02-.02.01-.04.01-.02.01-.04.01-.03.01-.04.01a.037.037,0,0,0-.03.01h-.01c-.02,0-.03.01-.05.01a.09.09,0,0,0-.05.01h-.15c-.03,0-.05-.01-.08-.01a.737.737,0,0,1-.14-.04.01.01,0,0,1-.01-.01,1.627,1.627,0,0,1-.23-.11Z" fill="#e6f8ff"/>
              <path id="Path_815" data-name="Path 815" d="M87.41,129.41v-.16a.34.34,0,0,1,.01-.1c0-.04.01-.08.01-.11s.01-.06.01-.09v-.03c.01-.04.01-.08.02-.12l.03-.15a1.244,1.244,0,0,1,.04-.16c.01-.04.02-.09.03-.13l1.79-5.71.06-.18c.02-.06.04-.12.06-.17l.06-.15a1.123,1.123,0,0,0,.05-.13c.02-.04.03-.08.05-.12.01-.02.02-.05.03-.07v-.01c.01-.01.01-.02.02-.04a.976.976,0,0,0,.05-.11l.06-.12c.03-.05.06-.11.09-.16.05-.08.09-.15.14-.23h0a.835.835,0,0,0,.08-.12c.02-.03.04-.05.06-.08a.179.179,0,0,0,.05-.07c.02-.02.03-.04.05-.06s.03-.04.05-.06a.265.265,0,0,0,.05-.06l.05-.05h0l.01-.01a.265.265,0,0,1,.06-.05c.02-.02.04-.03.06-.05s.04-.03.06-.05.04-.03.06-.05.04-.03.06-.04.04-.03.06-.04.04-.03.06-.04l.01-.01c.02-.01.03-.02.05-.03a63373121294.367,63373121294.367,0,0,1,.14-.06c.03-.01.04-.02.07-.03s.05-.02.07-.03l.09-.03a.292.292,0,0,1,.09-.02.037.037,0,0,0,.03-.01h.01c.02,0,.03-.01.05-.01s.07-.01.1-.02a.528.528,0,0,1,.13-.01h.13a.487.487,0,0,1,.12.01h.06l.21.03a2.334,2.334,0,0,1,.25.07.09.09,0,0,0,.05.01c.01,0,.02,0,.02.01a3.218,3.218,0,0,1,.5.23l2.52,1.46a3.016,3.016,0,0,0-.52-.24.09.09,0,0,0-.05-.01,2.217,2.217,0,0,0-.5-.1h-.03a1.9,1.9,0,0,0-.53.04H93.9a1.776,1.776,0,0,0-.52.21,2.659,2.659,0,0,0-.44.33h0a2.837,2.837,0,0,0-.4.49h0a4.414,4.414,0,0,0-.36.65v.01a6.581,6.581,0,0,0-.31.83l-1.79,5.71a5.179,5.179,0,0,0-.13.58v.01a2.741,2.741,0,0,0-.04.48v.01a2.376,2.376,0,0,0,.03.39v.01a1.4,1.4,0,0,0,.09.31c0,.01.01.01.01.02a1.545,1.545,0,0,0,.12.22,1.454,1.454,0,0,0,.26.29.435.435,0,0,0,.07.06,2.731,2.731,0,0,0,.3.21l-2.52-1.46a2.025,2.025,0,0,1-.3-.21c-.02-.02-.05-.04-.07-.06a1.2,1.2,0,0,1-.26-.29c0-.01-.01-.01-.01-.02a1.094,1.094,0,0,1-.08-.15.169.169,0,0,1-.02-.05c0-.01-.01-.01-.01-.02s-.01-.02-.02-.04-.02-.07-.03-.1a.292.292,0,0,1-.02-.09c-.01-.02-.01-.05-.02-.08v-.02c0-.03-.01-.06-.01-.09s-.01-.06-.01-.09a.277.277,0,0,0-.01-.09v-.09a.076.076,0,0,0,.01-.04Z" fill="#e6f8ff"/>
              <path id="Path_816" data-name="Path 816" d="M72.2,151.32v-.07a317370841131.346,317370841131.346,0,0,1,.02-.14v-.03h0v-.03c0-.02.01-.04.01-.06s.01-.04.01-.06.01-.04.01-.06a.142.142,0,0,1,.02-.06.076.076,0,0,1,.02-.05c.01-.02.01-.04.02-.05s.01-.04.02-.05.01-.04.02-.05.01-.04.02-.05.01-.03.02-.04h0c0-.01,0-.01.01-.02l.03-.06.03-.06.03-.06a.209.209,0,0,1,.04-.06c.01-.01.01-.03.02-.04.03-.05.06-.09.09-.14a1.133,1.133,0,0,1,.1-.13l4.05-4.85a3.03,3.03,0,0,1,.23-.26c.01-.02.03-.03.04-.05s.03-.03.04-.05a.462.462,0,0,1,.07-.07,1.2,1.2,0,0,0,.11-.12l.04-.04.02-.02.03-.03a.5.5,0,0,1,.08-.07.435.435,0,0,1,.07-.06l.03-.03a.01.01,0,0,0,.01-.01c.01,0,.01-.01.02-.01s.03-.03.05-.04.03-.02.04-.03.03-.02.04-.03a.052.052,0,0,1,.04-.02h.01c.01,0,.02-.01.03-.01s.02-.01.03-.02a.037.037,0,0,1,.03-.01c.01,0,.02-.01.03-.01s.02-.01.03-.01.02-.01.03-.01.02-.01.03-.01h0a.037.037,0,0,0,.03-.01.076.076,0,0,0,.04-.01h.12c.02,0,.04.01.07.01l.11.03h.01c.07.03.14.06.22.1l2.52,1.46a1.383,1.383,0,0,0-.22-.1.645.645,0,0,0-.19-.04h0a.413.413,0,0,0-.19.02h0a.95.95,0,0,0-.21.09c-.06.04-.12.08-.19.13l-.01.01c-.07.05-.13.12-.21.19l-.02.02c-.07.07-.14.15-.22.23-.01.02-.03.03-.04.05-.08.09-.17.2-.27.31l-4.05,4.85a2.831,2.831,0,0,0-.36.59h0a2.19,2.19,0,0,0-.17.59h0a1.88,1.88,0,0,0,0,.58h0a2.59,2.59,0,0,0,.13.55v.01a2.917,2.917,0,0,0,.23.47.209.209,0,0,0,.04.06c.02.03.05.06.07.09a2.857,2.857,0,0,0,.42.5,1.661,1.661,0,0,0,.14.13,3,3,0,0,0,.58.43h0l-2.52-1.46a4.569,4.569,0,0,1-.58-.43,1.846,1.846,0,0,1-.14-.14,4.112,4.112,0,0,1-.42-.5.265.265,0,0,1-.05-.06c-.01-.01-.01-.02-.02-.03a.209.209,0,0,0-.04-.06,2.387,2.387,0,0,1-.12-.22,2.287,2.287,0,0,1-.1-.23v-.02c-.02-.05-.03-.1-.05-.15s-.03-.1-.04-.15-.02-.08-.03-.13-.01-.08-.02-.12v-.01h0c0-.03-.01-.05-.01-.08a.277.277,0,0,0-.01-.09v-.09C72.2,151.37,72.2,151.34,72.2,151.32Z" fill="#e6f8ff"/>
              <g id="Group_381" data-name="Group 381">
                <path id="Path_817" data-name="Path 817" d="M93.41,121.78a3.845,3.845,0,0,0-1.52,2.31L90.1,129.8c-.84,3.1,1.77,2.27,1.73,3.68-.02.9-1.99,4.82-2.44,5.66-.96,1.77-3.91,6.14-5.49,7.5a1.154,1.154,0,0,1-.19.14c-.67.39-1.24-.25-1.56-.45-.99-.63-1.31-1.08-1.87-.76a4.191,4.191,0,0,0-.96.94l-4.05,4.85c-1.56,1.98.56,4.27,2.13,4.37a5.782,5.782,0,0,0,3.13-.94c7.1-4.1,16.59-20.52,17.44-28.15C98.26,123.87,95.47,120.59,93.41,121.78Z" fill="#72abc1"/>
              </g>
            </g>
          </g>
        </g>
        <g id="Group_389" data-name="Group 389">
          <path id="Path_818" data-name="Path 818" d="M270.74,209.66a54.492,54.492,0,0,0,5.32,1.71l1.21-.7a.57.57,0,0,0,.2-.78l-2.66-4.42-4.33,3.2Z" fill="#467989"/>
          <path id="Path_819" data-name="Path 819" d="M268.62,216.01l10.01-11.55a2.583,2.583,0,0,0-.66-3.93l-8.68-5.01a3.4,3.4,0,0,0-4.27.72l-9.64,11.13a2.972,2.972,0,0,0,.76,4.52l8.37,4.83A3.292,3.292,0,0,0,268.62,216.01Z" fill="#72abc1"/>
          <path id="Path_820" data-name="Path 820" d="M267.95,215.03l10.01-11.55a2.583,2.583,0,0,0-.66-3.93l-8.68-5.01a3.4,3.4,0,0,0-4.27.72l-9.64,11.13a2.972,2.972,0,0,0,.76,4.52l8.37,4.83A3.292,3.292,0,0,0,267.95,215.03Z" fill="#b3e6ff"/>
          <path id="Path_821" data-name="Path 821" d="M274.47,203.88l1.98-2.29a.513.513,0,0,0-.13-.78l-5.05-2.85a.687.687,0,0,0-.85.14l-1.91,2.21a.6.6,0,0,0,.15.9l4.99,2.81A.642.642,0,0,0,274.47,203.88Z" fill="#72abc1"/>
          <path id="Path_822" data-name="Path 822" d="M259.16,210.4l2.62-3.03a.675.675,0,0,0-.17-1.03l-2.27-1.31a.9.9,0,0,0-1.12.19l-2.52,2.91a.776.776,0,0,0,.2,1.18l2.19,1.27A.857.857,0,0,0,259.16,210.4Z" fill="#467989"/>
          <path id="Path_823" data-name="Path 823" d="M267.56,200.12l2.62-3.03a.675.675,0,0,0-.17-1.03l-2.27-1.31a.9.9,0,0,0-1.12.19l-2.52,2.91a.776.776,0,0,0,.2,1.18l2.19,1.27A.845.845,0,0,0,267.56,200.12Z" fill="#467989"/>
          <g id="Group_385" data-name="Group 385">
            <path id="Path_824" data-name="Path 824" d="M268.37,195.29a1.07,1.07,0,0,1-.38.39,29.642,29.642,0,0,0-6.54,5.43c-2.86,3.23-4.21,6.83-2.54,8.46a1.137,1.137,0,0,0,.94-.63l.69-1.38a.973.973,0,0,0-.41-1.3l-.89-.48a25.154,25.154,0,0,1,6.63-7.93c.73.5,1.94,1.17,2.48.62l1.05-1.13a1.2,1.2,0,0,0-.19-1.52Z" fill="#72abc1"/>
            <path id="Path_825" data-name="Path 825" d="M261.46,201.11a29.64,29.64,0,0,1,6.54-5.43,1.158,1.158,0,0,0,.38-.39l-2.21-1.31a1.2,1.2,0,0,0-1.16-.03c-6.19,3.19-9.42,9.49-10.49,11.97a1.279,1.279,0,0,0,.52,1.6l2.68,1.6.55.31a1.117,1.117,0,0,0,.66.14C257.25,207.94,258.6,204.34,261.46,201.11Z" fill="#b3e6ff"/>
          </g>
          <g id="Group_386" data-name="Group 386">
            <path id="Path_826" data-name="Path 826" d="M262.72,210.59a.9.9,0,1,1-.06-1.41A1.021,1.021,0,0,1,262.72,210.59Z" fill="#6bafbf"/>
            <path id="Path_827" data-name="Path 827" d="M264.61,211.61a.9.9,0,1,1-.06-1.41A1.022,1.022,0,0,1,264.61,211.61Z" fill="#6bafbf"/>
            <path id="Path_828" data-name="Path 828" d="M266.7,212.87a.9.9,0,1,1-.06-1.41A1,1,0,0,1,266.7,212.87Z" fill="#6bafbf"/>
          </g>
          <g id="Group_387" data-name="Group 387">
            <path id="Path_829" data-name="Path 829" d="M264.71,207.89a.9.9,0,1,1-.06-1.41A1.021,1.021,0,0,1,264.71,207.89Z" fill="#6bafbf"/>
            <path id="Path_830" data-name="Path 830" d="M266.6,208.91a.9.9,0,1,1-.06-1.41A1,1,0,0,1,266.6,208.91Z" fill="#6bafbf"/>
            <path id="Path_831" data-name="Path 831" d="M268.69,210.17a.9.9,0,1,1-.06-1.41A1,1,0,0,1,268.69,210.17Z" fill="#6bafbf"/>
          </g>
          <g id="Group_388" data-name="Group 388">
            <path id="Path_832" data-name="Path 832" d="M266.7,205.18a.9.9,0,1,1-.06-1.41A1,1,0,0,1,266.7,205.18Z" fill="#6bafbf"/>
            <path id="Path_833" data-name="Path 833" d="M268.59,206.21a.9.9,0,1,1-.06-1.41A1,1,0,0,1,268.59,206.21Z" fill="#6bafbf"/>
            <path id="Path_834" data-name="Path 834" d="M270.68,207.47a.9.9,0,1,1-.06-1.41A1,1,0,0,1,270.68,207.47Z" fill="#6bafbf"/>
          </g>
        </g>
      </g>
    </g>
  </g>
</svg>
