<svg xmlns="http://www.w3.org/2000/svg" width="79.952" height="80" viewBox="0 0 79.952 80">
  <g id="idea" transform="translate(-0.457)">
    <path id="Path_572" data-name="Path 572" d="M354.626,114.356A13.325,13.325,0,0,1,341.3,127.681a12.014,12.014,0,0,1-1.973-.16c-.013.014-.026.014-.053,0a13.325,13.325,0,0,1,0-26.33c.027-.014.04-.014.053,0a12.082,12.082,0,0,1,1.973-.16A13.325,13.325,0,0,1,354.626,114.356Zm0,0" transform="translate(-275.55 -84.992)" fill="#7fabfa"/>
    <path id="Path_573" data-name="Path 573" d="M183.52,24.694a15.961,15.961,0,0,1-6.01,12.5H157.549a15.961,15.961,0,0,1-6.01-12.5,16.657,16.657,0,0,1,.187-2.466A16,16,0,0,1,165.531,8.823a16.435,16.435,0,0,1,2-.12,15.991,15.991,0,0,1,15.8,13.525,16.742,16.742,0,0,1,.187,2.466Zm0,0" transform="translate(-127.097 -7.322)" fill="#7fabfa"/>
    <path id="Path_574" data-name="Path 574" d="M350.628,115.15a13.325,13.325,0,0,1-11.3,13.165c-.013.014-.026.014-.053,0a13.325,13.325,0,0,1,0-26.33c.027-.014.04-.014.053,0a13.325,13.325,0,0,1,11.3,13.165Zm0,0" transform="translate(-275.55 -85.786)" fill="#e3e7f2"/>
    <path id="Path_575" data-name="Path 575" d="M179.522,25.328a15.958,15.958,0,0,1-6.009,12.5H157.549a15.961,15.961,0,0,1-6.01-12.5,16.657,16.657,0,0,1,.187-2.466A16,16,0,0,1,165.531,9.457a16,16,0,0,1,13.805,13.405,16.656,16.656,0,0,1,.186,2.466Zm0,0" transform="translate(-127.096 -7.956)" fill="#e3e7f2"/>
    <path id="Path_576" data-name="Path 576" d="M35.5,114.356a13.325,13.325,0,1,1-13.325-13.325A13.325,13.325,0,0,1,35.5,114.356Zm0,0" transform="translate(-7.062 -84.992)" fill="#e3e7f2"/>
    <path id="Path_577" data-name="Path 577" d="M177.789,185.5a17.447,17.447,0,0,1-1.852,7.809c-2.252,4.45-7.356,8.088-7.476,13.512h-15.99c-.12-5.424-5.223-9.062-7.476-13.512A17.33,17.33,0,0,1,158.468,168.3a16.438,16.438,0,0,1,2-.12A17.333,17.333,0,0,1,177.789,185.5Zm0,0" transform="translate(-120.034 -141.48)" fill="#7fabfa"/>
    <path id="Path_578" data-name="Path 578" d="M186.446,411.59H205.1a1.332,1.332,0,0,1,1.333,1.332v2.665a1.332,1.332,0,0,1-1.333,1.332H186.446a1.332,1.332,0,0,1-1.333-1.332v-2.665A1.332,1.332,0,0,1,186.446,411.59Zm0,0" transform="translate(-155.341 -346.247)" fill="#7fabfa"/>
    <path id="Path_579" data-name="Path 579" d="M229.348,445.16v5.33c0,1.466-2.532,2.665-4,2.665h-2.665a4.139,4.139,0,0,1-.666-.067c-1.452-.28-3.331-1.332-3.331-2.6v-5.33Zm0,0" transform="translate(-183.585 -374.488)" fill="#7fabfa"/>
    <path id="Path_580" data-name="Path 580" d="M173.791,186.137a17.439,17.439,0,0,1-1.852,7.809c-2.252,4.45-7.356,8.088-7.475,13.512H152.471c-.12-5.424-5.223-9.062-7.476-13.512a17.33,17.33,0,0,1,13.472-25.012,17.322,17.322,0,0,1,15.324,17.2Zm0,0" transform="translate(-120.034 -142.114)" fill="#e3e7f2"/>
    <path id="Path_581" data-name="Path 581" d="M186.446,411.59H201.1a1.332,1.332,0,0,1,1.332,1.332v2.665a1.332,1.332,0,0,1-1.332,1.332H186.446a1.332,1.332,0,0,1-1.333-1.332v-2.665A1.332,1.332,0,0,1,186.446,411.59Zm0,0" transform="translate(-155.341 -346.247)" fill="#a4c2f7"/>
    <path id="Path_582" data-name="Path 582" d="M225.35,445.16v5.33c0,1.266-1.879,2.319-3.331,2.6-1.452-.28-3.331-1.332-3.331-2.6v-5.33Zm0,0" transform="translate(-183.585 -374.488)" fill="#d4e1f4"/>
    <path id="Path_583" data-name="Path 583" d="M152.476,274.806h-1.333a1.332,1.332,0,0,0-1.333,1.332V278.8a1.332,1.332,0,0,0,1.333,1.332h4a1.332,1.332,0,0,1-1.333-1.332v-2.665a1.332,1.332,0,0,1,1.333-1.332h1.333c-.12-5.424-5.223-9.062-7.476-13.512a17.447,17.447,0,0,1-1.852-7.809,17.211,17.211,0,0,1,.611-4.493,13.3,13.3,0,0,1-4.487,2.5,17.144,17.144,0,0,0,1.733,9.8c2.249,4.45,7.352,8.088,7.473,13.512Zm0,0" transform="translate(-120.038 -209.463)" fill="#fff"/>
    <path id="Path_584" data-name="Path 584" d="M222.019,453.089a4.136,4.136,0,0,0,.666.067h2.665a3.7,3.7,0,0,0,.655-.069c-1.455-.282-3.321-1.333-3.321-2.6v-5.33h-4v5.33C218.688,451.757,220.567,452.809,222.019,453.089Zm0,0" transform="translate(-183.585 -374.488)" fill="#fff"/>
    <path id="Path_585" data-name="Path 585" d="M22.129,127.749a13.316,13.316,0,0,0,2-.166,13.307,13.307,0,0,1,0-26.318,13.319,13.319,0,1,0-2,26.484Zm0,0" transform="translate(-7.014 -85.059)" fill="#fff"/>
    <path id="Path_586" data-name="Path 586" d="M15.115,95.3A12.05,12.05,0,0,0,3.569,104.1a12.5,12.5,0,0,0-.447,3.2H.457A15.1,15.1,0,0,1,1,103.384,14.69,14.69,0,0,1,15.115,92.637Zm0,0" transform="translate(0 -77.93)" fill="#fff"/>
    <g id="Group_240" data-name="Group 240" transform="translate(0.457 0)">
      <path id="Path_587" data-name="Path 587" d="M67.778,351.851a1.331,1.331,0,0,0,1.157.666,1.307,1.307,0,0,0,.666-.176l9.328-5.33a1.333,1.333,0,0,0-1.322-2.314l-9.328,5.33a1.332,1.332,0,0,0-.5,1.823Zm0,0" transform="translate(-56.942 -289.84)" fill="#7975fc"/>
      <path id="Path_588" data-name="Path 588" d="M54.155,310.91l-10.607,1.7a1.333,1.333,0,0,0,.213,2.648,1.354,1.354,0,0,0,.213-.017l10.607-1.7a1.332,1.332,0,0,0-.424-2.63Zm0,0" transform="translate(-35.766 -261.541)" fill="#7975fc"/>
      <path id="Path_589" data-name="Path 589" d="M361.553,345.09a1.333,1.333,0,0,0,.5,1.818l9.328,5.33a1.317,1.317,0,0,0,.661.181,1.333,1.333,0,0,0,.666-2.489l-9.328-5.33a1.333,1.333,0,0,0-1.823.491Zm0,0" transform="translate(-304.079 -289.742)" fill="#7975fc"/>
      <path id="Path_590" data-name="Path 590" d="M390.045,315.245a1.367,1.367,0,0,0,.213.017,1.333,1.333,0,0,0,.211-2.648l-10.607-1.7a1.332,1.332,0,0,0-.424,2.63Zm0,0" transform="translate(-318.355 -261.54)" fill="#7975fc"/>
      <path id="Path_591" data-name="Path 591" d="M390.565,134.206a1.332,1.332,0,0,1-.941-2.265,1.355,1.355,0,0,1,1.882,0,1.333,1.333,0,0,0,1.883-1.886,3.818,3.818,0,0,0-1.491-.913v-1.6a1.332,1.332,0,1,0-2.665,0v1.6a3.832,3.832,0,0,0-1.493.9,4,4,0,0,0,2.825,6.824,1.333,1.333,0,0,1,.941,2.265,1.356,1.356,0,0,1-1.882,0,1.333,1.333,0,0,0-1.883,1.885,3.967,3.967,0,0,0,1.491.933v1.579a1.332,1.332,0,1,0,2.665,0v-1.576a3.991,3.991,0,0,0-1.332-7.751Zm0,0" transform="translate(-325.271 -106.174)" fill="#7975fc"/>
      <path id="Path_592" data-name="Path 592" d="M65.751,14.707A14.49,14.49,0,0,0,57.745,17.1a17.85,17.85,0,0,0-.192-2.4,17.323,17.323,0,0,0-34.246,0,17.814,17.814,0,0,0-.191,2.389,14.488,14.488,0,0,0-8-2.381A14.7,14.7,0,0,0,9.4,15.863a1.305,1.305,0,0,0-.678,1.81,1.377,1.377,0,0,0,1.718.644,12.028,12.028,0,0,1,4.672-.944,11.829,11.829,0,0,1,8.344,3.407,17.3,17.3,0,0,0,4.321,8.395c-.183.174-.376.334-.553.518a19.292,19.292,0,0,0-4.962,9.285,11.793,11.793,0,0,1-7.149,2.38A12.007,12.007,0,0,1,3.123,29.365a12.5,12.5,0,0,1,.447-3.2,8.858,8.858,0,0,1,.377-1.135,1.4,1.4,0,0,0-.7-1.7,1.287,1.287,0,0,0-1.786.733A11.417,11.417,0,0,0,1,25.456a15.107,15.107,0,0,0-.544,3.908A14.676,14.676,0,0,0,15.115,44.022a14.464,14.464,0,0,0,6.706-1.631c-.014.3-.043.594-.043.9a19.824,19.824,0,0,0,1.988,8.662,30.9,30.9,0,0,0,3.247,4.914c1.768,2.341,3.443,4.574,3.939,7.168a2.666,2.666,0,0,0-2.512,2.645V69.34a2.665,2.665,0,0,0,2.665,2.665h2.665v4c0,2.4,3.209,4,5.33,4h2.665c2.121,0,5.33-1.6,5.33-4v-4h2.665a2.665,2.665,0,0,0,2.665-2.665V66.675a2.664,2.664,0,0,0-2.512-2.649c.5-2.6,2.171-4.828,3.939-7.168A30.944,30.944,0,0,0,57.1,51.944a19.823,19.823,0,0,0,1.988-8.657c0-.3-.029-.6-.043-.9a14.462,14.462,0,0,0,6.706,1.631,14.658,14.658,0,1,0,0-29.316ZM25.775,17.372a15.3,15.3,0,0,1,.171-2.265,14.658,14.658,0,0,1,28.973,0,15.22,15.22,0,0,1,.172,2.265,14.628,14.628,0,0,1-4.054,10.084,18.126,18.126,0,0,0-6.356-2.9,5.3,5.3,0,0,0-4.248-8.515A2.665,2.665,0,1,1,43.1,13.374a1.333,1.333,0,1,0,2.665,0,5.33,5.33,0,0,0-4-5.14V6.712a1.333,1.333,0,0,0-2.665,0V8.234A5.319,5.319,0,0,0,40.433,18.7a2.665,2.665,0,1,1-2.665,2.665,1.332,1.332,0,1,0-2.665,0,5.278,5.278,0,0,0,1.082,3.184,18.133,18.133,0,0,0-6.356,2.9,14.628,14.628,0,0,1-4.053-10.084ZM44.431,76c-.057.43-1.572,1.333-2.665,1.333H39.1c-1.093,0-2.608-.906-2.665-1.333v-4h7.995Zm1.333-6.662H31.106V66.675H49.761V69.34ZM40.433,53.35h1.333V64.01H39.1V53.35Zm14.273-2.575a28.638,28.638,0,0,1-2.979,4.477c-1.986,2.629-4.033,5.337-4.523,8.759H44.431V53.35H47.1a4.117,4.117,0,0,0,3.289-1.542,5,5,0,0,0,1.042-3.122A4.373,4.373,0,0,0,47.1,44.022c-3.624,0-4.959,3.731-5.261,6.663h-2.8c-.3-2.932-1.637-6.663-5.261-6.663a4.116,4.116,0,0,0-3.289,1.542,5,5,0,0,0-1.047,3.122,4.373,4.373,0,0,0,4.33,4.663h2.665V64.01H33.663c-.49-3.422-2.531-6.13-4.524-8.758a28.69,28.69,0,0,1-2.978-4.478,17.161,17.161,0,0,1-1.718-7.488,16.791,16.791,0,0,1,4.7-11.745,15.59,15.59,0,0,1,22.583,0,16.792,16.792,0,0,1,4.7,11.745,17.161,17.161,0,0,1-1.718,7.488Zm-10.162-.089c.215-1.58.825-4,2.551-4,1.619,0,1.666,1.8,1.666,2a2.364,2.364,0,0,1-.457,1.457,1.45,1.45,0,0,1-1.209.541Zm-8.218,0H33.77c-1.619,0-1.666-1.8-1.666-2a2.374,2.374,0,0,1,.457-1.458,1.451,1.451,0,0,1,1.209-.541c1.744,0,2.348,2.419,2.556,4Zm29.425-9.328A11.794,11.794,0,0,1,58.6,38.975a19.3,19.3,0,0,0-4.962-9.285c-.177-.184-.37-.344-.553-.518a17.3,17.3,0,0,0,4.32-8.395,11.83,11.83,0,0,1,8.345-3.4,11.993,11.993,0,0,1,0,23.985Zm0,0" transform="translate(-0.458 0)" fill="#7975fc"/>
      <path id="Path_593" data-name="Path 593" d="M71.614,126.211a1.333,1.333,0,0,0-1.333,1.333v1.6a3.834,3.834,0,0,0-1.492.9,4,4,0,0,0,2.825,6.824,1.332,1.332,0,0,1,.941,2.265,1.356,1.356,0,0,1-1.882,0,1.335,1.335,0,1,0-1.883,1.892,3.97,3.97,0,0,0,1.491.933v1.572a1.333,1.333,0,0,0,2.665,0v-1.576a3.991,3.991,0,0,0-1.333-7.751,1.332,1.332,0,0,1-.941-2.265,1.355,1.355,0,0,1,1.882,0,1.333,1.333,0,0,0,1.883-1.886,3.82,3.82,0,0,0-1.491-.913v-1.6a1.333,1.333,0,0,0-1.333-1.333Zm0,0" transform="translate(-56.957 -106.174)" fill="#7975fc"/>
      <path id="Path_594" data-name="Path 594" d="M24.524,120.332a1.547,1.547,0,0,0,.965.308,1.259,1.259,0,0,0,.868-.381,1.378,1.378,0,0,0,.363-.873l-.025-.251a1.168,1.168,0,0,0-.073-.266.954.954,0,0,0-.1-.235,1.909,1.909,0,0,0-.152-.221,1.272,1.272,0,0,0-.917-.445,1.437,1.437,0,0,0-1.411,1.452,1.159,1.159,0,0,0,.151.507,1.312,1.312,0,0,0,.331.4Zm0,0" transform="translate(-20.298 -99.24)" fill="#7975fc"/>
    </g>
  </g>
</svg>
