<svg id="land-img" xmlns="http://www.w3.org/2000/svg" xmlns:xlink="http://www.w3.org/1999/xlink" width="500" height="500" viewBox="0 0 500 500">
  <defs>
    <clipPath id="clip-path">
      <rect id="Rectangle_16" data-name="Rectangle 16" width="500" height="500"/>
    </clipPath>
    <linearGradient id="linear-gradient" x1="-0.385" y1="0.991" x2="4.583" y2="-1.769" gradientUnits="objectBoundingBox">
      <stop offset="0" stop-color="#4981fb" stop-opacity="0"/>
      <stop offset="0.211" stop-color="#6690fb" stop-opacity="0.212"/>
      <stop offset="0.562" stop-color="#91a5fb" stop-opacity="0.561"/>
      <stop offset="0.836" stop-color="#acb3fc" stop-opacity="0.839"/>
      <stop offset="0.999" stop-color="#b5b8fc"/>
    </linearGradient>
    <linearGradient id="linear-gradient-2" x1="-0.434" y1="1.15" x2="2.407" y2="-0.827" xlink:href="#linear-gradient"/>
    <linearGradient id="linear-gradient-3" x1="0.15" y1="0.836" x2="1.833" y2="-0.782" xlink:href="#linear-gradient"/>
    <linearGradient id="linear-gradient-4" x1="0.151" y1="0.824" x2="2.542" y2="-1.397" xlink:href="#linear-gradient"/>
    <linearGradient id="linear-gradient-5" x1="-0.176" y1="0.845" x2="1.432" y2="0.024" xlink:href="#linear-gradient"/>
    <linearGradient id="linear-gradient-6" x1="-0.146" y1="0.882" x2="4.245" y2="-1.716" xlink:href="#linear-gradient"/>
    <linearGradient id="linear-gradient-7" x1="-0.268" y1="1.07" x2="2.243" y2="-0.792" xlink:href="#linear-gradient"/>
    <linearGradient id="linear-gradient-8" x1="0.245" y1="0.761" x2="1.732" y2="-0.762" xlink:href="#linear-gradient"/>
    <linearGradient id="linear-gradient-9" x1="0.28" y1="0.718" x2="2.393" y2="-1.372" xlink:href="#linear-gradient"/>
    <linearGradient id="linear-gradient-10" x1="-0.096" y1="0.824" x2="1.326" y2="0.051" xlink:href="#linear-gradient"/>
    <linearGradient id="linear-gradient-11" x1="0.5" y1="1.915" x2="0.5" y2="0.427" gradientUnits="objectBoundingBox">
      <stop offset="0" stop-color="#e1eafd" stop-opacity="0"/>
      <stop offset="0.594" stop-color="#cad6fa" stop-opacity="0.596"/>
      <stop offset="0.999" stop-color="#c1cdf8"/>
    </linearGradient>
    <linearGradient id="linear-gradient-12" x1="0.5" y1="0.988" x2="0.5" y2="0.053" xlink:href="#linear-gradient-11"/>
    <linearGradient id="linear-gradient-13" x1="-3653.432" y1="-1767.721" x2="3655.131" y2="1768.472" gradientUnits="objectBoundingBox">
      <stop offset="0" stop-color="#fcfdff"/>
      <stop offset="0.213" stop-color="#eff5fe"/>
      <stop offset="0.706" stop-color="#d4e5fd"/>
      <stop offset="0.999" stop-color="#cbdffd"/>
    </linearGradient>
    <linearGradient id="linear-gradient-14" x1="-83.434" y1="-10801.518" x2="88.8" y2="11365.568" xlink:href="#linear-gradient-13"/>
    <linearGradient id="linear-gradient-15" x1="0.5" y1="0.844" x2="0.5" y2="-0.101" xlink:href="#linear-gradient-11"/>
    <linearGradient id="linear-gradient-16" x1="0.5" y1="0.921" x2="0.5" y2="0.009" gradientUnits="objectBoundingBox">
      <stop offset="0" stop-color="#e1eafd" stop-opacity="0"/>
      <stop offset="0.28" stop-color="#dde7fd" stop-opacity="0.098"/>
      <stop offset="0.515" stop-color="#cad6fa" stop-opacity="0.596"/>
      <stop offset="0.999" stop-color="#c1cdf8"/>
      <stop offset="1" stop-color="#c1cdf8"/>
    </linearGradient>
    <linearGradient id="linear-gradient-17" x1="0.5" y1="0.95" x2="0.5" y2="0.001" xlink:href="#linear-gradient-11"/>
    <linearGradient id="linear-gradient-18" x1="0.5" y1="0.732" x2="0.5" y2="-0.102" xlink:href="#linear-gradient-11"/>
    <linearGradient id="linear-gradient-19" x1="0.5" y1="0.725" x2="0.5" y2="-0.109" xlink:href="#linear-gradient-11"/>
    <linearGradient id="linear-gradient-20" x1="1.188" y1="-0.447" x2="-1.298" y2="2.975" gradientUnits="objectBoundingBox">
      <stop offset="0" stop-color="#fff"/>
      <stop offset="0.338" stop-color="#e5eafc" stop-opacity="0.663"/>
      <stop offset="0.753" stop-color="#cad5f9" stop-opacity="0.247"/>
      <stop offset="0.999" stop-color="#c1cdf8" stop-opacity="0"/>
    </linearGradient>
    <linearGradient id="linear-gradient-21" x1="1.327" y1="-0.637" x2="-1.16" y2="2.785" xlink:href="#linear-gradient-20"/>
    <linearGradient id="linear-gradient-22" x1="10.468" y1="-4.929" x2="-15.394" y2="9.155" xlink:href="#linear-gradient-20"/>
    <linearGradient id="linear-gradient-23" x1="8.277" y1="-3.743" x2="-17.536" y2="10.341" xlink:href="#linear-gradient-20"/>
    <linearGradient id="linear-gradient-24" x1="6.115" y1="-2.558" x2="-19.747" y2="11.526" xlink:href="#linear-gradient-20"/>
    <linearGradient id="linear-gradient-25" x1="3.938" y1="-1.372" x2="-21.925" y2="12.712" xlink:href="#linear-gradient-20"/>
    <linearGradient id="linear-gradient-26" x1="1.759" y1="-0.187" x2="-24.053" y2="13.897" xlink:href="#linear-gradient-20"/>
    <radialGradient id="radial-gradient" cx="0.839" cy="0.229" r="0.921" gradientUnits="objectBoundingBox">
      <stop offset="0" stop-color="#e7f2fe"/>
      <stop offset="0.042" stop-color="#e5effe"/>
      <stop offset="0.527" stop-color="#cad6fa"/>
      <stop offset="0.814" stop-color="#c1cdf8"/>
      <stop offset="0.857" stop-color="#c8d2f9"/>
      <stop offset="0.918" stop-color="#dbe2fb"/>
      <stop offset="0.992" stop-color="#fbfcff"/>
      <stop offset="1" stop-color="#fff"/>
    </radialGradient>
    <linearGradient id="linear-gradient-27" x1="0.984" y1="0.202" x2="-0.462" y2="1.092" gradientUnits="objectBoundingBox">
      <stop offset="0" stop-color="#e7f2fe"/>
      <stop offset="0.051" stop-color="#e5effe"/>
      <stop offset="0.646" stop-color="#cad6fa"/>
      <stop offset="0.999" stop-color="#c1cdf8"/>
    </linearGradient>
    <linearGradient id="linear-gradient-28" x1="0.5" y1="1.228" x2="0.5" y2="0.355" gradientUnits="objectBoundingBox">
      <stop offset="0" stop-color="#83e8fe"/>
      <stop offset="1" stop-color="#fff" stop-opacity="0"/>
    </linearGradient>
    <radialGradient id="radial-gradient-2" cx="0.839" cy="0.229" r="0.921" xlink:href="#radial-gradient"/>
    <linearGradient id="linear-gradient-29" x1="0.984" y1="0.202" x2="-0.462" y2="1.092" xlink:href="#linear-gradient-27"/>
    <linearGradient id="linear-gradient-30" x1="0.5" y1="1.228" x2="0.5" y2="0.355" xlink:href="#linear-gradient-28"/>
    <linearGradient id="linear-gradient-31" x1="0.802" y1="0.36" x2="-1.469" y2="1.415" gradientUnits="objectBoundingBox">
      <stop offset="0" stop-color="#fff"/>
      <stop offset="0.614" stop-color="#dae1fb"/>
      <stop offset="0.999" stop-color="#c1cdf8"/>
    </linearGradient>
    <linearGradient id="linear-gradient-32" x1="1.176" y1="0.014" x2="-0.053" y2="0.945" xlink:href="#linear-gradient-27"/>
    <linearGradient id="linear-gradient-33" x1="0.5" y1="1.207" x2="0.5" y2="-0.086" gradientUnits="objectBoundingBox">
      <stop offset="0.072" stop-color="#87d0fd"/>
      <stop offset="0.165" stop-color="#7ec3ec" stop-opacity="0.898"/>
      <stop offset="0.349" stop-color="#68a0c0" stop-opacity="0.702"/>
      <stop offset="0.608" stop-color="#456979" stop-opacity="0.424"/>
      <stop offset="0.927" stop-color="#141e18" stop-opacity="0.078"/>
      <stop offset="1" stop-color="#080c01" stop-opacity="0"/>
    </linearGradient>
    <linearGradient id="linear-gradient-34" x1="1.021" y1="0.478" x2="-0.013" y2="0.522" gradientUnits="objectBoundingBox">
      <stop offset="0" stop-color="#83e8fe"/>
      <stop offset="0.184" stop-color="#76d0fd"/>
      <stop offset="0.547" stop-color="#5ea5fc"/>
      <stop offset="0.831" stop-color="#4f8bfc"/>
      <stop offset="0.999" stop-color="#4981fb"/>
    </linearGradient>
    <linearGradient id="linear-gradient-35" x1="1.045" y1="0.349" x2="0.117" y2="0.525" xlink:href="#linear-gradient-27"/>
    <linearGradient id="linear-gradient-36" x1="0.5" y1="1.068" x2="0.5" y2="0.027" xlink:href="#linear-gradient-34"/>
    <linearGradient id="linear-gradient-37" x1="0.5" y1="1.135" x2="0.5" y2="0.136" xlink:href="#linear-gradient-28"/>
    <linearGradient id="linear-gradient-38" x1="1.176" y1="0.014" x2="-0.053" y2="0.945" xlink:href="#linear-gradient-27"/>
    <linearGradient id="linear-gradient-39" x1="0.5" y1="1.207" x2="0.5" y2="-0.087" xlink:href="#linear-gradient-33"/>
    <linearGradient id="linear-gradient-40" x1="1.53" y1="0.22" x2="-1.28" y2="0.983" xlink:href="#linear-gradient-27"/>
    <linearGradient id="linear-gradient-41" x1="1.254" y1="0.971" x2="0.178" y2="0.305" xlink:href="#linear-gradient-31"/>
    <linearGradient id="linear-gradient-42" x1="1.531" y1="0.22" x2="-1.279" y2="0.983" xlink:href="#linear-gradient-27"/>
    <linearGradient id="linear-gradient-43" x1="1.254" y1="0.971" x2="0.178" y2="0.305" xlink:href="#linear-gradient-31"/>
    <linearGradient id="linear-gradient-44" x1="0.5" y1="1.033" x2="0.5" y2="0.082" gradientUnits="objectBoundingBox">
      <stop offset="0" stop-color="#e7f2fe" stop-opacity="0"/>
      <stop offset="0.051" stop-color="#e5effe" stop-opacity="0.051"/>
      <stop offset="0.646" stop-color="#cad6fa" stop-opacity="0.647"/>
      <stop offset="0.999" stop-color="#c1cdf8"/>
    </linearGradient>
    <linearGradient id="linear-gradient-45" x1="0.946" y1="0.523" x2="-0.015" y2="0.488" xlink:href="#linear-gradient-27"/>
    <linearGradient id="linear-gradient-46" x1="1.041" y1="0.291" x2="0.012" y2="0.689" xlink:href="#linear-gradient-34"/>
    <linearGradient id="linear-gradient-47" x1="-0.036" y1="0.042" x2="0.991" y2="0.97" xlink:href="#linear-gradient-34"/>
    <linearGradient id="linear-gradient-48" x1="0.5" y1="1.033" x2="0.5" y2="0.082" gradientUnits="objectBoundingBox">
      <stop offset="0" stop-color="#e7f2fe" stop-opacity="0"/>
      <stop offset="0.339" stop-color="#e5effe" stop-opacity="0.051"/>
      <stop offset="0.646" stop-color="#cad6fa" stop-opacity="0.647"/>
      <stop offset="0.999" stop-color="#c1cdf8"/>
      <stop offset="1" stop-color="#c1cdf8"/>
    </linearGradient>
    <linearGradient id="linear-gradient-49" x1="0.946" y1="0.524" x2="-0.015" y2="0.488" xlink:href="#linear-gradient-27"/>
    <linearGradient id="linear-gradient-50" x1="1.041" y1="0.29" x2="0.012" y2="0.689" xlink:href="#linear-gradient-34"/>
    <linearGradient id="linear-gradient-51" x1="-0.036" y1="0.042" x2="0.991" y2="0.971" xlink:href="#linear-gradient-34"/>
    <linearGradient id="linear-gradient-52" x1="-5.706" y1="0.629" x2="-4.815" y2="0.326" gradientUnits="objectBoundingBox">
      <stop offset="0.071" stop-color="#995e73"/>
      <stop offset="0.603" stop-color="#895165"/>
      <stop offset="0.999" stop-color="#794458"/>
    </linearGradient>
    <linearGradient id="linear-gradient-53" x1="-15.541" y1="0.971" x2="-16.618" y2="0.305" xlink:href="#linear-gradient-31"/>
    <linearGradient id="linear-gradient-54" x1="28.571" y1="0.918" x2="29.264" y2="0.071" gradientUnits="objectBoundingBox">
      <stop offset="0.071" stop-color="#edc3b6"/>
      <stop offset="0.322" stop-color="#e6b7a5"/>
      <stop offset="0.815" stop-color="#d4987a"/>
      <stop offset="0.999" stop-color="#cd8b68"/>
    </linearGradient>
    <linearGradient id="linear-gradient-55" x1="1.128" y1="0.677" x2="-0.101" y2="0.33" gradientUnits="objectBoundingBox">
      <stop offset="0" stop-color="#e8e8fe"/>
      <stop offset="1" stop-color="#bfbff4"/>
    </linearGradient>
    <linearGradient id="linear-gradient-56" x1="-0.204" y1="-0.365" x2="-0.204" y2="0.435" gradientUnits="objectBoundingBox">
      <stop offset="0.071" stop-color="#7549dd"/>
      <stop offset="0.277" stop-color="#6a3ccc"/>
      <stop offset="0.684" stop-color="#4f1ca1"/>
      <stop offset="1" stop-color="#36007b"/>
    </linearGradient>
    <linearGradient id="linear-gradient-57" x1="18.588" y1="0.986" x2="17.828" y2="0.362" xlink:href="#linear-gradient-56"/>
    <linearGradient id="linear-gradient-58" x1="53.677" y1="1.061" x2="53.677" y2="-0.034" gradientUnits="objectBoundingBox">
      <stop offset="0.07" stop-color="#7549dd"/>
      <stop offset="0.277" stop-color="#6a3ccc"/>
      <stop offset="0.684" stop-color="#4f1ca1"/>
      <stop offset="1" stop-color="#36007b"/>
    </linearGradient>
    <linearGradient id="linear-gradient-59" x1="31.841" y1="0.981" x2="31.045" y2="0.122" xlink:href="#linear-gradient-54"/>
    <linearGradient id="linear-gradient-60" x1="22.735" y1="0.843" x2="23.347" y2="0.242" xlink:href="#linear-gradient-54"/>
  </defs>
  <g id="Group_131" data-name="Group 131" clip-path="url(#clip-path)">
    <g id="Group_125" data-name="Group 125">
      <path id="Path_294" data-name="Path 294" d="M410.86,161.49l14.4-8.31c2.35-1.36,2.35-3.55,0-4.91l-62.3-35.97a9.364,9.364,0,0,0-8.5,0l-37.04,21.38a9.364,9.364,0,0,1-8.5,0l-20.54-11.86a9.364,9.364,0,0,0-8.5,0L247.4,140.57c-2.35,1.36-2.35,3.55,0,4.91l32.48,18.75a9.364,9.364,0,0,0,8.5,0l7.22-4.17a9.364,9.364,0,0,1,8.5,0l50.36,29.07a9.364,9.364,0,0,0,8.5,0l11.27-6.51a9.364,9.364,0,0,1,8.5,0l15.51,8.96a9.364,9.364,0,0,0,8.5,0l19.63-11.33c2.35-1.36,2.35-3.55,0-4.91l-15.51-8.96C408.51,165.04,408.51,162.84,410.86,161.49Z" fill="#c5d9fe"/>
      <path id="Path_295" data-name="Path 295" d="M346.23,207.96l7.19,4.15a9.364,9.364,0,0,0,8.5,0l7.19-4.15c2.35-1.36,2.35-3.55,0-4.91l-7.19-4.15a9.364,9.364,0,0,0-8.5,0l-7.19,4.15C343.88,204.4,343.88,206.6,346.23,207.96Z" fill="#c5d9fe"/>
      <path id="Path_296" data-name="Path 296" d="M334.67,112.9l-7.19-4.15a9.364,9.364,0,0,0-8.5,0l-7.19,4.15c-2.35,1.36-2.35,3.55,0,4.91l7.19,4.15a9.364,9.364,0,0,0,8.5,0l7.19-4.15C337.02,116.46,337.02,114.26,334.67,112.9Z" fill="#c5d9fe"/>
      <path id="Path_297" data-name="Path 297" d="M415.17,121.5l-9.52-5.5a12.435,12.435,0,0,0-11.27,0l-9.52,5.5c-3.11,1.8-3.11,4.71,0,6.51l9.52,5.5a12.435,12.435,0,0,0,11.27,0l9.52-5.5C418.28,126.21,418.28,123.29,415.17,121.5Z" fill="#c5d9fe"/>
    </g>
    <g id="Group_130" data-name="Group 130">
      <g id="Group_127" data-name="Group 127">
        <g id="Group_126" data-name="Group 126">
          <path id="Path_298" data-name="Path 298" d="M156.96,102.6l11.13,6.42c2.06,1.19,3.72-.07,3.72-2.81v-3.05c0-2.74-1.67-5.93-3.72-7.11l-11.13-6.42c-2.06-1.19-3.72.07-3.72,2.81v3.05C153.24,98.23,154.9,101.41,156.96,102.6Z" fill="url(#linear-gradient)"/>
          <path id="Path_299" data-name="Path 299" d="M204.33,116.97,179.3,102.52c-2.06-1.19-3.72.07-3.72,2.81v3.05c0,2.74,1.67,5.93,3.72,7.11l25.03,14.45c2.06,1.19,3.72-.07,3.72-2.81v-3.05C208.05,121.35,206.39,118.16,204.33,116.97Z" fill="url(#linear-gradient-2)"/>
          <path id="Path_300" data-name="Path 300" d="M153.24,108.63l54.81,31.65v-2.96l-54.81-31.64Z" fill="url(#linear-gradient-3)"/>
          <path id="Path_301" data-name="Path 301" d="M153.24,112.83l38.58,22.27v-2.95l-38.58-22.27Z" fill="url(#linear-gradient-4)"/>
        </g>
        <path id="Path_302" data-name="Path 302" d="M205.85,112.43,155.43,83.32c-1.91-1.1-3.47-4.09-3.47-6.64V47.69c0-2.55,1.56-3.73,3.47-2.63l50.42,29.11c1.91,1.1,3.47,4.09,3.47,6.64V109.8C209.33,112.35,207.77,113.53,205.85,112.43Z" fill="url(#linear-gradient-5)"/>
      </g>
      <g id="Group_129" data-name="Group 129">
        <g id="Group_128" data-name="Group 128">
          <path id="Path_303" data-name="Path 303" d="M430.78,260.57l11.13,6.42c2.06,1.19,3.72-.07,3.72-2.81v-3.05c0-2.74-1.67-5.93-3.72-7.11l-11.13-6.42c-2.06-1.19-3.72.07-3.72,2.81v3.05C427.06,256.2,428.73,259.39,430.78,260.57Z" fill="url(#linear-gradient-6)"/>
          <path id="Path_304" data-name="Path 304" d="M478.16,274.95,453.13,260.5c-2.06-1.19-3.72.07-3.72,2.81v3.05c0,2.74,1.67,5.93,3.72,7.11l25.03,14.45c2.06,1.19,3.72-.07,3.72-2.81v-3.05C481.88,279.32,480.21,276.13,478.16,274.95Z" fill="url(#linear-gradient-7)"/>
          <path id="Path_305" data-name="Path 305" d="M427.06,266.6l54.82,31.65V295.3l-54.82-31.65Z" fill="url(#linear-gradient-8)"/>
          <path id="Path_306" data-name="Path 306" d="M427.06,270.8l38.58,22.27v-2.95l-38.58-22.27Z" fill="url(#linear-gradient-9)"/>
        </g>
        <path id="Path_307" data-name="Path 307" d="M479.68,270.4l-50.42-29.11c-1.91-1.1-3.47-4.09-3.47-6.64V205.66c0-2.55,1.56-3.73,3.47-2.63l50.42,29.11c1.91,1.1,3.47,4.09,3.47,6.64v28.99C483.15,270.32,481.59,271.5,479.68,270.4Z" fill="url(#linear-gradient-10)"/>
      </g>
    </g>
  </g>
  <g id="Group_138" data-name="Group 138" clip-path="url(#clip-path)">
    <g id="Group_135" data-name="Group 135">
      <g id="Group_132" data-name="Group 132">
        <path id="Path_308" data-name="Path 308" d="M401.5,260.54l19.69-11.37c6.25-3.61,6.25-9.46,0-13.07L240.51,131.78c-6.25-3.61-16.39-3.61-22.64,0l-19.69,11.37c-6.25,3.61-16.39,3.61-22.64,0L143.8,124.82c-6.25-3.61-16.39-3.61-22.64,0L50.79,165.45c-6.25,3.61-6.25,9.46,0,13.07l31.74,18.33c6.25,3.61,6.25,9.46,0,13.07L55.55,225.5c-6.25,3.61-6.25,9.46,0,13.07l62.2,35.91c6.25,3.61,16.39,3.61,22.64,0l26.98-15.58c6.25-3.61,16.39-3.61,22.64,0l13.13,7.58c6.25,3.61,6.25,9.46,0,13.07l-26.98,15.58c-6.25,3.61-6.25,9.46,0,13.07l60.06,34.68c6.25,3.61,16.39,3.61,22.64,0l26.98-15.58c6.25-3.61,16.39-3.61,22.64,0l31.74,18.33c6.25,3.61,16.39,3.61,22.64,0L433.23,305c6.25-3.61,6.25-9.46,0-13.07L401.49,273.6C395.25,270,395.25,264.15,401.5,260.54Z" fill="#eaf2fd"/>
        <path id="Path_309" data-name="Path 309" d="M401.5,273.61l24.29,14.02c-.01-.07-.04-.13-.05-.2V243.78h0c-.43,1.97-1.93,3.88-4.55,5.39L401.5,260.54C395.25,264.15,395.25,270,401.5,273.61Z" fill="url(#linear-gradient-11)"/>
        <path id="Path_311" data-name="Path 311" d="M50.91,232.63c-.28-2.56,1.25-5.18,4.64-7.13l26.98-15.58c6.25-3.61,6.25-9.46,0-13.07L50.79,178.52c-2.62-1.51-4.13-3.42-4.55-5.39h0V402.84c-.59,2.73.92,5.59,4.55,7.68l.11.07V232.63Z" fill="url(#linear-gradient-12)"/>
        <path id="Path_312" data-name="Path 312" d="M437.79,299.62h0c0,.01,0,.01-.01.02h.01Z" fill="url(#linear-gradient-13)"/>
        <path id="Path_313" data-name="Path 313" d="M296.17,324.63h2C297.5,324.61,296.83,324.61,296.17,324.63Z" fill="url(#linear-gradient-14)"/>
        <path id="Path_314" data-name="Path 314" d="M351.47,580.35a23.3,23.3,0,0,0,11.41-2.7l70.37-40.63c3.63-2.1,5.14-4.95,4.55-7.68V299.64h-.01c-.43,1.96-1.93,3.86-4.54,5.37l-70.37,40.63a23.194,23.194,0,0,1-11.41,2.71h0v232Z" fill="url(#linear-gradient-15)"/>
        <path id="Path_316" data-name="Path 316" d="M340.23,345.64l-31.74-18.33a22.526,22.526,0,0,0-10.32-2.68h-2a22.526,22.526,0,0,0-10.32,2.68l-26.98,15.58a23.2,23.2,0,0,1-11.53,2.7V577.6a23.306,23.306,0,0,0,11.53-2.7l26.98-15.58a22.527,22.527,0,0,1,10.32-2.68,23.614,23.614,0,0,1,12.32,2.68l31.74,18.33a23.087,23.087,0,0,0,11.23,2.7V348.34h0A23.114,23.114,0,0,1,340.23,345.64Z" fill="url(#linear-gradient-16)"/>
        <path id="Path_317" data-name="Path 317" d="M203.14,266.49l-13.13-7.58a23.538,23.538,0,0,0-12.08-2.69,22.68,22.68,0,0,0-10.57,2.69l-26.98,15.58a23.06,23.06,0,0,1-11.16,2.7V509.2h0a23.06,23.06,0,0,0,11.16-2.7l26.98-15.58a18.893,18.893,0,0,1,4.11-1.71V301.96h.02c-.13-2.46,1.41-4.95,4.67-6.83l1.78-1.03,25.2-14.55C209.39,275.95,209.39,270.1,203.14,266.49Z" fill="url(#linear-gradient-17)"/>
        <path id="Path_318" data-name="Path 318" d="M236.22,342.89l-58.75-33.92-1.31-.76c-3-1.73-4.54-3.98-4.67-6.24h-.02V489.22c.02-.01.04-.01.06-.02l.01,8.9.05,34.45c-.59,2.73.92,5.59,4.55,7.68l60.06,34.68a23.087,23.087,0,0,0,11.11,2.7V345.59A23.093,23.093,0,0,1,236.22,342.89Zm-31.94,2.69h0c0-.01.01-.01,0,0Z" fill="url(#linear-gradient-18)"/>
        <path id="Path_319" data-name="Path 319" d="M129.23,277.19a23.246,23.246,0,0,1-11.48-2.7l-62.2-35.91c-2.86-1.65-4.4-3.78-4.64-5.94H50.9V410.6l.01.01L51,462.9a4.813,4.813,0,0,0-.1.85v.48c.07,2.3,1.6,4.6,4.65,6.35l62.2,35.91a23.139,23.139,0,0,0,11.48,2.7h0ZM85.21,379.17a3.8,3.8,0,0,1,0-1.01Z" fill="url(#linear-gradient-19)"/>
      </g>
      <g id="Group_134" data-name="Group 134">
        <path id="Path_320" data-name="Path 320" d="M351.55,340.2a15.187,15.187,0,0,1-7.25-1.62l-31.74-18.33a33.065,33.065,0,0,0-30.78,0L254.8,335.83a17.033,17.033,0,0,1-14.5,0l-59.18-34.17,26.09-15.06c5.57-3.21,8.76-8.17,8.76-13.59s-3.19-10.37-8.76-13.58l-13.13-7.58a33.065,33.065,0,0,0-30.78,0l-26.98,15.58a17.033,17.033,0,0,1-14.5,0l-61.31-35.4L86.6,216.97c5.57-3.21,8.76-8.17,8.76-13.59s-3.19-10.37-8.76-13.59L55.74,171.98l.37-.21,69.11-39.9a17.033,17.033,0,0,1,14.5,0l31.74,18.33a33.065,33.065,0,0,0,30.78,0l19.69-11.37a17.033,17.033,0,0,1,14.5,0l179.79,103.8-18.8,10.85c-5.57,3.22-8.76,8.17-8.76,13.59s3.19,10.37,8.76,13.58l30.86,17.82-.37.21-69.11,39.9A15.187,15.187,0,0,1,351.55,340.2Zm-54.38-24.23a31.762,31.762,0,0,1,15.64,3.86l31.74,18.33a16.6,16.6,0,0,0,14.01,0l68.74-39.69-30.12-17.39c-5.72-3.3-9.01-8.41-9.01-14.01s3.28-10.71,9.01-14.01l18.06-10.42L236.19,139.26a16.6,16.6,0,0,0-14.01,0l-19.69,11.37a33.615,33.615,0,0,1-31.28,0L139.47,132.3a16.581,16.581,0,0,0-14,0L56.73,171.99l30.12,17.39c5.72,3.3,9.01,8.41,9.01,14.01s-3.28,10.71-9.01,14.01L61.5,232.04l60.57,34.97a16.6,16.6,0,0,0,14.01,0l26.98-15.58a33.615,33.615,0,0,1,31.28,0l13.13,7.58c5.72,3.3,9.01,8.41,9.01,14.01s-3.28,10.71-9.01,14.01l-25.35,14.64,58.44,33.74a16.582,16.582,0,0,0,14,0l26.98-15.58A31.7,31.7,0,0,1,297.17,315.97Z" fill="#83e8fe"/>
        <path id="Path_321" data-name="Path 321" d="M350.57,331.14a8.354,8.354,0,0,1-4.07-1.01l-23.06-13.31a3.121,3.121,0,0,1-1.83-2.5,2.3,2.3,0,0,1,1.33-1.96l54.55-31.49a8.05,8.05,0,0,1,7.23.29l23.06,13.31a3.121,3.121,0,0,1,1.83,2.5,2.3,2.3,0,0,1-1.33,1.96l-54.55,31.49A6.442,6.442,0,0,1,350.57,331.14Zm30.07-50.51a5.931,5.931,0,0,0-2.91.67l-54.55,31.49a1.842,1.842,0,0,0-1.08,1.54,2.674,2.674,0,0,0,1.58,2.07l23.06,13.31a7.5,7.5,0,0,0,6.73.29l54.55-31.49a1.842,1.842,0,0,0,1.08-1.54,2.674,2.674,0,0,0-1.58-2.07l-23.06-13.31A7.74,7.74,0,0,0,380.64,280.63Z" fill="#83e8fe"/>
        <path id="Path_322" data-name="Path 322" d="M103.46,189a8.354,8.354,0,0,1-4.07-1.01L76.33,174.68a3.121,3.121,0,0,1-1.83-2.49,2.3,2.3,0,0,1,1.33-1.96l54.55-31.49a8.05,8.05,0,0,1,7.23.29l23.06,13.31a3.121,3.121,0,0,1,1.83,2.49,2.3,2.3,0,0,1-1.33,1.96l-54.55,31.49A6.554,6.554,0,0,1,103.46,189Zm30.06-50.52a5.931,5.931,0,0,0-2.91.67L76.06,170.64a1.842,1.842,0,0,0-1.08,1.54,2.674,2.674,0,0,0,1.58,2.07l23.06,13.31a7.5,7.5,0,0,0,6.73.29l54.55-31.49a1.842,1.842,0,0,0,1.08-1.54,2.674,2.674,0,0,0-1.58-2.07l-23.06-13.31A7.82,7.82,0,0,0,133.52,138.48Z" fill="#83e8fe"/>
        <g id="Group_133" data-name="Group 133">
          <path id="Path_323" data-name="Path 323" d="M232.17,155.31l-7.84-4.53,7.84-4.53,7.84,4.53Zm-6.85-4.53,6.86,3.96,6.86-3.96-6.86-3.96Z" fill="#83e8fe"/>
          <path id="Path_324" data-name="Path 324" d="M251.74,166.61l-7.84-4.53,7.84-4.53,7.84,4.53Zm-6.85-4.53,6.86,3.96,6.86-3.96-6.86-3.96Z" fill="#83e8fe"/>
          <path id="Path_325" data-name="Path 325" d="M271.31,177.91l-7.85-4.53,7.85-4.53,7.84,4.53Zm-6.85-4.53,6.86,3.96,6.86-3.96-6.86-3.96Z" fill="#83e8fe"/>
          <path id="Path_326" data-name="Path 326" d="M290.88,189.21l-7.85-4.53,7.85-4.53,7.84,4.53Zm-6.85-4.53,6.86,3.96,6.86-3.96-6.86-3.96Z" fill="#83e8fe"/>
          <path id="Path_327" data-name="Path 327" d="M310.45,200.5l-7.84-4.53,7.84-4.53,7.85,4.53Zm-6.85-4.52,6.86,3.96,6.86-3.96-6.86-3.96Z" fill="#83e8fe"/>
          <path id="Path_328" data-name="Path 328" d="M330.02,211.8l-7.84-4.53,7.84-4.53,7.84,4.53Zm-6.85-4.53,6.86,3.96,6.86-3.96-6.86-3.96Z" fill="#83e8fe"/>
          <path id="Path_329" data-name="Path 329" d="M349.59,223.1l-7.84-4.53,7.84-4.53,7.85,4.53Zm-6.86-4.53,6.86,3.96,6.86-3.96-6.86-3.96Z" fill="#83e8fe"/>
          <path id="Path_330" data-name="Path 330" d="M369.16,234.4l-7.84-4.53,7.84-4.53,7.85,4.53Zm-6.86-4.53,6.86,3.96,6.86-3.96-6.86-3.96Z" fill="#83e8fe"/>
          <path id="Path_331" data-name="Path 331" d="M388.73,245.7l-7.84-4.53,7.84-4.53,7.84,4.53Zm-6.86-4.53,6.86,3.96,6.86-3.96-6.86-3.96Z" fill="#83e8fe"/>
        </g>
        <path id="Path_332" data-name="Path 332" d="M247.34,262.98a4.626,4.626,0,0,1-2.31-.62l-53.12-30.67a4.636,4.636,0,0,1,0-8.02L245.03,193a4.665,4.665,0,0,1,4.63,0l53.12,30.67a4.636,4.636,0,0,1,0,8.02l-53.12,30.67A4.691,4.691,0,0,1,247.34,262.98Zm-2.07-1.05a4.143,4.143,0,0,0,4.13,0l53.12-30.67a4.131,4.131,0,0,0,0-7.16L249.4,193.43a4.119,4.119,0,0,0-4.13,0L192.15,224.1a4.131,4.131,0,0,0,0,7.16Z" fill="#83e8fe"/>
      </g>
    </g>
    <g id="Group_137" data-name="Group 137">
      <path id="Path_333" data-name="Path 333" d="M423.66,349.33l-53.35,30.8v-5.78l53.35-30.8Z" fill="url(#linear-gradient-20)"/>
      <path id="Path_334" data-name="Path 334" d="M423.66,364.09l-53.35,30.8v-5.78l53.35-30.8Z" fill="url(#linear-gradient-21)"/>
      <g id="Group_136" data-name="Group 136">
        <path id="Path_335" data-name="Path 335" d="M372.22,363.24l-5.13,2.96v-5.93l5.13-2.96Z" fill="url(#linear-gradient-22)"/>
        <path id="Path_336" data-name="Path 336" d="M385.89,355.35l-5.14,2.96v-5.93l5.14-2.96Z" fill="url(#linear-gradient-23)"/>
        <path id="Path_337" data-name="Path 337" d="M399.55,347.46l-5.13,2.96v-5.93l5.13-2.96Z" fill="url(#linear-gradient-24)"/>
        <path id="Path_338" data-name="Path 338" d="M413.22,339.57l-5.13,2.96V336.6l5.13-2.96Z" fill="url(#linear-gradient-25)"/>
        <path id="Path_339" data-name="Path 339" d="M426.89,331.68l-5.14,2.96v-5.93l5.14-2.96Z" fill="url(#linear-gradient-26)"/>
      </g>
    </g>
  </g>
  <g id="Group_145" data-name="Group 145" clip-path="url(#clip-path)">
    <g id="Group_141" data-name="Group 141">
      <circle id="Ellipse_1" data-name="Ellipse 1" cx="14.71" cy="14.71" r="14.71" transform="translate(102.18 55.63)" fill="url(#radial-gradient)"/>
      <g id="Group_140" data-name="Group 140">
        <g id="Group_139" data-name="Group 139">
          <path id="Path_340" data-name="Path 340" d="M83.36,138.32l48.84-28.2,20.11,11.61-48.84,28.2Z" fill="#fff" fill-rule="evenodd"/>
          <path id="Path_341" data-name="Path 341" d="M152.31,121.73v34.09l-48.84,28.17V149.93Z" fill-rule="evenodd" fill="url(#linear-gradient-27)"/>
          <path id="Path_342" data-name="Path 342" d="M83.36,138.32l20.11,11.61v34.06L83.36,172.41Z" fill="#c1cdf8" fill-rule="evenodd"/>
        </g>
        <path id="Path_343" data-name="Path 343" d="M93.23,137.69l11.05,6.38,36.26-20.94V32.55l-11.05-6.38L93.23,47.11Z" fill-rule="evenodd" fill="url(#linear-gradient-28)"/>
      </g>
    </g>
    <g id="Group_144" data-name="Group 144">
      <circle id="Ellipse_2" data-name="Ellipse 2" cx="14.71" cy="14.71" r="14.71" transform="translate(349.01 194.11)" fill="url(#radial-gradient-2)"/>
      <g id="Group_143" data-name="Group 143">
        <g id="Group_142" data-name="Group 142">
          <path id="Path_344" data-name="Path 344" d="M330.48,280.46l48.84-28.2,20.11,11.61-48.84,28.2Z" fill="#fff" fill-rule="evenodd"/>
          <path id="Path_345" data-name="Path 345" d="M399.43,263.87v34.09l-48.85,28.17V292.07Z" fill-rule="evenodd" fill="url(#linear-gradient-29)"/>
          <path id="Path_346" data-name="Path 346" d="M330.47,280.46l20.11,11.61v34.06l-20.11-11.58Z" fill="#c1cdf8" fill-rule="evenodd"/>
        </g>
        <path id="Path_347" data-name="Path 347" d="M340.06,278.99l11.05,6.38,36.27-20.94V173.85l-11.05-6.38-36.27,20.94Z" fill-rule="evenodd" fill="url(#linear-gradient-30)"/>
      </g>
    </g>
  </g>
  <g id="Group_155" data-name="Group 155" clip-path="url(#clip-path)">
    <g id="Group_146" data-name="Group 146">
      <path id="Path_348" data-name="Path 348" d="M277.05,180.43h0a2.412,2.412,0,0,0,2.65-2.14l2.5-23.13a2.412,2.412,0,0,0-2.14-2.65h0a2.412,2.412,0,0,0-2.65,2.14l-2.5,23.13A2.425,2.425,0,0,0,277.05,180.43Z" fill="#dfaa86"/>
    </g>
    <g id="Group_149" data-name="Group 149">
      <g id="Group_148" data-name="Group 148">
        <g id="Group_147" data-name="Group 147">
          <path id="Path_349" data-name="Path 349" d="M291.04,212.19c.03.32-.23.6-.65.87-.12.08.02-1.73-.4-1.43-.12.09-5.93,4.61-9.17,3.77a.68.68,0,0,1-.48-.7v-.73c-.04-.82,1.18-2.08,3.04-3.89,2.05-1.99,3.35-3.24,6.41-1.47.87.5,1.23.88,1.23,1.2Z" fill="#080c01"/>
          <path id="Path_350" data-name="Path 350" d="M283.36,210.09c-2.47,2.41-3.82,3.83-2.55,4.57s3.81-.37,6.41-2.34c2.28-1.72,5.61-1.94,2.55-3.7S285.41,208.1,283.36,210.09Z" fill="#39355f"/>
        </g>
      </g>
      <path id="Path_351" data-name="Path 351" d="M285.85,208.94l.18-22.25,6.15,1.99-.06,4.02a26.768,26.768,0,0,1-.93,9.75s-1.05,2.14-.84,7.13C290.35,209.58,287.65,211.11,285.85,208.94Z" fill="#dfaa86"/>
    </g>
    <g id="Group_152" data-name="Group 152">
      <g id="Group_151" data-name="Group 151">
        <g id="Group_150" data-name="Group 150">
          <path id="Path_352" data-name="Path 352" d="M283.94,206.36c.03.32-.23.6-.65.87-.12.08.02-1.73-.4-1.43-.12.09-5.93,4.61-9.17,3.77a.68.68,0,0,1-.48-.7v-.73c-.05-.82,1.18-2.08,3.04-3.89,2.05-1.99,3.35-3.24,6.41-1.47.87.5,1.23.88,1.23,1.21Z" fill="#080c01"/>
          <path id="Path_353" data-name="Path 353" d="M276.26,204.26c-2.47,2.41-3.82,3.83-2.55,4.57s3.81-.37,6.41-2.34c2.28-1.72,5.61-1.94,2.55-3.7S278.31,202.26,276.26,204.26Z" fill="#39355f"/>
        </g>
      </g>
      <path id="Path_354" data-name="Path 354" d="M278.75,203.11l.18-22.25,7.36,2.38-1.26,3.63a26.768,26.768,0,0,1-.93,9.75s-1.05,2.14-.84,7.13C283.25,203.74,280.55,205.28,278.75,203.11Z" fill="#dfaa86"/>
    </g>
    <path id="Path_355" data-name="Path 355" d="M295.98,181.49v8.22s-9.63,3.25-18.68-8.22v-7.95Z" fill="#7400ba"/>
    <path id="Path_356" data-name="Path 356" d="M291.41,184.66a.633.633,0,0,1-.31.1c-1.61.13-7.42-1.14-13.22-7.68a3.034,3.034,0,0,1-.79-1.88V156.64a3.048,3.048,0,0,1,1.3-2.83l4.36-2.55a3.055,3.055,0,0,1,3.11.28l5.95,3.44a9.7,9.7,0,0,1,4.37,7.57v18.67a.957.957,0,0,1-.42.89Z" fill="#ffffeb"/>
    <g id="Group_153" data-name="Group 153">
      <path id="Path_357" data-name="Path 357" d="M294.14,186.35h0a2.411,2.411,0,0,0,2.41-2.41V160.73a2.411,2.411,0,0,0-2.41-2.41h0a2.411,2.411,0,0,0-2.41,2.41v23.21A2.418,2.418,0,0,0,294.14,186.35Z" fill="#dfaa86"/>
    </g>
    <path id="Path_358" data-name="Path 358" d="M289.72,156.13a1.53,1.53,0,0,1-.9,1.28,4.829,4.829,0,0,1-4.35,0,1.518,1.518,0,0,1-.9-1.28v-4.04a1.53,1.53,0,0,1,.9-1.28,4.829,4.829,0,0,1,4.35,0,1.518,1.518,0,0,1,.9,1.28Z" fill="#cd8b68"/>
    <g id="Group_154" data-name="Group 154">
      <path id="Path_359" data-name="Path 359" d="M278.82,143.33l-3.04,11.81a1.38,1.38,0,0,0,1.86,1.62l7-2.91a1.37,1.37,0,0,0,.82-1.54l-2.29-11.62a1.38,1.38,0,0,0-2.53-.45l-1.67,2.72A1.512,1.512,0,0,0,278.82,143.33Z" fill="#813db6"/>
      <path id="Path_360" data-name="Path 360" d="M289.47,150.4c0,1.01.71,1.42,1.58.91a3.485,3.485,0,0,0,1.58-2.74c0-1.01-.71-1.42-1.58-.91A3.5,3.5,0,0,0,289.47,150.4Z" fill="#e6a984"/>
      <circle id="Ellipse_3" data-name="Ellipse 3" cx="8.47" cy="8.47" r="8.47" transform="translate(276.386 139.468) rotate(-14.377)" fill="#dfaa86"/>
      <path id="Path_361" data-name="Path 361" d="M294.92,146.71s-7.16,3.93-10.65-6.29a5.89,5.89,0,0,1-6.52,3.36,8.311,8.311,0,0,1,6.93-8.02S296.94,134.53,294.92,146.71Z" fill="#813db6"/>
      <path id="Path_362" data-name="Path 362" d="M290.98,147.04l-3.04,11.81a1.38,1.38,0,0,0,1.86,1.62l7-2.91a1.37,1.37,0,0,0,.82-1.54l-2.29-11.62a1.38,1.38,0,0,0-2.53-.45l-1.67,2.72A1.512,1.512,0,0,0,290.98,147.04Z" fill="#813db6"/>
    </g>
  </g>
  <g id="Group_167" data-name="Group 167" clip-path="url(#clip-path)">
    <g id="Group_157" data-name="Group 157">
      <path id="Path_363" data-name="Path 363" d="M223.67,193.14l-29.18,16.85c-2.13,1.23-5.88,1.07-8.34-.35l-13.44-7.67c-2.46-1.42-2.73-3.58-.6-4.81l29.18-16.85c2.13-1.23,5.88-1.07,8.34.35l13.44,7.67C225.53,189.75,225.8,191.91,223.67,193.14Z" fill="url(#linear-gradient-31)"/>
      <g id="Group_156" data-name="Group 156">
        <path id="Path_364" data-name="Path 364" d="M225.06,196.67v-5.23h0a2.626,2.626,0,0,1-1.4,1.7l-29.18,16.85a7.607,7.607,0,0,1-3.87.82v5.98a7.505,7.505,0,0,0,3.87-.82l29.18-16.85A2.332,2.332,0,0,0,225.06,196.67Z" fill="url(#linear-gradient-32)"/>
        <path id="Path_365" data-name="Path 365" d="M186.15,209.64l-13.44-7.67a3.708,3.708,0,0,1-1.99-2.36v5.23c-.22,1.06.46,2.23,1.99,3.11l13.44,7.67a9.611,9.611,0,0,0,4.47,1.16V210.8A9.462,9.462,0,0,1,186.15,209.64Z" fill="url(#linear-gradient-33)"/>
        <path id="Path_366" data-name="Path 366" d="M186.15,209.64l-13.44-7.67a3.708,3.708,0,0,1-1.99-2.36v5.23c-.22,1.06.46,2.23,1.99,3.11l13.44,7.67a9.611,9.611,0,0,0,4.47,1.16V210.8A9.462,9.462,0,0,1,186.15,209.64Z" fill="#c1cdf8"/>
      </g>
    </g>
    <g id="Group_164" data-name="Group 164">
      <g id="Group_160" data-name="Group 160">
        <g id="Group_158" data-name="Group 158">
          <path id="Path_367" data-name="Path 367" d="M247.34,243.57,197.33,214.7v12.99l50.01,28.87,50.01-28.87V214.7Z" fill="#83e8fe" fill-rule="evenodd"/>
        </g>
        <path id="Path_368" data-name="Path 368" d="M247.34,233.33l-53.15-30.68,53.15-30.69,53.15,30.69Z" fill="#fff" fill-rule="evenodd"/>
        <path id="Path_369" data-name="Path 369" d="M247.34,185.66l32.8,18.94,3.39-1.95-36.19-20.9-36.19,20.9,3.38,1.95Z" fill="#c1cdf8" fill-rule="evenodd"/>
        <path id="Path_370" data-name="Path 370" d="M247.34,185.66,214.53,204.6l32.81,18.94,32.8-18.94Z" fill-rule="evenodd" fill="url(#linear-gradient-34)"/>
        <path id="Path_371" data-name="Path 371" d="M247.34,191.86,222.84,206l24.5,14.14L271.83,206Z" fill="#c1cdf8" fill-rule="evenodd"/>
        <path id="Path_372" data-name="Path 372" d="M247.34,188.51l-24.5,14.14,24.5,14.14,24.49-14.14Z" fill="#fff" fill-rule="evenodd"/>
        <path id="Path_373" data-name="Path 373" d="M247.34,233.33l-53.15-30.68v10.23l53.15,30.69,53.15-30.69V202.65Z" fill-rule="evenodd" fill="url(#linear-gradient-35)"/>
        <g id="Group_159" data-name="Group 159">
          <path id="Path_374" data-name="Path 374" d="M247.59,190.07h-.02a11.552,11.552,0,0,1-9.06-4.91l-.08-.11a13.145,13.145,0,0,1,.03-15.08l8.02-10.28L236,146.06a6.961,6.961,0,0,1,.33-8.48l9.81-10.42-9.12-9.69a6.513,6.513,0,0,1-1.6-4.78,6.205,6.205,0,0,1,1.91-4.39l8.71-7.7-9.93-8.15a.894.894,0,0,1,1.15-1.37l10.14,8.33,10.45-9.09a.893.893,0,0,1,1.18,1.34l-10.24,8.91,8.81,7.37a6.128,6.128,0,0,1,2,4.36,6.589,6.589,0,0,1-1.6,4.88l-9.4,9.98,10.17,10.8a6.948,6.948,0,0,1,.3,8.51l-10.32,13.24L256.66,170a13.284,13.284,0,0,1-.03,15.2A11.513,11.513,0,0,1,247.59,190.07Zm.02-28.91-7.73,9.92a11.236,11.236,0,0,0-.03,12.88l.08.11a9.774,9.774,0,0,0,7.64,4.21h.01a9.763,9.763,0,0,0,7.63-4.18,11.374,11.374,0,0,0,.02-13.01Zm-.24-32.7-9.74,10.35a5.2,5.2,0,0,0-.21,6.16l10.2,13.27,10.04-12.87a5.188,5.188,0,0,0-.2-6.18Zm.06-26.7-8.91,7.88a4.478,4.478,0,0,0-1.31,3.12,4.789,4.789,0,0,0,1.12,3.47l9.05,9.61,9.32-9.9a4.783,4.783,0,0,0,1.11-3.55,4.36,4.36,0,0,0-1.36-3.09Z" fill="url(#linear-gradient-36)"/>
          <path id="Path_375" data-name="Path 375" d="M239.76,112.84a3.24,3.24,0,1,1-3.24-3.24A3.239,3.239,0,0,1,239.76,112.84Z" fill="#83e8fe"/>
          <path id="Path_376" data-name="Path 376" d="M261.83,112.84a3.24,3.24,0,1,1-3.24-3.24A3.239,3.239,0,0,1,261.83,112.84Z" fill="#83e8fe"/>
          <circle id="Ellipse_4" data-name="Ellipse 4" cx="3.24" cy="3.24" r="3.24" transform="translate(232.45 139.07)" fill="#83e8fe"/>
          <path id="Path_377" data-name="Path 377" d="M262.54,142.31a3.24,3.24,0,1,1-3.24-3.24A3.239,3.239,0,0,1,262.54,142.31Z" fill="#83e8fe"/>
          <path id="Path_378" data-name="Path 378" d="M250.79,159.26a3.24,3.24,0,1,1-3.24-3.24A3.239,3.239,0,0,1,250.79,159.26Z" fill="#83e8fe"/>
          <path id="Path_379" data-name="Path 379" d="M250.47,127.54a3.24,3.24,0,1,1-3.24-3.24A3.239,3.239,0,0,1,250.47,127.54Z" fill="#83e8fe"/>
          <path id="Path_380" data-name="Path 380" d="M250.79,100.45a3.24,3.24,0,1,1-3.24-3.24A3.239,3.239,0,0,1,250.79,100.45Z" fill="#83e8fe"/>
          <path id="Path_381" data-name="Path 381" d="M261.83,90.95a3.24,3.24,0,1,1-3.24-3.24A3.239,3.239,0,0,1,261.83,90.95Z" fill="#83e8fe"/>
          <circle id="Ellipse_5" data-name="Ellipse 5" cx="3.24" cy="3.24" r="3.24" transform="translate(232.45 89.22)" fill="#83e8fe"/>
        </g>
        <path id="Path_382" data-name="Path 382" d="M230.72,202.33l16.62,9.59,16.62-9.59V74.13l-16.62-9.59-16.62,9.59Z" fill-rule="evenodd" fill="url(#linear-gradient-37)"/>
      </g>
      <g id="Group_163" data-name="Group 163">
        <g id="Group_161" data-name="Group 161">
          <path id="Path_383" data-name="Path 383" d="M279.88,254.75a.308.308,0,0,1-.13-.03l-14.32-8.46a.235.235,0,0,1-.12-.21V222.97l-8.35-4.83a.249.249,0,1,1,.25-.43l8.47,4.9a.235.235,0,0,1,.12.21v23.09L280,254.3a.247.247,0,0,1,.09.34A.292.292,0,0,1,279.88,254.75Z" fill="#4981fb"/>
          <path id="Path_384" data-name="Path 384" d="M285.27,251.57a.308.308,0,0,1-.13-.03l-14.32-8.46a.257.257,0,0,1-.12-.21V219.79l-8.23-4.76a.249.249,0,1,1,.25-.43l8.36,4.83a.235.235,0,0,1,.12.21v23.09l14.2,8.39a.247.247,0,0,1,.09.34A.265.265,0,0,1,285.27,251.57Z" fill="#4981fb"/>
          <path id="Path_385" data-name="Path 385" d="M290.67,248.39a.308.308,0,0,1-.13-.03l-14.32-8.46a.235.235,0,0,1-.12-.21V216.6l-8.25-4.77a.249.249,0,1,1,.25-.43l8.37,4.84a.235.235,0,0,1,.12.21v23.09l14.2,8.38a.247.247,0,0,1,.09.34A.217.217,0,0,1,290.67,248.39Z" fill="#4981fb"/>
          <path id="Path_386" data-name="Path 386" d="M296.07,245.21a.308.308,0,0,1-.13-.03l-14.32-8.46a.235.235,0,0,1-.12-.21V213.43l-8.19-4.74a.249.249,0,1,1,.25-.43l8.31,4.81a.235.235,0,0,1,.12.21v23.09l14.2,8.39a.247.247,0,0,1,.09.34A.236.236,0,0,1,296.07,245.21Z" fill="#4981fb"/>
        </g>
        <g id="Group_162" data-name="Group 162">
          <path id="Path_387" data-name="Path 387" d="M220.92,197.25a.237.237,0,0,1-.12-.03l-8.47-4.98a.249.249,0,1,1,.25-.43l8.47,4.98a.247.247,0,0,1,.09.34A.276.276,0,0,1,220.92,197.25Z" fill="#4981fb"/>
          <path id="Path_388" data-name="Path 388" d="M226.37,194.11a.237.237,0,0,1-.12-.03l-8.53-5.01a.249.249,0,0,1,.25-.43l8.53,5.01a.247.247,0,0,1,.09.34A.307.307,0,0,1,226.37,194.11Z" fill="#4981fb"/>
          <path id="Path_389" data-name="Path 389" d="M231.82,190.96a.237.237,0,0,1-.12-.03l-8.58-5.04a.249.249,0,0,1,.25-.43l8.58,5.04a.247.247,0,0,1,.09.34A.276.276,0,0,1,231.82,190.96Z" fill="#4981fb"/>
          <path id="Path_390" data-name="Path 390" d="M237.27,187.81a.237.237,0,0,1-.12-.03l-8.63-5.07a.249.249,0,0,1,.25-.43l8.63,5.07a.247.247,0,0,1,.09.34A.263.263,0,0,1,237.27,187.81Z" fill="#4981fb"/>
        </g>
      </g>
    </g>
    <g id="Group_166" data-name="Group 166">
      <path id="Path_391" data-name="Path 391" d="M321.85,249.5l-29.18,16.85c-2.13,1.23-5.88,1.07-8.34-.35l-13.44-7.67c-2.46-1.42-2.73-3.58-.6-4.81l29.18-16.85c2.13-1.23,5.88-1.07,8.34.35l13.44,7.67C323.71,246.11,323.98,248.27,321.85,249.5Z" fill="#fff"/>
      <g id="Group_165" data-name="Group 165">
        <path id="Path_392" data-name="Path 392" d="M323.25,253.03V247.8h0a2.626,2.626,0,0,1-1.4,1.7l-29.18,16.85a7.607,7.607,0,0,1-3.87.82v5.98a7.505,7.505,0,0,0,3.87-.82l29.18-16.85A2.359,2.359,0,0,0,323.25,253.03Z" fill="url(#linear-gradient-38)"/>
        <path id="Path_393" data-name="Path 393" d="M284.33,266.01l-13.44-7.67a3.708,3.708,0,0,1-1.99-2.36v5.23c-.22,1.06.46,2.23,1.99,3.11l13.44,7.67a9.6,9.6,0,0,0,4.46,1.16v-5.98A9.725,9.725,0,0,1,284.33,266.01Z" fill="url(#linear-gradient-39)"/>
        <path id="Path_394" data-name="Path 394" d="M284.33,266.01l-13.44-7.67a3.708,3.708,0,0,1-1.99-2.36v5.23c-.22,1.06.46,2.23,1.99,3.11l13.44,7.67a9.6,9.6,0,0,0,4.46,1.16v-5.98A9.725,9.725,0,0,1,284.33,266.01Z" fill="#c1cdf8"/>
      </g>
    </g>
  </g>
  <g id="Group_176" data-name="Group 176" clip-path="url(#clip-path)">
    <g id="Group_171" data-name="Group 171">
      <g id="Group_169" data-name="Group 169">
        <g id="Group_168" data-name="Group 168">
          <path id="Path_395" data-name="Path 395" d="M145.35,209.37l-20.46,11.81L83.07,197.04l20.46-11.81Z" fill="#fff"/>
          <path id="Path_396" data-name="Path 396" d="M145.35,209.37v37.15l-20.46,11.81V221.18Z" fill="url(#linear-gradient-40)"/>
          <path id="Path_397" data-name="Path 397" d="M83.07,197.04v37.15l41.82,24.14V221.18Z" fill="#c1cdf8"/>
        </g>
      </g>
      <g id="Group_170" data-name="Group 170">
        <path id="Path_398" data-name="Path 398" d="M98.4,202.39l19.64,11.3,15.06-8.21L113,193.98Z" fill="url(#linear-gradient-41)"/>
        <path id="Path_399" data-name="Path 399" d="M98.4,202.39,95.31,182.7l21.8,12.57.93,18.42Z" fill="#c1cdf8"/>
      </g>
    </g>
    <g id="Group_175" data-name="Group 175">
      <g id="Group_173" data-name="Group 173">
        <g id="Group_172" data-name="Group 172">
          <path id="Path_400" data-name="Path 400" d="M263.25,278.33l-20.46,11.81L200.98,266l20.46-11.81Z" fill="#fff"/>
          <path id="Path_401" data-name="Path 401" d="M263.25,278.33v37.15l-20.46,11.81V290.14Z" fill="url(#linear-gradient-42)"/>
          <path id="Path_402" data-name="Path 402" d="M200.98,266v37.15l41.81,24.14V290.14Z" fill="#c1cdf8"/>
        </g>
      </g>
      <g id="Group_174" data-name="Group 174">
        <path id="Path_403" data-name="Path 403" d="M216.31,271.36l19.64,11.3,15.06-8.22-20.1-11.5Z" fill="url(#linear-gradient-43)"/>
        <path id="Path_404" data-name="Path 404" d="M216.31,271.36l-3.09-19.69,21.8,12.57.93,18.42Z" fill="#c1cdf8"/>
      </g>
    </g>
  </g>
  <g id="Group_183" data-name="Group 183" clip-path="url(#clip-path)">
    <g id="Group_177" data-name="Group 177">
      <path id="Path_405" data-name="Path 405" d="M320.85,254.58h0a2.363,2.363,0,0,1-2.73-1.9l-1.71-9.57a2.363,2.363,0,0,1,1.9-2.73h0a2.363,2.363,0,0,1,2.73,1.9l1.71,9.57A2.365,2.365,0,0,1,320.85,254.58Z" fill="#e6a984"/>
      <path id="Path_406" data-name="Path 406" d="M322.81,244.9l-1.04-5.83a3.647,3.647,0,0,0-4.22-2.94h0a3.647,3.647,0,0,0-2.94,4.22l1.04,5.83S318.76,249.04,322.81,244.9Z" fill="#675bda"/>
      <path id="Path_407" data-name="Path 407" d="M331.35,255.42h0a2.369,2.369,0,0,1-2.95,1.54l-8.11-2.36a2.35,2.35,0,0,1-2.19-2.5h0a2.347,2.347,0,0,1,2.49-2.19l9.21,2.57A2.336,2.336,0,0,1,331.35,255.42Z" fill="#e6a984"/>
    </g>
    <g id="Group_179" data-name="Group 179">
      <g id="Group_178" data-name="Group 178">
        <path id="Path_408" data-name="Path 408" d="M306.1,292.72c-.1,1.02,2.35,1.66,4.41,2.85,2.86,1.65,5.95,2.55,7.41,1.7a.963.963,0,0,0,.56-.81v-1.68c.05-.95-1.36-2.4-3.51-4.49-2.37-2.31-3.88-3.75-7.41-1.7-1.01.58-1.42,1.02-1.42,1.39Z" fill="#080c01"/>
        <path id="Path_409" data-name="Path 409" d="M314.98,290.29c2.86,2.79,4.42,4.43,2.95,5.28s-4.4-.43-7.41-2.7c-2.64-1.99-6.49-2.24-2.95-4.28S312.61,287.99,314.98,290.29Z" fill="#22223a"/>
      </g>
      <path id="Path_410" data-name="Path 410" d="M312.69,288.27a1.6,1.6,0,0,0,.16-.71V263.01c0-1.55-1.6-2.82-3.56-2.82h0c-1.96,0-3.56,1.27-3.56,2.82V289.7a.913.913,0,0,0,.63.86C307.74,290.98,310.97,291.57,312.69,288.27Z" fill="#4981fb"/>
    </g>
    <g id="Group_181" data-name="Group 181">
      <g id="Group_180" data-name="Group 180">
        <path id="Path_411" data-name="Path 411" d="M313.8,287.05c-.1,1.02,2.35,1.66,4.41,2.85,2.86,1.65,5.95,2.55,7.41,1.7a.963.963,0,0,0,.56-.81v-1.68c.05-.95-1.36-2.4-3.51-4.49-2.37-2.31-3.88-3.75-7.41-1.7-1.01.58-1.42,1.02-1.42,1.39Z" fill="#080c01"/>
        <path id="Path_412" data-name="Path 412" d="M322.68,284.62c2.86,2.79,4.42,4.43,2.95,5.28s-4.4-.43-7.41-2.7c-2.64-1.99-6.49-2.24-2.95-4.28S320.31,282.31,322.68,284.62Z" fill="#22223a"/>
      </g>
      <path id="Path_413" data-name="Path 413" d="M320.39,282.6a1.6,1.6,0,0,0,.16-.71V257.34c0-1.55-1.6-2.82-3.56-2.82h0c-1.96,0-3.56,1.27-3.56,2.82v26.69a.913.913,0,0,0,.63.86C315.44,285.3,318.67,285.89,320.39,282.6Z" fill="#4556c5"/>
    </g>
    <path id="Path_414" data-name="Path 414" d="M306.91,267.43a.63.63,0,0,0,.3.1c1.57.12,7.23-1.11,12.88-7.48a2.935,2.935,0,0,0,.77-1.83V240.13a2.981,2.981,0,0,0-1.27-2.76l-4.25-2.48a2.956,2.956,0,0,0-3.03.28l-5.8,3.35a9.45,9.45,0,0,0-4.26,7.38v18.19a.927.927,0,0,0,.41.87Z" fill="#b5b8fc"/>
    <path id="Path_415" data-name="Path 415" d="M308.56,239.63a1.459,1.459,0,0,0,.88,1.24,4.661,4.661,0,0,0,4.24,0,1.478,1.478,0,0,0,.88-1.24v-3.94a1.459,1.459,0,0,0-.88-1.24,4.661,4.661,0,0,0-4.24,0,1.478,1.478,0,0,0-.88,1.24Z" fill="#d5a69b"/>
    <circle id="Ellipse_6" data-name="Ellipse 6" cx="8.26" cy="8.26" r="8.26" transform="translate(300.85 224.7) rotate(-21.341)" fill="#edc3b6"/>
    <path id="Path_416" data-name="Path 416" d="M304.67,219.63c-7.06,2.42-3.55,12.73,1.59,16.45,2.51-1.37-.54-3.83,2.88-2.12.68-3.32-.85-2.31.08-6.48,3.59,1.87,10.57-.4,11.66-3.86-1.25-.56-2.56-4.1-5.48-5.41C311.62,216.54,306.81,217.28,304.67,219.63Z" fill="#cf8720" fill-rule="evenodd"/>
    <path id="Path_417" data-name="Path 417" d="M308.8,234.04c0,.98-.69,1.38-1.54.89a3.412,3.412,0,0,1-1.54-2.67c0-.98.69-1.38,1.54-.89A3.4,3.4,0,0,1,308.8,234.04Z" fill="#edc3b6"/>
    <path id="Path_418" data-name="Path 418" d="M305.75,255.43l12.93,7.46,12.93-7.46v-5.68l-12.93-7.47-12.93,7.47Z" fill="#c1cdf8" fill-rule="evenodd"/>
    <path id="Path_419" data-name="Path 419" d="M318.68,242.28l-12.93,7.47,12.93,7.31,12.93-7.31Z" fill="#fff" fill-rule="evenodd"/>
    <g id="Group_182" data-name="Group 182">
      <path id="Path_420" data-name="Path 420" d="M306.15,260.33h0a2.361,2.361,0,0,1-2.66-1.99l-1.38-9.63a2.361,2.361,0,0,1,1.99-2.66h0a2.361,2.361,0,0,1,2.66,1.99l1.38,9.63A2.368,2.368,0,0,1,306.15,260.33Z" fill="#e6a984"/>
      <path id="Path_421" data-name="Path 421" d="M308.44,250.72l-.84-5.86a3.632,3.632,0,0,0-4.11-3.08h0a3.632,3.632,0,0,0-3.08,4.11l.84,5.86S304.25,254.72,308.44,250.72Z" fill="#675bda"/>
      <path id="Path_422" data-name="Path 422" d="M319.15,262.5h0a2.356,2.356,0,0,1-3,1.43l-10.56-3.62a2.346,2.346,0,0,1-2.1-2.57h0a2.346,2.346,0,0,1,2.57-2.1l11.66,3.86A2.356,2.356,0,0,1,319.15,262.5Z" fill="#e6a984"/>
    </g>
  </g>
  <g id="Group_194" data-name="Group 194" clip-path="url(#clip-path)">
    <g id="Group_188" data-name="Group 188">
      <path id="Path_423" data-name="Path 423" d="M67.04,263l-21.1,12.18a5.109,5.109,0,0,0-2.08,6.58l6.65,14.34a5.118,5.118,0,0,0,3.85,2.9l31.99,4.95a5.123,5.123,0,0,0,3.34-.62l21.1-12.18a5.119,5.119,0,0,0,2.08-6.58l-6.65-14.34a5.118,5.118,0,0,0-3.85-2.9l-31.99-4.95A5.111,5.111,0,0,0,67.04,263Z" fill="#fff"/>
      <g id="Group_184" data-name="Group 184">
        <path id="Path_424" data-name="Path 424" d="M113.34,286.69a5.078,5.078,0,0,1-2.54,4.45L89.7,303.32a5.123,5.123,0,0,1-3.34.62L54.37,299a5.084,5.084,0,0,1-3.85-2.9l-6.65-14.34a5.041,5.041,0,0,1-.46-1.79V446.12a5.051,5.051,0,0,0,.46,2.13l6.65,14.34a5.118,5.118,0,0,0,3.85,2.9l31.99,4.95a5.123,5.123,0,0,0,3.34-.62l21.1-12.18a5.108,5.108,0,0,0,2.54-4.78Z" fill="url(#linear-gradient-44)"/>
      </g>
      <g id="Group_185" data-name="Group 185">
        <path id="Path_425" data-name="Path 425" d="M89.7,286.38a5.123,5.123,0,0,1-3.34.62l-31.99-4.95a5.084,5.084,0,0,1-3.85-2.9l-.37-.8v2.01a4.131,4.131,0,0,0,.37,1.67l5.37,11.57A4.128,4.128,0,0,0,59,295.94l25.82,3.99a4.131,4.131,0,0,0,2.69-.5l17.03-9.83a4.126,4.126,0,0,0,2.05-3.85v-9.13Z" fill="#83e8fe"/>
      </g>
      <g id="Group_187" data-name="Group 187">
        <path id="Path_426" data-name="Path 426" d="M67.04,238.96l-21.1,12.18a5.109,5.109,0,0,0-2.08,6.58l6.65,14.34a5.118,5.118,0,0,0,3.85,2.9l31.99,4.95a5.123,5.123,0,0,0,3.34-.62l21.1-12.18a5.119,5.119,0,0,0,2.08-6.58l-6.65-14.34a5.118,5.118,0,0,0-3.85-2.9l-31.99-4.95A5.111,5.111,0,0,0,67.04,238.96Z" fill="#fff"/>
        <g id="Group_186" data-name="Group 186">
          <path id="Path_427" data-name="Path 427" d="M113.34,262.65a5.078,5.078,0,0,1-2.54,4.45L89.7,279.28a5.123,5.123,0,0,1-3.34.62l-31.99-4.95a5.084,5.084,0,0,1-3.85-2.9l-6.65-14.34a5.041,5.041,0,0,1-.46-1.79v6.76a5.051,5.051,0,0,0,.46,2.13l6.65,14.34a5.118,5.118,0,0,0,3.85,2.9l32,4.95a5.123,5.123,0,0,0,3.34-.62l21.1-12.18a5.108,5.108,0,0,0,2.54-4.78v-6.77Z" fill="url(#linear-gradient-45)"/>
        </g>
        <path id="Path_428" data-name="Path 428" d="M69.22,242.85l-17.03,9.83a4.126,4.126,0,0,0-1.68,5.31l5.37,11.57a4.128,4.128,0,0,0,3.11,2.34l25.82,3.99a4.131,4.131,0,0,0,2.69-.5l17.03-9.83a4.126,4.126,0,0,0,1.68-5.31l-5.37-11.57a4.128,4.128,0,0,0-3.11-2.34l-25.82-4A4.159,4.159,0,0,0,69.22,242.85Z" fill="url(#linear-gradient-46)"/>
        <path id="Path_429" data-name="Path 429" d="M52.2,255.2l17.03-9.83a4.07,4.07,0,0,1,2.69-.5l25.82,4a4.128,4.128,0,0,1,3.11,2.34l5.37,11.57a4.242,4.242,0,0,1,.18.5,4.121,4.121,0,0,0-.18-3.02l-5.37-11.57a4.128,4.128,0,0,0-3.11-2.34l-25.82-4a4.131,4.131,0,0,0-2.69.5L52.2,252.68a4.129,4.129,0,0,0-1.86,4.81A4.067,4.067,0,0,1,52.2,255.2Z" fill="url(#linear-gradient-47)"/>
      </g>
    </g>
    <g id="Group_193" data-name="Group 193">
      <path id="Path_430" data-name="Path 430" d="M186.95,331.07l-21.1,12.18a5.119,5.119,0,0,0-2.08,6.58l6.65,14.34a5.117,5.117,0,0,0,3.86,2.9l31.99,4.95a5.123,5.123,0,0,0,3.34-.62l21.1-12.18a5.119,5.119,0,0,0,2.08-6.58l-6.65-14.34a5.118,5.118,0,0,0-3.85-2.9l-31.99-4.95A5.02,5.02,0,0,0,186.95,331.07Z" fill="#fff"/>
      <g id="Group_189" data-name="Group 189">
        <path id="Path_431" data-name="Path 431" d="M233.25,354.75a5.078,5.078,0,0,1-2.54,4.45l-21.1,12.18a5.123,5.123,0,0,1-3.34.62l-31.99-4.95a5.117,5.117,0,0,1-3.86-2.9l-6.65-14.34a5.041,5.041,0,0,1-.46-1.79V514.17a4.975,4.975,0,0,0,.46,2.12l6.65,14.34a5.117,5.117,0,0,0,3.86,2.9l31.99,4.95a5.122,5.122,0,0,0,3.34-.62l21.1-12.18a5.108,5.108,0,0,0,2.54-4.78Z" fill="url(#linear-gradient-48)"/>
      </g>
      <g id="Group_190" data-name="Group 190">
        <path id="Path_432" data-name="Path 432" d="M209.62,354.44a5.123,5.123,0,0,1-3.34.62l-31.99-4.95a5.117,5.117,0,0,1-3.86-2.9l-.37-.8v2.01a4.131,4.131,0,0,0,.37,1.67l5.37,11.57a4.128,4.128,0,0,0,3.11,2.34l25.82,4a4.131,4.131,0,0,0,2.69-.5l17.03-9.83a4.126,4.126,0,0,0,2.05-3.85v-9.13Z" fill="#83e8fe"/>
      </g>
      <g id="Group_192" data-name="Group 192">
        <path id="Path_433" data-name="Path 433" d="M186.95,307.03l-21.1,12.18a5.119,5.119,0,0,0-2.08,6.58l6.65,14.34a5.117,5.117,0,0,0,3.86,2.9l31.99,4.95a5.123,5.123,0,0,0,3.34-.62l21.1-12.18a5.119,5.119,0,0,0,2.08-6.58l-6.65-14.34a5.118,5.118,0,0,0-3.85-2.9l-31.99-4.95A5.14,5.14,0,0,0,186.95,307.03Z" fill="#fff"/>
        <g id="Group_191" data-name="Group 191">
          <path id="Path_434" data-name="Path 434" d="M233.25,330.71a5.078,5.078,0,0,1-2.54,4.45l-21.1,12.18a5.123,5.123,0,0,1-3.34.62l-31.99-4.95a5.117,5.117,0,0,1-3.86-2.9l-6.65-14.34a5.041,5.041,0,0,1-.46-1.79v6.76a4.975,4.975,0,0,0,.46,2.12l6.65,14.34a5.117,5.117,0,0,0,3.86,2.9l31.99,4.95a5.123,5.123,0,0,0,3.34-.62l21.1-12.18a5.108,5.108,0,0,0,2.54-4.78Z" fill="url(#linear-gradient-49)"/>
        </g>
        <path id="Path_435" data-name="Path 435" d="M189.14,310.92l-17.03,9.83a4.125,4.125,0,0,0-1.68,5.31l5.37,11.57a4.128,4.128,0,0,0,3.11,2.34l25.82,4a4.131,4.131,0,0,0,2.69-.5l17.03-9.83a4.125,4.125,0,0,0,1.68-5.31l-5.37-11.57a4.128,4.128,0,0,0-3.11-2.34l-25.82-3.99A4.006,4.006,0,0,0,189.14,310.92Z" fill="url(#linear-gradient-50)"/>
        <path id="Path_436" data-name="Path 436" d="M172.11,323.26l17.03-9.83a4.07,4.07,0,0,1,2.69-.5l25.82,3.99a4.128,4.128,0,0,1,3.11,2.34l5.37,11.57a4.242,4.242,0,0,1,.18.5,4.121,4.121,0,0,0-.18-3.02l-5.37-11.57a4.128,4.128,0,0,0-3.11-2.34l-25.82-3.99a4.131,4.131,0,0,0-2.69.5l-17.03,9.83a4.129,4.129,0,0,0-1.86,4.81A4.175,4.175,0,0,1,172.11,323.26Z" fill="url(#linear-gradient-51)"/>
      </g>
    </g>
  </g>
  <g id="Group_206" data-name="Group 206" clip-path="url(#clip-path)">
    <g id="Group_204" data-name="Group 204">
      <g id="Group_202" data-name="Group 202">
        <g id="Group_195" data-name="Group 195">
          <path id="Path_437" data-name="Path 437" d="M170.77,324.53h0a2.357,2.357,0,0,0,3.09-1.23l3.85-8.93a2.357,2.357,0,0,0-1.23-3.09h0a2.357,2.357,0,0,0-3.09,1.23l-3.85,8.93A2.357,2.357,0,0,0,170.77,324.53Z" fill="#794458"/>
          <path id="Path_438" data-name="Path 438" d="M171.07,314.66l2.35-5.43a3.641,3.641,0,0,1,4.78-1.89h0a3.654,3.654,0,0,1,1.9,4.78l-2.35,5.43C177.74,317.54,174.07,319.61,171.07,314.66Z" fill="#c1cdf8"/>
          <path id="Path_439" data-name="Path 439" d="M157.65,323.21h0a2.365,2.365,0,0,0,2.52,2.17l11.14-.72a2.366,2.366,0,0,0,2.71-1.93h0a2.366,2.366,0,0,0-1.93-2.71l-12.26.66A2.374,2.374,0,0,0,157.65,323.21Z" fill="#794458"/>
        </g>
        <g id="Group_196" data-name="Group 196">
          <path id="Path_440" data-name="Path 440" d="M182.31,334.72a1.769,1.769,0,0,1-.58.54l-13.37,7.65c-1.46.84-3.51.02-4.56-1.82h0c-1.05-1.84-.72-4.02.73-4.86l15.38-8.8a.981.981,0,0,1,1.15.13C182.18,328.62,184.47,331.34,182.31,334.72Z" fill="#31314f"/>
        </g>
        <g id="Group_197" data-name="Group 197">
          <path id="Path_441" data-name="Path 441" d="M191.16,339.26a1.769,1.769,0,0,1-.58.54l-13.37,7.65c-1.46.84-3.51.02-4.56-1.82h0c-1.05-1.84-.72-4.02.73-4.86l15.38-8.8a.981.981,0,0,1,1.15.13C191.03,333.15,193.33,335.87,191.16,339.26Z" fill="#48486a"/>
        </g>
        <g id="Group_199" data-name="Group 199">
          <g id="Group_198" data-name="Group 198">
            <path id="Path_442" data-name="Path 442" d="M170.25,362.27c.11,1.11-2.54,1.8-4.77,3.08-3.1,1.79-6.43,2.76-8.02,1.84a1.069,1.069,0,0,1-.61-.87V364.5c-.06-1.03,1.47-2.6,3.8-4.86,2.56-2.5,4.19-4.05,8.02-1.84,1.09.63,1.53,1.1,1.54,1.51Z" fill="#080c01"/>
            <path id="Path_443" data-name="Path 443" d="M160.64,359.65c-3.09,3.01-4.78,4.8-3.19,5.71s4.76-.46,8.02-2.93c2.85-2.16,7.02-2.42,3.19-4.63S163.21,357.15,160.64,359.65Z" fill="#22223a"/>
          </g>
          <path id="Path_444" data-name="Path 444" d="M163.12,357.46a1.708,1.708,0,0,1-.18-.77V338.8c0-1.68,1.73-3.05,3.85-3.05h0c2.12,0,3.85,1.37,3.85,3.05v20.21a.979.979,0,0,1-.68.93C168.48,360.38,164.98,361.02,163.12,357.46Z" fill="#31314f"/>
        </g>
        <path id="Path_445" data-name="Path 445" d="M189.83,340.82a.681.681,0,0,1-.33.11c-1.7.13-7.82-1.2-13.94-8.1a3.233,3.233,0,0,1-.83-1.98V311.28a3.245,3.245,0,0,1,1.37-2.99l4.6-2.68a3.21,3.21,0,0,1,3.28.3l6.27,3.62a10.224,10.224,0,0,1,4.61,7.98v19.68a.994.994,0,0,1-.44.94Z" fill="#fff"/>
        <g id="Group_201" data-name="Group 201">
          <g id="Group_200" data-name="Group 200">
            <path id="Path_446" data-name="Path 446" d="M179.41,366.33c.11,1.11-2.54,1.8-4.77,3.08-3.1,1.79-6.43,2.76-8.02,1.84a1.069,1.069,0,0,1-.61-.87v-1.82c-.06-1.03,1.47-2.6,3.8-4.86,2.56-2.5,4.19-4.05,8.02-1.84,1.09.63,1.53,1.1,1.54,1.51Z" fill="#080c01"/>
            <path id="Path_447" data-name="Path 447" d="M169.81,363.7c-3.09,3.01-4.78,4.8-3.19,5.71s4.76-.46,8.02-2.93c2.85-2.16,7.02-2.42,3.19-4.63S172.37,361.2,169.81,363.7Z" fill="#22223a"/>
          </g>
          <path id="Path_448" data-name="Path 448" d="M172.29,361.51a1.708,1.708,0,0,1-.18-.77V342.85c0-1.68,1.73-3.05,3.85-3.05h0c2.12,0,3.85,1.37,3.85,3.05v20.21a.979.979,0,0,1-.68.93C177.65,364.44,174.15,365.08,172.29,361.51Z" fill="#48486a"/>
        </g>
        <path id="Path_449" data-name="Path 449" d="M189.14,310.75a1.617,1.617,0,0,1-.95,1.35,5.084,5.084,0,0,1-4.59,0,1.6,1.6,0,0,1-.95-1.35v-4.26a1.617,1.617,0,0,1,.95-1.35,5.084,5.084,0,0,1,4.59,0,1.6,1.6,0,0,1,.95,1.35Z" fill="#794458"/>
        <path id="Path_450" data-name="Path 450" d="M176.96,299.68a8.93,8.93,0,1,0,8.93-8.93A8.932,8.932,0,0,0,176.96,299.68Z" fill="url(#linear-gradient-52)"/>
        <path id="Path_451" data-name="Path 451" d="M190.69,306.68a7.058,7.058,0,0,1-1.84-2.98.78.78,0,0,1-.03-.22V299.2a4.649,4.649,0,0,0-.65-2.42,1.973,1.973,0,0,0-1.74-1.11s-7.17,3.12-9.85-2.71a.79.79,0,0,1,.51-1.1c.51-.12,1.19-.56,1.94-1.78a.793.793,0,0,1,.85-.37,3.16,3.16,0,0,0,3.22-1.19.745.745,0,0,1,.59-.25c1.36.03,6.08.25,8.65,2.11a.218.218,0,0,1,.05.04c.55.45,9.42,8.01-.63,16.28A.776.776,0,0,1,190.69,306.68Z" fill="#4b486c"/>
        <path id="Path_452" data-name="Path 452" d="M188.88,304.7c0,1.07.75,1.5,1.67.96a3.7,3.7,0,0,0,1.67-2.89c0-1.07-.75-1.5-1.67-.96A3.681,3.681,0,0,0,188.88,304.7Z" fill="#995e73"/>
      </g>
      <g id="Group_203" data-name="Group 203">
        <path id="Path_453" data-name="Path 453" d="M163.53,335.24l15.92,9.16,12.21-6.66-16.29-9.33Z" fill="url(#linear-gradient-53)"/>
        <path id="Path_454" data-name="Path 454" d="M163.53,335.24l-2.51-15.97,17.68,10.19.75,14.94Z" fill="#c1cdf8"/>
      </g>
    </g>
    <g id="Group_205" data-name="Group 205">
      <path id="Path_455" data-name="Path 455" d="M190.05,332.89h0a2.361,2.361,0,0,0,2.66-1.99l1.38-9.63a2.361,2.361,0,0,0-1.99-2.66h0a2.361,2.361,0,0,0-2.66,1.99l-1.38,9.63A2.348,2.348,0,0,0,190.05,332.89Z" fill="#995e73"/>
      <path id="Path_456" data-name="Path 456" d="M187.75,323.29l.84-5.86a3.632,3.632,0,0,1,4.11-3.08h0a3.632,3.632,0,0,1,3.08,4.11l-.84,5.86S191.94,327.28,187.75,323.29Z" fill="#c1cdf8"/>
      <path id="Path_457" data-name="Path 457" d="M177.04,335.06h0a2.356,2.356,0,0,0,3,1.43l10.56-3.62a2.346,2.346,0,0,0,2.1-2.57h0a2.346,2.346,0,0,0-2.57-2.1l-11.66,3.86A2.363,2.363,0,0,0,177.04,335.06Z" fill="#995e73"/>
    </g>
  </g>
  <g id="Group_213" data-name="Group 213" clip-path="url(#clip-path)">
    <g id="Group_207" data-name="Group 207">
      <path id="Path_458" data-name="Path 458" d="M124.55,180.97c-.06,1.03,1.49,2.46,3.84,3.82,3.13,1.81,4.24,4.1,8.12,1.87,1.11-.64,1.57-1.15,1.6-1.59v-2.41c.11-1.12-2.58-1.82-4.83-3.12-3.13-1.81-6.51-2.79-8.12-1.87a1.056,1.056,0,0,0-.61.89v2.41Z"/>
      <path id="Path_459" data-name="Path 459" d="M128.39,182.36c-3.13-1.81-4.84-3.76-3.23-4.69s4.98.06,8.12,1.87,7.11,2.45,3.23,4.69S131.53,184.17,128.39,182.36Z" fill="#2b155e"/>
    </g>
    <g id="Group_208" data-name="Group 208">
      <path id="Path_460" data-name="Path 460" d="M133.26,174.97c-.06,1.03,1.49,2.46,3.84,3.82,3.13,1.81,4.24,4.1,8.12,1.87,1.11-.64,1.57-1.15,1.6-1.59v-2.41c.11-1.12-2.58-1.82-4.83-3.12-3.13-1.81-6.51-2.79-8.12-1.87a1.056,1.056,0,0,0-.61.89Z"/>
      <path id="Path_461" data-name="Path 461" d="M137.11,176.36c-3.13-1.81-4.84-3.76-3.23-4.69s4.98.06,8.12,1.87,7.11,2.45,3.23,4.69S140.24,178.17,137.11,176.36Z" fill="#2b155e"/>
    </g>
    <g id="Group_209" data-name="Group 209">
      <path id="Path_462" data-name="Path 462" d="M136.1,102.75h0a2.57,2.57,0,0,1,3.21,1.7l5.9,19.2a2.57,2.57,0,0,1-1.7,3.21h0a2.57,2.57,0,0,1-3.21-1.7l-5.9-19.2A2.57,2.57,0,0,1,136.1,102.75Z" fill="#dfaa86"/>
      <path id="Path_463" data-name="Path 463" d="M138.03,122.55l1.9,6.2a3.981,3.981,0,0,0,4.97,2.63h0a3.981,3.981,0,0,0,2.63-4.97l-1.9-6.2S141.88,117.52,138.03,122.55Z" fill="#4981fb"/>
    </g>
    <g id="Group_210" data-name="Group 210">
      <path id="Path_464" data-name="Path 464" d="M138,181.56a1.75,1.75,0,0,0,.18-.78V153.9c0-1.7-1.75-3.09-3.89-3.09h0c-2.14,0-3.89,1.39-3.89,3.09v29.23a.987.987,0,0,0,.69.94C132.58,184.52,136.12,185.16,138,181.56Z" fill="#313974"/>
    </g>
    <g id="Group_211" data-name="Group 211">
      <path id="Path_465" data-name="Path 465" d="M146.43,175.34a1.75,1.75,0,0,0,.18-.78V147.68c0-1.7-1.75-3.09-3.89-3.09h0c-2.14,0-3.89,1.39-3.89,3.09v29.23a.987.987,0,0,0,.69.94C141.01,178.3,144.55,178.95,146.43,175.34Z" fill="#4556c5"/>
    </g>
    <path id="Path_466" data-name="Path 466" d="M131.68,158.73a.76.76,0,0,0,.33.11c1.72.13,7.91-1.22,14.11-8.19a3.244,3.244,0,0,0,.84-2.01V128.83a3.245,3.245,0,0,0-1.39-3.02l-4.66-2.72a3.283,3.283,0,0,0-3.32.3l-6.35,3.67a10.346,10.346,0,0,0-4.66,8.08v19.92a1.016,1.016,0,0,0,.45.95Z" fill="#c5d9fe"/>
    <path id="Path_467" data-name="Path 467" d="M133.48,128.29a1.611,1.611,0,0,0,.96,1.36,5.126,5.126,0,0,0,4.64,0,1.623,1.623,0,0,0,.96-1.36v-4.32a1.611,1.611,0,0,0-.96-1.36,5.127,5.127,0,0,0-4.64,0,1.623,1.623,0,0,0-.96,1.36Z" fill="#ca9270"/>
    <circle id="Ellipse_7" data-name="Ellipse 7" cx="9.04" cy="9.04" r="9.04" transform="matrix(0.231, -0.973, 0.973, 0.231, 125.865, 123.805)" fill="#dfaa86"/>
    <g id="Group_212" data-name="Group 212">
      <path id="Path_468" data-name="Path 468" d="M119.17,108.96h0a2.579,2.579,0,0,1,3.4,1.29l7.56,18.09a2.579,2.579,0,0,1-1.29,3.4h0a2.579,2.579,0,0,1-3.4-1.29l-7.56-18.09A2.579,2.579,0,0,1,119.17,108.96Z" fill="#dfaa86"/>
      <path id="Path_469" data-name="Path 469" d="M122.86,128.13l2.65,5.91a3.982,3.982,0,0,0,5.26,2h0a3.985,3.985,0,0,0,2-5.26l-2.65-5.91C130.12,124.88,126.06,122.67,122.86,128.13Z" fill="#4981fb"/>
    </g>
    <path id="Path_470" data-name="Path 470" d="M141.86,125.34c-2.85,1.66-5.03.4-5.81-.8-1.95-3.02-2.27-1.01-3.44-2.43-1.52-2.5-1.18-5.92-3.3-7.49-3.03-2.26-2.2-6.77,5.71-8.79,10.63-2.71,14.82,10.68,8.18,18.42A4.179,4.179,0,0,1,141.86,125.34Z" fill="#9e5e17" fill-rule="evenodd"/>
    <path id="Path_471" data-name="Path 471" d="M133.6,122.48a1.033,1.033,0,0,1-1.89-.51,3.729,3.729,0,0,1,.88-3.27,1.033,1.033,0,0,1,1.89.51A3.751,3.751,0,0,1,133.6,122.48Z" fill="#dfaa86"/>
  </g>
  <g id="Group_225" data-name="Group 225" clip-path="url(#clip-path)">
    <g id="Group_224" data-name="Group 224">
      <g id="Group_214" data-name="Group 214">
        <path id="Path_472" data-name="Path 472" d="M180.85,203.19h0a2.256,2.256,0,0,1-2.98-1.12l-7.28-16.04a2.256,2.256,0,0,1,1.12-2.98h0a2.27,2.27,0,0,1,2.99,1.12l7.28,16.04A2.272,2.272,0,0,1,180.85,203.19Z" fill="url(#linear-gradient-54)"/>
        <path id="Path_473" data-name="Path 473" d="M176.96,186.19l-2.35-5.17a3.488,3.488,0,0,0-4.62-1.73h0a3.488,3.488,0,0,0-1.73,4.62l2.35,5.17C170.61,189.07,174.17,190.99,176.96,186.19Z" fill="#e7c650"/>
      </g>
      <g id="Group_216" data-name="Group 216">
        <path id="Path_474" data-name="Path 474" d="M181.67,203.17l-14.53-8.39V183.07l14.53,8.38Z" fill="url(#linear-gradient-55)"/>
        <g id="Group_215" data-name="Group 215">
          <path id="Path_475" data-name="Path 475" d="M178.09,200.01v-8.89l.31.18v8.89Z" fill="#9e99f8"/>
          <path id="Path_476" data-name="Path 476" d="M177.39,196.97v-6.26l.31.18v6.26Z" fill="#9e99f8"/>
          <path id="Path_477" data-name="Path 477" d="M176.69,198.51v-8.2l.31.18v8.2Z" fill="#9e99f8"/>
          <path id="Path_478" data-name="Path 478" d="M175.98,198.79V189.9l.31.18v8.89Z" fill="#9e99f8"/>
          <path id="Path_479" data-name="Path 479" d="M175.28,192.75v-3.26l.31.18v3.26Z" fill="#9e99f8"/>
        </g>
      </g>
      <g id="Group_220" data-name="Group 220">
        <g id="Group_217" data-name="Group 217">
          <path id="Path_480" data-name="Path 480" d="M166.34,203.27a1.59,1.59,0,0,0-.17.68l.01,7.66c-.02,1.49,1.5,2.73,3.37,2.76h0c1.88.03,3.43-1.17,3.45-2.66l.02-9.71a.841.841,0,0,0-.59-.83C171.14,200.74,168.04,200.13,166.34,203.27Z" fill="url(#linear-gradient-56)"/>
        </g>
        <g id="Group_219" data-name="Group 219">
          <g id="Group_218" data-name="Group 218">
            <path id="Path_481" data-name="Path 481" d="M150.34,218.47c-.91.39-.3,2.75-.34,5.03-.06,3.17.63,6.18,2.02,7.02a.959.959,0,0,0,.94.1l1.41-.78c.82-.4,1.38-2.26,2.14-5.04.83-3.06,1.34-5-2.02-7.02-.96-.58-1.52-.71-1.83-.54Z"/>
            <path id="Path_482" data-name="Path 482" d="M156.51,224.79c-1.01,3.7-1.66,5.77-3.06,4.94s-1.69-3.9-1.18-7.48c.45-3.14-1.14-6.49,2.22-4.47S157.35,221.73,156.51,224.79Z" fill="#22223a"/>
          </g>
          <path id="Path_483" data-name="Path 483" d="M157.15,221.93a1.529,1.529,0,0,0,.67-.19l13.88-7.7c1.3-.72,1.62-2.66.71-4.3h0c-.91-1.64-2.72-2.39-4.02-1.67l-15.68,8.7a.859.859,0,0,0-.43.93C152.57,219.03,153.58,222.02,157.15,221.93Z" fill="url(#linear-gradient-57)"/>
        </g>
      </g>
      <g id="Group_222" data-name="Group 222">
        <g id="Group_221" data-name="Group 221">
          <path id="Path_484" data-name="Path 484" d="M159.28,233.34c-.1.98,2.26,1.59,4.23,2.74,2.75,1.59,5.71,2.45,7.12,1.64a.927.927,0,0,0,.54-.77v-1.61c.05-.91-1.31-2.31-3.37-4.31-2.27-2.21-3.72-3.6-7.12-1.64-.97.56-1.36.98-1.36,1.34Z"/>
          <path id="Path_485" data-name="Path 485" d="M167.8,231.01c2.74,2.67,4.24,4.26,2.83,5.07s-4.23-.41-7.12-2.6c-2.53-1.91-6.23-2.15-2.83-4.11S165.52,228.8,167.8,231.01Z" fill="#22223a"/>
        </g>
        <path id="Path_486" data-name="Path 486" d="M165.6,229.07a1.478,1.478,0,0,0,.16-.68V204.83c0-1.49-1.54-2.71-3.41-2.71h0c-1.88,0-3.41,1.22-3.41,2.71v25.62a.846.846,0,0,0,.61.82C160.84,231.66,163.95,232.23,165.6,229.07Z" fill="url(#linear-gradient-58)"/>
      </g>
      <path id="Path_487" data-name="Path 487" d="M160.05,209.06a.667.667,0,0,0,.29.1c1.51.12,6.94-1.07,12.37-7.18a2.827,2.827,0,0,0,.74-1.76V182.86a2.853,2.853,0,0,0-1.22-2.65l-4.08-2.38a2.85,2.85,0,0,0-2.91.27l-5.57,3.21a9.063,9.063,0,0,0-4.09,7.08v17.47a.9.9,0,0,0,.39.84Z" fill="#ffffeb"/>
      <path id="Path_488" data-name="Path 488" d="M161.63,182.38a1.411,1.411,0,0,0,.84,1.19,4.491,4.491,0,0,0,4.07,0,1.411,1.411,0,0,0,.84-1.19V178.6a1.411,1.411,0,0,0-.84-1.19,4.491,4.491,0,0,0-4.07,0,1.411,1.411,0,0,0-.84,1.19Z" fill="#d5a69b"/>
      <g id="Group_223" data-name="Group 223">
        <path id="Path_489" data-name="Path 489" d="M146.27,207.22h0a2.256,2.256,0,0,1-.99-3.03l7.95-15.72a2.256,2.256,0,0,1,3.03-.99h0a2.256,2.256,0,0,1,.99,3.03l-7.95,15.72A2.265,2.265,0,0,1,146.27,207.22Z" fill="url(#linear-gradient-59)"/>
        <path id="Path_490" data-name="Path 490" d="M157.09,193.54l2.56-5.07a3.5,3.5,0,0,0-1.54-4.69h0a3.5,3.5,0,0,0-4.69,1.54l-2.56,5.07C150.87,190.39,151.6,194.38,157.09,193.54Z" fill="#e7c650"/>
      </g>
      <circle id="Ellipse_8" data-name="Ellipse 8" cx="7.93" cy="7.93" r="7.93" transform="translate(156.66 164.63)" fill="url(#linear-gradient-60)"/>
      <path id="Path_491" data-name="Path 491" d="M157.97,163.18c-6.77,2.33-3.41,12.22,1.52,15.79,2.41-1.32-.52-3.67,2.77-2.03.65-3.19-.82-2.22.08-6.22,3.44,1.8,10.15-.38,11.19-3.7-1.2-.53-2.46-3.94-5.26-5.19C164.65,160.22,160.03,160.93,157.97,163.18Z" fill="#2b155e" fill-rule="evenodd"/>
      <path id="Path_492" data-name="Path 492" d="M161.94,177.01c0,.95-.66,1.33-1.48.86a3.264,3.264,0,0,1-1.48-2.57c0-.95.66-1.33,1.48-.86A3.264,3.264,0,0,1,161.94,177.01Z" fill="#dfaa86"/>
    </g>
    <path id="Path_493" data-name="Path 493" d="M169.61,172.84a5.917,5.917,0,0,0-2.43,4.71c0,1.83,1.09,2.68,2.43,1.91a5.917,5.917,0,0,0,2.43-4.71C172.04,172.92,170.95,172.07,169.61,172.84Zm0,3.31c-.84.49-1.53.6-1.53.26s.68-1.02,1.53-1.51,1.53-.6,1.53-.26S170.45,175.67,169.61,176.15Z" fill="#2b155e"/>
  </g>
</svg>
