<svg xmlns="http://www.w3.org/2000/svg" width="80" height="80" viewBox="0 0 80 80">
  <g id="seo" transform="translate(0)">
    <path id="Path_518" data-name="Path 518" d="M11.2,366.934H64.535A2.667,2.667,0,0,1,67.2,369.6v16a2.667,2.667,0,0,1-2.667,2.667H11.2A2.667,2.667,0,0,1,8.535,385.6v-16a2.667,2.667,0,0,1,2.667-2.667Zm0,0" transform="translate(-7.202 -309.601)" fill="#d4e1f4"/>
    <path id="Path_519" data-name="Path 519" d="M11.2,187.734H64.535A2.667,2.667,0,0,1,67.2,190.4v16a2.667,2.667,0,0,1-2.667,2.667H11.2A2.667,2.667,0,0,1,8.535,206.4v-16a2.667,2.667,0,0,1,2.667-2.667Zm0,0" transform="translate(-7.202 -158.401)" fill="#d4e1f4"/>
    <path id="Path_520" data-name="Path 520" d="M11.2,366.934h48a2.667,2.667,0,0,1,2.667,2.667v16a2.667,2.667,0,0,1-2.667,2.667h-48A2.667,2.667,0,0,1,8.535,385.6v-16a2.667,2.667,0,0,1,2.667-2.667Zm0,0" transform="translate(-7.202 -309.601)" fill="#e3e7f2"/>
    <path id="Path_521" data-name="Path 521" d="M11.2,187.734h48a2.667,2.667,0,0,1,2.667,2.667v16a2.667,2.667,0,0,1-2.667,2.667h-48A2.667,2.667,0,0,1,8.535,206.4v-16a2.667,2.667,0,0,1,2.667-2.667Zm0,0" transform="translate(-7.202 -158.401)" fill="#e3e7f2"/>
    <path id="Path_522" data-name="Path 522" d="M130.666,8.535H184a2.667,2.667,0,0,1,2.667,2.667v16A2.667,2.667,0,0,1,184,29.868H130.666A2.667,2.667,0,0,1,128,27.2v-16A2.667,2.667,0,0,1,130.666,8.535Zm0,0" transform="translate(-108 -7.202)" fill="#d4e1f4"/>
    <path id="Path_523" data-name="Path 523" d="M130.666,8.535h48a2.667,2.667,0,0,1,2.667,2.667v16a2.667,2.667,0,0,1-2.667,2.667h-48A2.667,2.667,0,0,1,128,27.2v-16A2.667,2.667,0,0,1,130.666,8.535Zm0,0" transform="translate(-108 -7.202)" fill="#e3e7f2"/>
    <path id="Path_524" data-name="Path 524" d="M279.733,42.668l2.394,3.124,4.272.951-2.792,2.881.245,3.711-4.12-1.343-4.12,1.343.245-3.711-2.792-2.881,4.272-.951Zm0,0" transform="translate(-230.399 -36.001)" fill="#d4e1f4"/>
    <path id="Path_525" data-name="Path 525" d="M44,221.867h8a1.333,1.333,0,0,1,1.334,1.333v8A1.333,1.333,0,0,1,52,232.534H44a1.333,1.333,0,0,1-1.333-1.333v-8A1.333,1.333,0,0,1,44,221.867Zm0,0" transform="translate(-36.001 -187.2)" fill="#f4f4f4"/>
    <path id="Path_526" data-name="Path 526" d="M44,401.066H68a1.333,1.333,0,0,1,1.333,1.334v2.667A1.333,1.333,0,0,1,68,406.4H44a1.333,1.333,0,0,1-1.333-1.333V402.4A1.333,1.333,0,0,1,44,401.066Zm0,0" transform="translate(-36.001 -338.399)" fill="#f4f4f4"/>
    <path id="Path_527" data-name="Path 527" d="M262.132,406.4H248.8a1.334,1.334,0,0,1-1.334-1.333V402.4a1.334,1.334,0,0,1,1.334-1.334h13.333a1.333,1.333,0,0,1,1.334,1.334v2.667A1.333,1.333,0,0,1,262.132,406.4Zm0,0" transform="translate(-208.798 -338.4)" fill="#f4f4f4"/>
    <path id="Path_528" data-name="Path 528" d="M130.666,29.868h4A2.667,2.667,0,0,1,132,27.2v-16a2.667,2.667,0,0,1,2.667-2.667h-4A2.667,2.667,0,0,0,128,11.2v16A2.667,2.667,0,0,0,130.666,29.868Zm0,0" transform="translate(-108 -7.202)" fill="#fff"/>
    <path id="Path_529" data-name="Path 529" d="M11.2,388.267h4a2.667,2.667,0,0,1-2.667-2.667v-16a2.667,2.667,0,0,1,2.667-2.667h-4A2.667,2.667,0,0,0,8.535,369.6v16a2.667,2.667,0,0,0,2.667,2.667Zm0,0" transform="translate(-7.202 -309.601)" fill="#fff"/>
    <path id="Path_530" data-name="Path 530" d="M11.2,209.068h4a2.667,2.667,0,0,1-2.667-2.667v-16a2.667,2.667,0,0,1,2.667-2.667h-4A2.667,2.667,0,0,0,8.535,190.4v16a2.667,2.667,0,0,0,2.667,2.667Zm0,0" transform="translate(-7.202 -158.402)" fill="#fff"/>
    <path id="Path_531" data-name="Path 531" d="M2.667,204.8v16.127a1.316,1.316,0,0,0,.156.512A1.352,1.352,0,0,0,4,222.134V224.8a4.027,4.027,0,0,1-3.51-2.081,3.961,3.961,0,0,1-.472-1.545L0,220.779V204.8Zm0,0" transform="translate(0 -172.801)" fill="#fff"/>
    <g id="Group_233" data-name="Group 233" transform="translate(0 0)">
      <path id="Path_532" data-name="Path 532" d="M4,382.4H57.333a4,4,0,0,0,4-4v-16a4,4,0,0,0-4-4H4a4,4,0,0,0-4,4v16a4,4,0,0,0,4,4Zm-1.334-20A1.334,1.334,0,0,1,4,361.065H57.333a1.334,1.334,0,0,1,1.333,1.334v16a1.333,1.333,0,0,1-1.333,1.334H4A1.333,1.333,0,0,1,2.667,378.4Zm0,0" transform="translate(0 -302.399)" fill="#7975fc"/>
      <path id="Path_533" data-name="Path 533" d="M.491,201.118A4.027,4.027,0,0,0,4,203.2H57.333a4,4,0,0,0,4-4v-16a4,4,0,0,0-4-4H4a4,4,0,0,0-4,4v5.333a1.333,1.333,0,0,0,2.667,0V183.2A1.333,1.333,0,0,1,4,181.866H57.333a1.333,1.333,0,0,1,1.333,1.334v16a1.333,1.333,0,0,1-1.333,1.334H4a1.352,1.352,0,0,1-1.171-.695,1.407,1.407,0,0,1-.163-.639A1.333,1.333,0,0,0,0,199.2a4.084,4.084,0,0,0,.491,1.919Zm0,0" transform="translate(0 -151.199)" fill="#7975fc"/>
      <path id="Path_534" data-name="Path 534" d="M1.373,267.2a1.4,1.4,0,0,0,.947-.387,1.353,1.353,0,0,0,0-1.893l-.2-.16a1.015,1.015,0,0,0-.24-.12.858.858,0,0,0-.24-.08,1.945,1.945,0,0,0-.266-.026,1.4,1.4,0,0,0-.947.386,1.378,1.378,0,0,0,0,1.893,1.37,1.37,0,0,0,.439.28,1.341,1.341,0,0,0,.507.107Zm0,0" transform="translate(-0.04 -223.202)" fill="#7975fc"/>
      <path id="Path_535" data-name="Path 535" d="M176.8,0H123.465a4,4,0,0,0-4,4V20a4,4,0,0,0,4,4H176.8a4,4,0,0,0,4-4V4a4,4,0,0,0-4-4Zm1.334,20a1.334,1.334,0,0,1-1.334,1.334H123.465A1.334,1.334,0,0,1,122.132,20V4a1.333,1.333,0,0,1,1.333-1.334H176.8A1.333,1.333,0,0,1,178.131,4Zm0,0" transform="translate(-100.798 0)" fill="#7975fc"/>
      <path id="Path_536" data-name="Path 536" d="M430.74,196.534a1.333,1.333,0,0,0,1.334-1.333V183.752l.391.391a1.333,1.333,0,0,0,1.885-1.885l-2.667-2.667a1.338,1.338,0,0,0-1.888,0l-2.667,2.667a1.333,1.333,0,0,0,1.885,1.885l.394-.391V195.2A1.333,1.333,0,0,0,430.74,196.534Zm0,0" transform="translate(-360.073 -151.2)" fill="#7975fc"/>
      <path id="Path_537" data-name="Path 537" d="M38.219,17.341a1.333,1.333,0,0,0,1.333-1.334V4.56l.391.391a1.333,1.333,0,0,0,1.885-1.885L39.162.4a1.337,1.337,0,0,0-1.887,0L34.608,3.066a1.333,1.333,0,0,0,1.887,1.884l.391-.391V16.008a1.333,1.333,0,0,0,1.334,1.334Zm0,0" transform="translate(-28.886 -0.008)" fill="#7975fc"/>
      <path id="Path_538" data-name="Path 538" d="M279.5,38.391l-3.8-.845-2.1-2.739a1.381,1.381,0,0,0-2.117,0l-2.1,2.739-3.8.845a1.334,1.334,0,0,0-.667,2.228l2.379,2.457L267.1,46.2a1.333,1.333,0,0,0,1.744,1.356l3.705-1.209,3.707,1.209A1.333,1.333,0,0,0,278,46.2l-.205-3.12,2.379-2.457a1.334,1.334,0,0,0-.667-2.228Zm-4.039,3.255a1.332,1.332,0,0,0-.373,1.016l.116,1.744-2.247-.732a1.337,1.337,0,0,0-.826,0l-2.247.732L270,42.662a1.335,1.335,0,0,0-.374-1.016L268.5,40.476l1.945-.433a1.329,1.329,0,0,0,.772-.491l1.334-1.743,1.333,1.743a1.333,1.333,0,0,0,.77.491l1.945.433Zm0,0" transform="translate(-223.213 -28.951)" fill="#7975fc"/>
      <path id="Path_539" data-name="Path 539" d="M169.6,34.133H154.935a1.333,1.333,0,0,0,0,2.667H169.6a1.333,1.333,0,1,0,0-2.667Zm0,0" transform="translate(-129.601 -28.8)" fill="#7975fc"/>
      <path id="Path_540" data-name="Path 540" d="M169.6,102.4H154.935a1.333,1.333,0,0,0,0,2.667H169.6a1.333,1.333,0,1,0,0-2.667Zm0,0" transform="translate(-129.601 -86.398)" fill="#7975fc"/>
      <path id="Path_541" data-name="Path 541" d="M154.935,70.932H165.6a1.333,1.333,0,1,0,0-2.667H154.935a1.333,1.333,0,0,0,0,2.667Zm0,0" transform="translate(-129.601 -57.599)" fill="#7975fc"/>
      <path id="Path_542" data-name="Path 542" d="M382.933,34.133H368.267a1.333,1.333,0,0,0,0,2.667h14.667a1.333,1.333,0,1,0,0-2.667Zm0,0" transform="translate(-309.6 -28.8)" fill="#7975fc"/>
      <path id="Path_543" data-name="Path 543" d="M382.933,102.4H368.267a1.333,1.333,0,0,0,0,2.667h14.667a1.333,1.333,0,1,0,0-2.667Zm0,0" transform="translate(-309.6 -86.398)" fill="#7975fc"/>
      <path id="Path_544" data-name="Path 544" d="M404.535,68.266H393.868a1.333,1.333,0,0,0,0,2.667h10.667a1.333,1.333,0,1,0,0-2.667Zm0,0" transform="translate(-331.201 -57.599)" fill="#7975fc"/>
      <path id="Path_545" data-name="Path 545" d="M44.8,226.666A2.667,2.667,0,0,0,47.466,224v-8a2.667,2.667,0,0,0-2.667-2.667h-8A2.667,2.667,0,0,0,34.132,216v8a2.667,2.667,0,0,0,2.667,2.667ZM36.8,216h8v8h-8Zm0,0" transform="translate(-28.799 -179.999)" fill="#7975fc"/>
      <path id="Path_546" data-name="Path 546" d="M36.8,400.535h24a2.667,2.667,0,0,0,2.667-2.667V395.2a2.667,2.667,0,0,0-2.667-2.667h-24a2.667,2.667,0,0,0-2.667,2.667v2.667A2.667,2.667,0,0,0,36.8,400.535Zm0-5.333h24v2.667h-24Zm0,0" transform="translate(-28.8 -331.201)" fill="#7975fc"/>
      <path id="Path_547" data-name="Path 547" d="M241.6,400.535h13.333a2.667,2.667,0,0,0,2.667-2.667V395.2a2.667,2.667,0,0,0-2.667-2.667H241.6a2.667,2.667,0,0,0-2.667,2.667v2.667A2.667,2.667,0,0,0,241.6,400.535Zm0-5.333h13.333v2.667H241.6Zm0,0" transform="translate(-201.6 -331.201)" fill="#7975fc"/>
      <path id="Path_548" data-name="Path 548" d="M137.868,216h32a1.333,1.333,0,0,0,0-2.667h-32a1.333,1.333,0,0,0,0,2.667Zm0,0" transform="translate(-115.201 -179.999)" fill="#7975fc"/>
      <path id="Path_549" data-name="Path 549" d="M137.868,250.132h32a1.334,1.334,0,0,0,0-2.667h-32a1.334,1.334,0,0,0,0,2.667Zm0,0" transform="translate(-115.201 -208.798)" fill="#7975fc"/>
      <path id="Path_550" data-name="Path 550" d="M137.868,284.268h32a1.333,1.333,0,0,0,0-2.667h-32a1.333,1.333,0,0,0,0,2.667Zm0,0" transform="translate(-115.201 -237.601)" fill="#7975fc"/>
      <path id="Path_551" data-name="Path 551" d="M35.466,463.467H62.133a1.333,1.333,0,1,0,0-2.667H35.466a1.333,1.333,0,1,0,0,2.667Zm0,0" transform="translate(-28.8 -388.8)" fill="#7975fc"/>
      <path id="Path_552" data-name="Path 552" d="M240.267,463.467h16a1.333,1.333,0,0,0,0-2.667h-16a1.333,1.333,0,0,0,0,2.667Zm0,0" transform="translate(-201.6 -388.8)" fill="#7975fc"/>
    </g>
  </g>
</svg>
