<svg xmlns="http://www.w3.org/2000/svg" width="76.056" height="80" viewBox="0 0 76.056 80">
  <g id="shield" transform="translate(-12.621)">
    <g id="Group_237" data-name="Group 237" transform="translate(13.991 2.457)">
      <g id="Group_234" data-name="Group 234" transform="translate(0 0.003)">
        <path id="Path_553" data-name="Path 553" d="M56.39,90.867C98.285,72.912,92.9,34.541,91.358,26.881a1.324,1.324,0,0,0-1.627-1.017c-19.517,4.559-29.143-6.133-32.188-10.533a1.333,1.333,0,0,0-2.209,0C52.278,19.739,42.62,30.429,23.1,25.864a1.324,1.324,0,0,0-1.627,1.017c-1.54,7.66-6.927,46.031,34.968,63.987Z" transform="translate(-20.389 -14.744)" fill="#e3e7f2"/>
        <path id="Path_554" data-name="Path 554" d="M85.268,126.012C54.148,111.5,53.66,84.158,54.949,72.85a42.79,42.79,0,0,0,6.112.453,32.894,32.894,0,0,0,24.224-9.971A32.8,32.8,0,0,0,109.473,73.3a42.77,42.77,0,0,0,6.111-.453C116.876,84.158,116.388,111.5,85.268,126.012Z" transform="translate(-49.242 -55.741)" fill="#e3e7f2"/>
      </g>
      <g id="Group_235" data-name="Group 235" transform="translate(23.326 11.086)">
        <path id="Path_555" data-name="Path 555" d="M240.147,150.7c-.68-.293-1.347-.587-2-.892C277.84,131.5,272.6,94.275,271.094,86.729a1.246,1.246,0,0,0-.213-.493c.84-.133,1.707-.321,2.587-.521a1.333,1.333,0,0,1,1.627,1.015C276.627,94.4,282.014,132.741,240.147,150.7Z" transform="translate(-227.448 -85.675)" fill="#a4c2f7"/>
        <path id="Path_556" data-name="Path 556" d="M240.219,177.4c-.68-.32-1.347-.639-1.987-.972,28.8-14.557,29.555-40.521,28.355-51.8a36.6,36.6,0,0,0,3.947-.387C271.832,135.55,271.339,162.9,240.219,177.4Z" transform="translate(-227.52 -118.217)" fill="#a4c2f7"/>
        <path id="Path_557" data-name="Path 557" d="M196.342,230.733V245.4a8,8,0,0,1-8,8H177.675a8,8,0,0,1-8-8V230.733a1.333,1.333,0,0,1,1.333-1.333h24A1.333,1.333,0,0,1,196.342,230.733Z" transform="translate(-169.675 -206.943)" fill="#a4c2f7"/>
      </g>
      <path id="Path_558" data-name="Path 558" d="M192.342,230.733V245.4a8,8,0,0,1-8,8h-6.667a8,8,0,0,1-8-8V230.733a1.333,1.333,0,0,1,1.333-1.333h20A1.333,1.333,0,0,1,192.342,230.733Z" transform="translate(-146.349 -195.857)" fill="#e3e7f2"/>
      <circle id="Ellipse_13" data-name="Ellipse 13" cx="2.667" cy="2.667" r="2.667" transform="translate(33.993 40.209)" fill="#a4c2f7"/>
      <g id="Group_236" data-name="Group 236" transform="translate(0.006)">
        <path id="Path_559" data-name="Path 559" d="M25.72,86.2c-.845-.147-1.7-.311-2.588-.517A1.324,1.324,0,0,0,21.5,86.7c-1.515,7.533-6.716,44.76,32.967,63.067l-.025.013c.625.293,1.265.573,1.915.855l.087.04c.691-.3,1.351-.605,2.015-.912C18.79,131.458,23.99,94.241,25.5,86.7A1.31,1.31,0,0,1,25.72,86.2Z" transform="translate(-20.428 -74.565)" fill="#fff"/>
        <path id="Path_560" data-name="Path 560" d="M250.844,501.873l-.025-.012-.025.012Z" transform="translate(-214.798 -425.746)" fill="#fff"/>
        <path id="Path_561" data-name="Path 561" d="M132.852,16.522c-.343-.436-.643-.845-.893-1.208a1.333,1.333,0,0,0-2.209,0A27.3,27.3,0,0,1,108.585,26.9C122.009,27.668,129.565,20.7,132.852,16.522Z" transform="translate(-94.81 -14.727)" fill="#fff"/>
      </g>
    </g>
    <g id="Group_239" data-name="Group 239" transform="translate(12.621)">
      <path id="Path_562" data-name="Path 562" d="M49.484,150.049a72.169,72.169,0,0,1-15.269-8.8,53.563,53.563,0,0,1-18.659-26.025A59.446,59.446,0,0,1,12.7,99.309a61.02,61.02,0,0,1,1.357-16.16l2.579.683A58.671,58.671,0,0,0,15.36,99.19a56.816,56.816,0,0,0,2.729,15.2,50.869,50.869,0,0,0,17.747,24.741,69.483,69.483,0,0,0,14.7,8.461Z" transform="translate(-12.621 -70.157)" fill="#fff"/>
      <g id="Group_238" data-name="Group 238" transform="translate(0.001)">
        <path id="Path_563" data-name="Path 563" d="M183.784,463.667a1.446,1.446,0,0,0-.471.225,1.311,1.311,0,0,0-.533,1.376,1.384,1.384,0,0,0,1.632,1.012l.239-.087a.975.975,0,0,0,.225-.143.818.818,0,0,0,.189-.165,2.053,2.053,0,0,0,.157-.216,1.466,1.466,0,0,0,.153-1.019,1.415,1.415,0,0,0-.224-.468A1.324,1.324,0,0,0,183.784,463.667Z" transform="translate(-156.165 -391.191)" fill="#7975fc"/>
        <path id="Path_564" data-name="Path 564" d="M51.275,1.192a1.427,1.427,0,0,0-.149-.325,1.411,1.411,0,0,0-2.295,0,1.282,1.282,0,0,0-.165.4C47.341,3.646,38.17,18.192,15.69,12.279a1.333,1.333,0,0,0-1.628.948A61.019,61.019,0,0,0,12.7,29.387,59.448,59.448,0,0,0,15.563,45.3,53.563,53.563,0,0,0,34.222,71.327c.36.277.736.533,1.1.8A1.333,1.333,0,0,0,36.9,69.975c-.352-.255-.713-.5-1.057-.763A50.87,50.87,0,0,1,18.1,44.472a56.823,56.823,0,0,1-2.729-15.2A59.69,59.69,0,0,1,16.4,15.2C36.506,19.872,46.7,8.767,49.991,4.1,53.284,8.767,63.5,19.895,83.638,15.184c1.568,7.487,6.988,44.456-33.645,62.233-1.4-.653-2.821-1.272-4.189-1.987a1.325,1.325,0,0,0-1.783.556,1.351,1.351,0,0,0,.568,1.819c1.552.808,3.163,1.5,4.744,2.243a1.308,1.308,0,0,0,.632.185h.053a1.291,1.291,0,0,0,.711-.211c46.9-20.266,35.315-66.333,35.192-66.8a1.333,1.333,0,0,0-1.628-.948C61.555,18.258,52.437,3.31,51.275,1.192Z" transform="translate(-12.63 -0.234)" fill="#7975fc"/>
        <path id="Path_565" data-name="Path 565" d="M197.91,170.243a64.454,64.454,0,0,1-7.917-4.451,1.333,1.333,0,0,0-1.475,2.221,67.635,67.635,0,0,0,8.829,4.913,1.357,1.357,0,0,0,.563.123,1.333,1.333,0,0,0,.563-.124c32.207-15,32.489-43.136,31.117-54.533a1.333,1.333,0,0,0-1.516-1.16,41.7,41.7,0,0,1-5.959.444,1.333,1.333,0,1,0,0,2.667,43.563,43.563,0,0,0,4.971-.293C228.177,131.526,226.793,156.478,197.91,170.243Z" transform="translate(-160.549 -98.903)" fill="#7975fc"/>
        <path id="Path_566" data-name="Path 566" d="M54.585,69.262a34.112,34.112,0,0,0,24.2-9.387,33.113,33.113,0,0,0,12.953,7.7,1.334,1.334,0,0,0,.809-2.541,30.549,30.549,0,0,1-12.8-7.964,1.376,1.376,0,0,0-1.917,0A31.444,31.444,0,0,1,54.586,66.6a41.654,41.654,0,0,1-5.928-.44,1.3,1.3,0,0,0-1,.267,1.334,1.334,0,0,0-.511.9A58.549,58.549,0,0,0,47.9,85.518,47.7,47.7,0,0,0,59.665,108.73a1.334,1.334,0,0,0,1.956-1.813A45.066,45.066,0,0,1,50.51,84.979a55.781,55.781,0,0,1-.86-16A43.435,43.435,0,0,0,54.585,69.262Z" transform="translate(-41.428 -47.824)" fill="#7975fc"/>
        <path id="Path_567" data-name="Path 567" d="M18.313,401.067A1.333,1.333,0,0,0,16.98,402.4v2.667H14.313a1.333,1.333,0,0,0,0,2.667H16.98V410.4a1.333,1.333,0,0,0,2.667,0v-2.667h2.667a1.333,1.333,0,0,0,0-2.667H19.647V402.4A1.333,1.333,0,0,0,18.313,401.067Z" transform="translate(-12.925 -338.4)" fill="#7975fc"/>
        <path id="Path_568" data-name="Path 568" d="M441.78,449.067a1.333,1.333,0,0,0-1.333-1.333H437.78v-2.667a1.333,1.333,0,1,0-2.667,0v2.667h-2.667a1.333,1.333,0,0,0,0,2.667h2.667v2.667a1.333,1.333,0,1,0,2.667,0V450.4h2.667A1.333,1.333,0,0,0,441.78,449.067Z" transform="translate(-365.725 -374.401)" fill="#7975fc"/>
        <path id="Path_569" data-name="Path 569" d="M418.047,0a1.333,1.333,0,0,0-1.333,1.333V2.667H415.38a1.333,1.333,0,1,0,0,2.667h1.333V6.666a1.333,1.333,0,0,0,2.667,0V5.333h1.333a1.333,1.333,0,0,0,0-2.667H419.38V1.333A1.333,1.333,0,0,0,418.047,0Z" transform="translate(-351.326)" fill="#7975fc"/>
        <path id="Path_570" data-name="Path 570" d="M171.474,169.332h10.667A9.345,9.345,0,0,0,191.474,160V145.332a2.667,2.667,0,0,0-2.667-2.667h-1.333v-4a10.667,10.667,0,0,0-21.333,0v4h-1.333a2.667,2.667,0,0,0-2.667,2.667V160A9.345,9.345,0,0,0,171.474,169.332Zm-2.667-30.667a8,8,0,1,1,16,0v4h-16Zm-1.333,6.667h21.333V148h-2.667a1.333,1.333,0,0,0,0,2.667h2.667v2.667h-2.667a1.333,1.333,0,0,0,0,2.667h2.667v2.667h-2.667a1.333,1.333,0,0,0,0,2.667h2.533a6.679,6.679,0,0,1-6.533,5.333H171.474a6.679,6.679,0,0,1-6.533-5.333h2.533a1.333,1.333,0,0,0,0-2.667h-2.667V156h2.667a1.333,1.333,0,0,0,0-2.667h-2.667v-2.667h2.667a1.333,1.333,0,0,0,0-2.667h-2.667v-2.667Z" transform="translate(-138.78 -107.999)" fill="#7975fc"/>
        <path id="Path_571" data-name="Path 571" d="M233.073,272.2v2.912a1.333,1.333,0,0,0,2.667,0V272.2a4,4,0,1,0-2.667,0Zm1.333-5.088a1.333,1.333,0,1,1-1.333,1.333A1.333,1.333,0,0,1,234.406,267.11Z" transform="translate(-196.378 -223.11)" fill="#7975fc"/>
      </g>
    </g>
  </g>
</svg>
