<svg xmlns="http://www.w3.org/2000/svg" width="80" height="79.975" viewBox="0 0 80 79.975">
  <g id="startup" transform="translate(0 -0.079)">
    <g id="Group_230" data-name="Group 230" transform="translate(1.333 1.388)">
      <g id="Group_227" data-name="Group 227" transform="translate(0 53.579)">
        <path id="Path_495" data-name="Path 495" d="M25.505,374.1a10.04,10.04,0,0,0-3.524-2.951c.035-.349.054-.7.054-1.062a10.652,10.652,0,0,0-8.65-10.458,7.976,7.976,0,0,0-5.85-9.266V374.12Z" transform="translate(-7.535 -350.366)" fill="#a4c2f7"/>
        <path id="Path_496" data-name="Path 496" d="M387.815,374.1a10.04,10.04,0,0,1,3.524-2.951c-.035-.349-.054-.7-.054-1.062a10.652,10.652,0,0,1,8.65-10.458,7.977,7.977,0,0,1,5.85-9.266V374.12Z" transform="translate(-328.397 -350.366)" fill="#a4c2f7"/>
      </g>
      <rect id="Rectangle_29" data-name="Rectangle 29" width="21.333" height="34.666" transform="translate(28 17.333)" fill="#d4e1f4"/>
      <rect id="Rectangle_30" data-name="Rectangle 30" width="17.333" height="34.666" transform="translate(28 17.333)" fill="#f5f5f5"/>
      <path id="Path_497" data-name="Path 497" d="M207.819,24.792H186.486a10.763,10.763,0,0,1,.16-3.093.121.121,0,0,0,.013-.067c.587-3.24,2.627-8.52,9.413-13.427.347-.24.707-.493,1.08-.747C209.153,15.459,207.819,24.792,207.819,24.792Z" transform="translate(-158.487 -7.459)" fill="#a4c2f7"/>
      <path id="Path_498" data-name="Path 498" d="M204.143,28.824H186.8a14.034,14.034,0,0,1,.12-3.093.121.121,0,0,0,.013-.067c.587-3.24,2.627-8.52,9.413-13.427C205.157,20.065,204.143,28.824,204.143,28.824Z" transform="translate(-158.757 -11.491)" fill="#e3e7f2"/>
      <rect id="Rectangle_31" data-name="Rectangle 31" width="21.333" height="8" transform="translate(28 51.999)" fill="#a4c2f7"/>
      <g id="Group_228" data-name="Group 228" transform="translate(18.666 28)">
        <rect id="Rectangle_32" data-name="Rectangle 32" width="17.333" height="8" transform="translate(9.333 24)" fill="#e3e7f2"/>
        <path id="Path_499" data-name="Path 499" d="M136.335,246.393l-8.673,9.913a2.667,2.667,0,0,0-.66,1.756v16.1a1.333,1.333,0,0,0,2.2,1.012l7.132-6.113Z" transform="translate(-127.002 -237.06)" fill="#e3e7f2"/>
        <path id="Path_500" data-name="Path 500" d="M323.269,246.393l8.674,9.913a2.667,2.667,0,0,1,.66,1.756v16.1a1.333,1.333,0,0,1-2.2,1.012l-7.132-6.113Z" transform="translate(-292.603 -237.06)" fill="#e3e7f2"/>
        <circle id="Ellipse_12" data-name="Ellipse 12" cx="5.333" cy="5.333" r="5.333" transform="translate(14.667)" fill="#e3e7f2"/>
      </g>
      <path id="Path_501" data-name="Path 501" d="M211,391.46l-5.333,6.667h-9.333L191,391.46Z" transform="translate(-162.336 -331.461)" fill="#d4e1f4"/>
      <path id="Path_502" data-name="Path 502" d="M223.583,434.127a2.256,2.256,0,0,1,1.38,3.771l-5.092,5.764a1.333,1.333,0,0,1-2,0l-5.092-5.764a2.256,2.256,0,0,1,1.38-3.771h9.422Z" transform="translate(-180.206 -367.461)" fill="#e3e7f2"/>
      <g id="Group_229" data-name="Group 229" transform="translate(0 0.027)">
        <path id="Path_503" data-name="Path 503" d="M207.613,398.3h.045l-5.333-6.667h-.667l-1.977,1.695,3.977,4.972h-.045a2.256,2.256,0,0,0-1.38,3.771l5.092,5.764a1.333,1.333,0,0,0,2,0l1-1.133-4.091-4.631a2.256,2.256,0,0,1,1.38-3.771Z" transform="translate(-169.658 -331.631)" fill="#fff"/>
        <path id="Path_504" data-name="Path 504" d="M11.536,353.025a7.994,7.994,0,0,0-4-2.489V374.29l4,0Z" transform="translate(-7.536 -296.958)" fill="#fff"/>
        <path id="Path_505" data-name="Path 505" d="M129.2,73.743,131,72.2V56.632a2.667,2.667,0,0,1,.66-1.756l8.673-9.913v-20a10.762,10.762,0,0,1,.16-3.093.119.119,0,0,0,.013-.067c.559-3.087,2.448-8.027,8.5-12.731-.623-.484-1.288-.965-2-1.442-.373.253-.733.507-1.08.747-6.786,4.906-8.826,10.186-9.413,13.426a.12.12,0,0,1-.013.067,10.763,10.763,0,0,0-.16,3.093v20l-8.673,9.913a2.667,2.667,0,0,0-.66,1.756v16.1a1.333,1.333,0,0,0,2.2,1.012Z" transform="translate(-108.337 -7.631)" fill="#fff"/>
      </g>
    </g>
    <g id="Group_232" data-name="Group 232" transform="translate(0 0.079)">
      <path id="Path_506" data-name="Path 506" d="M181.869,119.393v34.666H179.2V119.393Z" transform="translate(-151.202 -100.75)" fill="#fff"/>
      <g id="Group_231" data-name="Group 231" transform="translate(0 0)">
        <path id="Path_507" data-name="Path 507" d="M380.218,367.1a1.333,1.333,0,0,0,2.128,1.608,8.755,8.755,0,0,1,3.053-2.561c.008,0,.012-.011.02-.015a1.308,1.308,0,0,0,.247-.192,1.367,1.367,0,0,0,.16-.133q.128-.22.246-.445a1.376,1.376,0,0,0,.026-.2,1.306,1.306,0,0,0,.032-.32c0-.008,0-.015,0-.024-.03-.307-.047-.617-.047-.932a9.319,9.319,0,0,1,7.566-9.148h0a1.269,1.269,0,0,0,.219-.09,1.376,1.376,0,0,0,.269-.111,1.3,1.3,0,0,0,.178-.177,1.334,1.334,0,0,0,.184-.183,1.353,1.353,0,0,0,.1-.243,1.293,1.293,0,0,0,.1-.227,1.378,1.378,0,0,0,0-.267,1.262,1.262,0,0,0,0-.26v0a6.761,6.761,0,0,1-.126-1.275,6.66,6.66,0,0,1,5-6.447,1.333,1.333,0,0,0-.667-2.582,9.326,9.326,0,0,0-7,9.029c0,.172.016.347.026.52a11.989,11.989,0,0,0-8.526,11.466c0,.107.013.21.016.315A11.535,11.535,0,0,0,380.218,367.1Z" transform="translate(-320.585 -289.276)" fill="#7975fc"/>
        <path id="Path_508" data-name="Path 508" d="M458.826,451.052a9.784,9.784,0,0,0-8.013,7.956,1.334,1.334,0,0,0,1.108,1.526,1.371,1.371,0,0,0,.21.016,1.334,1.334,0,0,0,1.316-1.124,7.149,7.149,0,0,1,5.78-5.738,1.334,1.334,0,1,0-.4-2.637Z" transform="translate(-380.361 -380.575)" fill="#7975fc"/>
        <path id="Path_509" data-name="Path 509" d="M1,345.455A6.66,6.66,0,0,1,6,351.9a6.762,6.762,0,0,1-.126,1.275v0a1.261,1.261,0,0,0,0,.26,1.377,1.377,0,0,0,0,.267,1.313,1.313,0,0,0,.1.227,1.348,1.348,0,0,0,.1.243,1.328,1.328,0,0,0,.184.183,1.3,1.3,0,0,0,.178.177,1.378,1.378,0,0,0,.269.111,1.253,1.253,0,0,0,.219.09h0a9.319,9.319,0,0,1,7.566,9.148c0,.314-.017.625-.047.932,0,.008,0,.015,0,.024a1.3,1.3,0,0,0,.032.32,1.374,1.374,0,0,0,.026.2q.118.225.246.445a1.367,1.367,0,0,0,.16.133,1.3,1.3,0,0,0,.247.192c.007,0,.012.011.02.015a8.752,8.752,0,0,1,3.053,2.561,1.333,1.333,0,0,0,2.128-1.608,11.531,11.531,0,0,0-3.216-2.894c0-.106.016-.209.016-.315a11.989,11.989,0,0,0-8.526-11.466c.01-.174.026-.349.026-.52a9.326,9.326,0,0,0-7-9.029A1.333,1.333,0,0,0,1,345.455Z" transform="translate(0 -289.276)" fill="#7975fc"/>
        <path id="Path_510" data-name="Path 510" d="M1.534,451.052a1.334,1.334,0,0,0-.4,2.637,7.149,7.149,0,0,1,5.78,5.738,1.334,1.334,0,0,0,1.316,1.124,1.378,1.378,0,0,0,.21-.016,1.334,1.334,0,0,0,1.108-1.526A9.784,9.784,0,0,0,1.534,451.052Z" transform="translate(0 -380.575)" fill="#7975fc"/>
        <path id="Path_511" data-name="Path 511" d="M180.45,181.794a1.339,1.339,0,0,0,.947-2.28l-.2-.16a1.014,1.014,0,0,0-.24-.12.842.842,0,0,0-.24-.079,1.931,1.931,0,0,0-.266-.027,1.4,1.4,0,0,0-.947.387,1.314,1.314,0,0,0,.44,2.173A1.334,1.334,0,0,0,180.45,181.794Z" transform="translate(-151.117 -151.151)" fill="#7975fc"/>
        <path id="Path_512" data-name="Path 512" d="M120.245,70.6a1.335,1.335,0,0,0,1.425-.2l8.286-7.1,3.335,4.169a3.54,3.54,0,0,0-1.1,1.441,3.488,3.488,0,0,0,.768,3.861l6.9,6.9a1.333,1.333,0,0,0,1.885,0l6.9-6.9a3.541,3.541,0,0,0-1.249-5.816l3.385-4.231h.2l8.959,7.679a1.333,1.333,0,0,0,2.2-1.012v-20a1.333,1.333,0,0,0-.33-.878l-9-10.289V18.8c.129-1.166.745-10.514-11.26-18.517h0a1.335,1.335,0,0,0-.482-.2q-.256,0-.512,0a1.333,1.333,0,0,0-.482.2h0c-12.006,8-11.389,17.352-11.26,18.517v5.258a1.333,1.333,0,0,0,2.667,0v-4h18.666v32H131.469V34.721a1.333,1.333,0,0,0-2.667,0v3.5l-9,10.289a1.334,1.334,0,0,0-.33.878v20A1.334,1.334,0,0,0,120.245,70.6Zm26.509.284L140.8,76.835l-5.952-5.952a.876.876,0,0,1,.619-1.5h10.667a.876.876,0,0,1,.619,1.5Zm-2.593-4.162h-8.052l-3.2-4h14.452Zm15.307-16.832v16.6L152.8,60.774V42.27Zm-28.031-32.5c.111-2.486,1.292-8.653,9.365-14.359,8.111,5.728,9.274,11.863,9.371,14.359Zm18.7,42.666H131.469V54.721h18.666Zm-28-10.165L128.8,42.27v18.5l-6.667,5.714Z" transform="translate(-100.802 -0.079)" fill="#7975fc"/>
        <path id="Path_513" data-name="Path 513" d="M226.668,185.793A6.667,6.667,0,1,0,220,192.459,6.667,6.667,0,0,0,226.668,185.793Zm-10.667,0a4,4,0,1,1,4,4A4,4,0,0,1,216,185.793Z" transform="translate(-180.002 -151.15)" fill="#7975fc"/>
      </g>
    </g>
  </g>
</svg>
